<?xml version="1.0" standalone="no"?>
<!DOCTYPE svg PUBLIC "-//W3C//DTD SVG 1.1//EN" "http://www.w3.org/Graphics/SVG/1.1/DTD/svg11.dtd" >
<svg xmlns="http://www.w3.org/2000/svg" xmlns:xlink="http://www.w3.org/1999/xlink" version="1.1">
<metadata>
Created by FontForge 20201107 at Wed Apr 22 15:34:31 2026
 By www-data
Copyright (c) 2011-2024 Canada Type. All rights reserved.
</metadata>
<defs>
<font id="Gibson-Book" horiz-adv-x="1155" >
  <font-face 
    font-family="Gibson Book"
    font-weight="300"
    font-stretch="normal"
    units-per-em="2048"
    panose-1="0 0 0 0 0 0 0 0 0 0"
    ascent="1638"
    descent="-410"
    x-height="958"
    cap-height="1413"
    bbox="-287 -477 2327 2114"
    underline-thickness="102"
    underline-position="-255"
    unicode-range="U+000D-1F16C"
  />
<missing-glyph horiz-adv-x="1421" 
d="M166 0v1413h1089v-1413h-1089zM293 166l366 541l-366 540v-1081zM375 123h680l-340 502zM375 1290l340 -502l340 502h-680zM770 707l358 -529v1057z" />
    <glyph glyph-name="ff" unicode="ff" horiz-adv-x="1114" 
d="M176 0v831h-139v127h139v113q0 363 291 363q72 0 141 -21l-14 -123q-53 17 -109 17q-40 0 -69.5 -12t-46 -31t-26 -49.5t-12.5 -59.5t-3 -70v-127h377v113q0 363 290 363q73 0 142 -21l-15 -123q-53 17 -108 17q-40 0 -69.5 -12t-46.5 -31t-26.5 -49t-12.5 -60t-3 -70
v-127h238v-127h-238v-831h-151v831h-377v-831h-152z" />
    <glyph glyph-name="fi" unicode="fi" horiz-adv-x="1085" 
d="M176 0v831h-139v127h139v113q0 169 71 266t220 97q72 0 141 -21l-14 -123q-53 17 -109 17q-49 0 -81.5 -17t-48 -49.5t-21.5 -68.5t-6 -87v-127h239v-127h-239v-831h-152zM780 0v958h152v-958h-152zM856 1186q-46 0 -76 30t-30 74t30 74.5t76 30.5t76.5 -30.5t30.5 -74.5
t-30.5 -74t-76.5 -30z" />
    <glyph glyph-name="fl" unicode="fl" horiz-adv-x="1085" 
d="M176 0v831h-139v127h139v113q0 169 71 266t220 97q72 0 141 -21l-14 -123q-53 17 -109 17q-49 0 -81.5 -17t-48 -49.5t-21.5 -68.5t-6 -87v-127h239v-127h-239v-831h-152zM780 0v1413h152v-1413h-152z" />
    <glyph glyph-name="f_f_i" unicode="ffi" horiz-adv-x="1613" 
d="M176 0v831h-139v127h139v113q0 363 291 363q72 0 141 -21l-14 -123q-53 17 -109 17q-40 0 -69.5 -12t-46 -31t-26 -49.5t-12.5 -59.5t-3 -70v-127h377v113q0 363 290 363q73 0 142 -21l-15 -123q-53 17 -108 17q-40 0 -69.5 -12t-46.5 -31t-26.5 -49t-12.5 -60t-3 -70
v-127h238v-127h-238v-831h-151v831h-377v-831h-152zM1309 0v958h151v-958h-151zM1384 1186q-46 0 -76 30t-30 74t30 74.5t76 30.5t76.5 -30.5t30.5 -74.5t-30.5 -74t-76.5 -30z" />
    <glyph glyph-name="f_f_l" unicode="ffl" horiz-adv-x="1613" 
d="M176 0v831h-139v127h139v113q0 363 291 363q72 0 141 -21l-14 -123q-53 17 -109 17q-40 0 -69.5 -12t-46 -31t-26 -49.5t-12.5 -59.5t-3 -70v-127h377v113q0 363 290 363q73 0 142 -21l-15 -123q-53 17 -108 17q-40 0 -69.5 -12t-46.5 -31t-26.5 -49t-12.5 -60t-3 -70
v-127h238v-127h-238v-831h-151v831h-377v-831h-152zM1309 0v1413h151v-1413h-151z" />
    <glyph glyph-name=".notdef" horiz-adv-x="1421" 
d="M166 0v1413h1089v-1413h-1089zM293 166l366 541l-366 540v-1081zM375 123h680l-340 502zM375 1290l340 -502l340 502h-680zM770 707l358 -529v1057z" />
    <glyph glyph-name=".null" horiz-adv-x="0" 
 />
    <glyph glyph-name="nonmarkingreturn" horiz-adv-x="682" 
 />
    <glyph glyph-name="NULL" horiz-adv-x="0" 
 />
    <glyph glyph-name="CR" unicode="&#xd;" horiz-adv-x="0" 
 />
    <glyph glyph-name="space" unicode=" " horiz-adv-x="409" 
 />
    <glyph glyph-name="exclam" unicode="!" horiz-adv-x="598" 
d="M236 356l-17 1057h160l-17 -1057h-126zM299 -20q-51 0 -84 30.5t-33 79.5q0 52 32.5 83.5t84.5 31.5t84.5 -31.5t32.5 -83.5q0 -49 -33 -79.5t-84 -30.5z" />
    <glyph glyph-name="quotedbl" unicode="&#x22;" horiz-adv-x="749" 
d="M172 938l-16 475h147l-14 -475h-117zM461 938l-15 475h148l-16 -475h-117z" />
    <glyph glyph-name="numbersign" unicode="#" horiz-adv-x="1183" 
d="M358 0h-129l60 426h-217v121h233l43 319h-219v121h236l59 426h129l-59 -426h272l59 426h127l-59 -426h219v-121h-235l-43 -319h217v-121h-234l-59 -426h-127l59 426h-272zM434 547h273l43 319h-273z" />
    <glyph glyph-name="dollar" unicode="$" horiz-adv-x="966" 
d="M451 -117v199q-118 6 -213.5 61t-159.5 150l90 92q45 -67 119.5 -119.5t167.5 -60.5v467l-88 33q-112 43 -174 122t-62 183q0 129 88.5 214t231.5 103v189h114v-187q98 -10 174 -51t123 -102l-82 -95q-99 111 -219 127v-428l90 -37q104 -41 170 -125t66 -188
q0 -128 -89.5 -221.5t-232.5 -118.5v-207h-114zM272 1022q0 -75 46 -119.5t137 -81.5v387q-82 -13 -132.5 -61t-50.5 -125zM561 211q83 20 135 75t52 134q0 72 -45.5 121t-141.5 88v-418z" />
    <glyph glyph-name="percent" unicode="%" horiz-adv-x="1556" 
d="M412 764q-139 0 -230.5 92.5t-91.5 237.5q0 146 91.5 238.5t230.5 92.5q141 0 232 -92t91 -239q0 -145 -91.5 -237.5t-231.5 -92.5zM412 870q93 0 147.5 62t54.5 162t-55 162.5t-147 62.5q-90 0 -146.5 -63t-56.5 -162t56.5 -161.5t146.5 -62.5zM391 -39l-98 53l872 1438
l97 -53zM1143 -12q-139 0 -227.5 92t-88.5 239q0 145 91.5 237.5t230.5 92.5q140 0 228.5 -92t88.5 -238q0 -147 -91 -239t-232 -92zM1149 94q92 0 147.5 62.5t55.5 162.5q0 98 -56 161t-147 63q-90 0 -146.5 -63t-56.5 -161q0 -100 56 -162.5t147 -62.5z" />
    <glyph glyph-name="ampersand" unicode="&#x26;" horiz-adv-x="1372" 
d="M498 -25q-187 0 -302.5 105t-115.5 285q0 67 21 125t53 101.5t84.5 86t101 71.5t117.5 66q-84 95 -126 167.5t-42 162.5q0 127 95 208t245 81q151 0 240 -80.5t89 -204.5q0 -76 -37.5 -143t-95 -116.5t-145.5 -101.5l307 -356q34 38 83 128.5t77 158.5l133 -53
q-117 -239 -201 -338l279 -316v-12h-193l-186 219q-53 -57 -98 -96t-103.5 -75.5t-128.5 -54.5t-151 -18zM520 106q113 0 213 65t156 144l-348 402l-68 -37q-50 -27 -86 -52t-73.5 -62.5t-57.5 -86t-20 -106.5q0 -122 79 -194.5t205 -72.5zM594 881q110 63 161.5 120
t51.5 142q0 78 -47.5 119t-130.5 41t-135 -43.5t-52 -122.5q0 -33 12 -67t38 -69.5t46.5 -59t55.5 -60.5z" />
    <glyph glyph-name="quotesingle" unicode="'" horiz-adv-x="458" 
d="M172 938l-16 475h147l-14 -475h-117z" />
    <glyph glyph-name="parenleft" unicode="(" horiz-adv-x="598" 
d="M401 -285q-290 430 -290 926t290 926l101 -54q-91 -138 -168.5 -382t-77.5 -490q0 -245 77.5 -490t168.5 -382z" />
    <glyph glyph-name="parenright" unicode=")" horiz-adv-x="598" 
d="M96 -231q91 137 168.5 382t77.5 490q0 246 -77.5 490t-168.5 382l101 54q290 -430 290 -926t-290 -926z" />
    <glyph glyph-name="asterisk" unicode="*" horiz-adv-x="1073" 
d="M365 735l-95 64l197 264l-303 96l41 107l287 -115l-15 297h119l-14 -297l286 115l41 -107l-301 -96l195 -264l-94 -64l-172 275z" />
    <glyph glyph-name="plus" unicode="+" horiz-adv-x="1171" 
d="M518 184v457h-424v127h424v459h135v-459h424v-127h-424v-457h-135z" />
    <glyph glyph-name="comma" unicode="," horiz-adv-x="573" 
d="M131 -287l133 477h162l-176 -477h-119z" />
    <glyph glyph-name="hyphen" unicode="-" horiz-adv-x="614" 
d="M78 475v125h459v-125h-459z" />
    <glyph glyph-name="period" unicode="." horiz-adv-x="573" 
d="M287 -20q-51 0 -84 30.5t-33 79.5q0 52 32.5 83.5t84.5 31.5q51 0 83.5 -31.5t32.5 -83.5q0 -49 -32.5 -79.5t-83.5 -30.5z" />
    <glyph glyph-name="slash" unicode="/" horiz-adv-x="1056" 
d="M158 -186l-115 55l856 1749l115 -55z" />
    <glyph glyph-name="zero" unicode="0" horiz-adv-x="1171" 
d="M586 -25q-106 0 -193.5 41t-146.5 110t-99.5 163.5t-58.5 198.5t-18 217t18.5 217.5t59 199t100 164t146.5 110t192 40.5q106 0 193.5 -41t146.5 -110t99.5 -163t58.5 -198t18 -217t-18.5 -218t-59 -199t-100 -163.5t-146.5 -110.5t-192 -41zM586 111q176 0 269 160.5
t93 430.5q0 177 -39.5 310t-122 210.5t-200.5 77.5q-176 0 -269.5 -160.5t-93.5 -430.5q0 -177 39.5 -310t122.5 -210.5t201 -77.5z" />
    <glyph glyph-name="one" unicode="1" horiz-adv-x="794" 
d="M389 0v1280h-291v133h445v-1413h-154z" />
    <glyph glyph-name="two" unicode="2" horiz-adv-x="1171" 
d="M152 0l-25 106l496 494q68 68 105.5 110t73 94t50 101.5t14.5 108.5q0 129 -76.5 207.5t-209.5 78.5q-118 0 -212.5 -61.5t-156.5 -165.5l-94 94q65 119 183.5 193t283.5 74q202 0 321 -112.5t119 -295.5q0 -62 -16 -121t-37 -101.5t-61.5 -93.5t-69 -81t-78.5 -80
l-418 -416h737v-133h-929z" />
    <glyph glyph-name="three" unicode="3" horiz-adv-x="1146" 
d="M555 -23q-158 0 -276 66.5t-191 177.5l96 98q138 -206 369 -206q139 0 228 71.5t89 204.5q0 134 -89 208.5t-224 74.5h-154v129h154q124 0 198 67.5t74 184.5q0 119 -77.5 183t-200.5 64q-183 0 -346 -170l-84 99q73 91 185.5 149t254.5 58q182 0 303 -99t121 -266
q0 -61 -17 -113t-42 -86t-58.5 -61t-61.5 -40.5t-56 -22.5v-7q43 -6 89 -31t89.5 -66.5t71.5 -108.5t28 -148q0 -183 -133.5 -296.5t-339.5 -113.5z" />
    <glyph glyph-name="four" unicode="4" horiz-adv-x="1171" 
d="M766 0v317h-717v115l717 989h154v-970h210v-134h-210v-317h-154zM211 451h555v772z" />
    <glyph glyph-name="five" unicode="5" horiz-adv-x="1130" 
d="M532 -25q-92 0 -171 25.5t-131.5 66.5t-85 78.5t-52.5 75.5l96 92q51 -86 141 -144t206 -58q68 0 129.5 21t111 61.5t78.5 106t29 146.5t-28 145t-76 104t-108.5 60.5t-129.5 20.5t-141.5 -22.5t-112.5 -53.5l-86 50l131 663h669v-133h-561l-86 -428q73 47 226 47
q129 0 232 -50t165.5 -153t62.5 -245q0 -111 -42.5 -203t-113.5 -150.5t-162 -90.5t-190 -32z" />
    <glyph glyph-name="six" unicode="6" horiz-adv-x="1171" 
d="M612 -23q-135 0 -235 55t-157 153t-84 218.5t-27 266.5q0 124 19 234.5t61.5 209t105.5 169.5t157.5 112t211.5 41q115 0 220 -42.5t163 -105.5l-74 -110q-139 125 -314 125q-89 0 -157.5 -34t-112.5 -90.5t-72.5 -138t-40.5 -167.5t-14 -187q54 91 146.5 150t226.5 59
q191 0 319.5 -122.5t128.5 -323.5q0 -131 -56 -237.5t-164.5 -170.5t-250.5 -64zM614 111q102 0 174.5 47.5t105 120.5t32.5 161t-32.5 161t-105 121t-174.5 48q-78 0 -140 -27.5t-99.5 -74t-57.5 -105t-20 -123.5q0 -88 33.5 -161t107 -120.5t176.5 -47.5z" />
    <glyph glyph-name="seven" unicode="7" horiz-adv-x="1171" 
d="M238 0l686 1280h-801v133h946l43 -88l-700 -1325h-174z" />
    <glyph glyph-name="eight" unicode="8" horiz-adv-x="1171" 
d="M586 -23q-209 0 -338 109t-129 301q0 132 72 225.5t194 132.5v5q-32 14 -57.5 27.5t-58 41t-54 59.5t-36.5 83t-15 112q0 164 123 262.5t299 98.5t299 -98.5t123 -262.5q0 -61 -15.5 -112t-37 -83t-54 -59.5t-58 -41t-57.5 -27.5v-5q122 -39 194.5 -132.5t72.5 -225.5
q0 -192 -129 -301t-338 -109zM586 109q133 0 223 78t90 210t-87.5 209.5t-225.5 77.5t-226 -77.5t-88 -209.5t90.5 -210t223.5 -78zM586 811q119 0 194.5 64.5t75.5 181.5t-75.5 181.5t-194.5 64.5t-195 -64.5t-76 -181.5t76 -181.5t195 -64.5z" />
    <glyph glyph-name="nine" unicode="9" horiz-adv-x="1171" 
d="M508 -23q-115 0 -220 42.5t-163 105.5l74 111q139 -125 313 -125q89 0 158 34t113 91t72.5 138t41 166.5t14.5 186.5q-54 -91 -147 -150t-227 -59q-124 0 -226 54t-162.5 157t-60.5 236q0 97 33 183t93 150t149 101t196 37q109 0 196 -37t144.5 -100.5t96 -153t55 -190.5
t16.5 -216q0 -124 -19.5 -234t-62.5 -208t-107 -168t-158.5 -111t-211.5 -41zM557 643q103 0 177.5 47.5t108.5 120t34 160.5t-34 161.5t-108.5 122t-177.5 48.5q-102 0 -174.5 -48t-104.5 -121t-32 -161t32 -161t104.5 -121t174.5 -48z" />
    <glyph glyph-name="colon" unicode=":" horiz-adv-x="614" 
d="M328 750q-52 0 -84.5 31t-32.5 81q0 51 33 82t84 31t83.5 -31t32.5 -82t-32.5 -81.5t-83.5 -30.5zM328 -20q-51 0 -84 30.5t-33 79.5q0 52 32.5 83.5t84.5 31.5q51 0 83.5 -31.5t32.5 -83.5q0 -49 -32.5 -79.5t-83.5 -30.5z" />
    <glyph glyph-name="semicolon" unicode=";" horiz-adv-x="614" 
d="M328 750q-52 0 -84.5 31t-32.5 81q0 51 33 82t84 31t83.5 -31t32.5 -82t-32.5 -81.5t-83.5 -30.5zM152 -287l133 477h161l-176 -477h-118z" />
    <glyph glyph-name="less" unicode="&#x3c;" horiz-adv-x="1171" 
d="M1014 244l-856 401v117l856 401v-139l-688 -319l688 -322v-139z" />
    <glyph glyph-name="equal" unicode="=" horiz-adv-x="1171" 
d="M158 836v127h856v-127h-856zM156 446v127h860v-127h-860z" />
    <glyph glyph-name="greater" unicode="&#x3e;" horiz-adv-x="1171" 
d="M158 244v139l688 322l-688 319v139l856 -401v-117z" />
    <glyph glyph-name="question" unicode="?" horiz-adv-x="978" 
d="M408 356l-5 144q0 106 34 177t100 128q101 87 144.5 149t43.5 140q0 96 -66.5 153.5t-169.5 57.5q-161 0 -278 -160l-84 96q55 89 157.5 142t217.5 53q171 0 273 -97t102 -239q0 -174 -175 -328q-97 -83 -128 -135t-33 -121l-4 -160h-129zM473 -20q-51 0 -84 30.5
t-33 79.5q0 52 32.5 83.5t84.5 31.5t84.5 -31.5t32.5 -83.5q0 -49 -33 -79.5t-84 -30.5z" />
    <glyph glyph-name="at" unicode="@" horiz-adv-x="1683" 
d="M844 -332q-165 0 -306 53t-243 148.5t-159.5 236t-57.5 308.5q0 182 67 337.5t180 259.5t262 163t312 59q197 0 358.5 -81.5t255 -229t93.5 -332.5q0 -123 -43 -235t-111.5 -189t-155.5 -122.5t-174 -45.5q-81 0 -123 38.5t-47 100.5q-131 -139 -282 -139q-110 0 -183 78
t-73 227q0 104 37 211t99.5 193t153.5 140t191 54q73 0 134.5 -30t100.5 -78l25 71h121l-186 -569q-25 -73 -25 -113q0 -71 82 -71q123 0 229.5 142t106.5 333q0 111 -41.5 209t-116.5 170.5t-186 114.5t-242 42q-145 0 -272.5 -51.5t-220.5 -142.5t-147 -222.5t-54 -283.5
q0 -188 79 -333.5t228.5 -227.5t347.5 -82q153 0 296 49.5t247 124.5l47 -90q-74 -73 -245.5 -134t-358.5 -61zM698 117q81 0 170 69t121 172l103 326q-14 40 -64 72t-121 32q-102 0 -185.5 -75.5t-126 -182t-42.5 -213.5t42.5 -153.5t102.5 -46.5z" />
    <glyph glyph-name="A" unicode="A" horiz-adv-x="1310" 
d="M10 0l588 1417h115l587 -1417h-163l-158 395h-647l-158 -395h-164zM383 528h545l-273 680z" />
    <glyph glyph-name="B" unicode="B" horiz-adv-x="1175" 
d="M166 0v1413h369q452 0 452 -354q0 -107 -63.5 -192.5t-159.5 -116.5v-5q154 -28 236.5 -117t82.5 -231q0 -397 -483 -397h-434zM557 133q71 0 124.5 6.5t101.5 23.5t78 46.5t47.5 76.5t17.5 111q0 72 -27.5 125t-79 84t-118.5 45.5t-152 14.5h-230v-533h238zM498 797
q331 0 331 247q0 127 -80 181.5t-223 54.5h-207v-483h179z" />
    <glyph glyph-name="C" unicode="C" horiz-adv-x="1392" 
d="M803 -25q-155 0 -288.5 53.5t-229 148t-149.5 230t-54 295.5q0 161 55 298.5t151.5 232t229.5 148t285 53.5q168 0 295.5 -58t208.5 -139l-80 -117q-51 69 -169.5 123.5t-260.5 54.5q-159 0 -285.5 -72t-199 -206.5t-72.5 -310.5q0 -264 156.5 -431t404.5 -167
q262 0 438 190l80 -111q-83 -92 -212 -153.5t-304 -61.5z" />
    <glyph glyph-name="D" unicode="D" horiz-adv-x="1392" 
d="M166 0v1413h403q216 0 385 -88t263 -249.5t94 -370.5q0 -200 -94 -360.5t-264 -252.5t-384 -92h-403zM565 135q137 0 250 46t186 125t112.5 182t39.5 219q0 264 -160.5 417.5t-427.5 153.5h-246v-1143h246z" />
    <glyph glyph-name="E" unicode="E" horiz-adv-x="1069" 
d="M166 0v1413h795v-135h-642v-465h605v-133h-605v-545h656v-135h-809z" />
    <glyph glyph-name="F" unicode="F" horiz-adv-x="995" 
d="M166 0v1413h749v-133h-596v-514h560v-133h-560v-633h-153z" />
    <glyph glyph-name="G" unicode="G" horiz-adv-x="1511" 
d="M817 -23q-217 0 -384 90t-259 254.5t-92 378.5q0 216 93 384t258 260t374 92q183 0 322.5 -69.5t232.5 -176.5l-105 -105q-181 215 -458 215q-118 0 -220.5 -41.5t-177.5 -117t-118 -187.5t-43 -247q0 -273 163.5 -433.5t425.5 -160.5q121 0 230 35.5t180 103.5v350h-405
v135h557v-536q-91 -106 -245.5 -165t-328.5 -59z" />
    <glyph glyph-name="H" unicode="H" horiz-adv-x="1449" 
d="M166 0v1413h153v-600h811v600h154v-1413h-154v680h-811v-680h-153z" />
    <glyph glyph-name="I" unicode="I" horiz-adv-x="485" 
d="M166 0v1413h153v-1413h-153z" />
    <glyph glyph-name="J" unicode="J" horiz-adv-x="485" 
d="M45 -410q-83 0 -127 23l4 125q35 -14 92 -14q47 0 78.5 21t47 61.5t21 84t5.5 103.5v1419h153v-1423q0 -66 -8.5 -123t-28.5 -109t-51 -88.5t-78.5 -58t-107.5 -21.5z" />
    <glyph glyph-name="K" unicode="K" horiz-adv-x="1163" 
d="M166 0v1413h153v-641l619 641h195l-549 -555l590 -858h-191l-508 748l-156 -158v-590h-153z" />
    <glyph glyph-name="L" unicode="L" horiz-adv-x="860" 
d="M166 0v1413h153v-1278h500v-135h-653z" />
    <glyph glyph-name="M" unicode="M" horiz-adv-x="1720" 
d="M96 0l142 1413h176l446 -1141l447 1141h176l141 -1413h-151l-113 1165l-463 -1183h-74l-463 1183l-112 -1165h-152z" />
    <glyph glyph-name="N" unicode="N" horiz-adv-x="1507" 
d="M166 0v1413h158l864 -1165v334v831h153v-1413h-147l-877 1182l2 -498v-684h-153z" />
    <glyph glyph-name="O" unicode="O" horiz-adv-x="1609" 
d="M805 -23q-146 0 -277 51t-230.5 143.5t-157.5 231.5t-58 304t58.5 303.5t157.5 231t230 143.5t277 51q145 0 276 -51t230.5 -143.5t158 -231t58.5 -303.5q0 -166 -58 -304.5t-157 -231t-230 -143.5t-278 -51zM805 113q115 0 217.5 41.5t180 117t122.5 188.5t45 249
t-45 248.5t-122.5 186.5t-180 115t-217.5 41t-217 -40.5t-179.5 -114.5t-123 -187t-45.5 -249q0 -180 78.5 -317.5t206 -208t280.5 -70.5z" />
    <glyph glyph-name="P" unicode="P" horiz-adv-x="1056" 
d="M166 0v1413h366q131 0 233.5 -42.5t164 -132t61.5 -214.5q0 -130 -65.5 -220t-172.5 -131.5t-247 -41.5h-187v-631h-153zM518 764q146 0 231 63.5t85 194.5q0 128 -86.5 193t-221.5 65h-207v-516h199z" />
    <glyph glyph-name="Q" unicode="Q" horiz-adv-x="1609" 
d="M805 -23q-146 0 -277 51t-230.5 143.5t-157.5 231.5t-58 304t58.5 303.5t157.5 231t230 143.5t277 51q145 0 276 -51t230.5 -143.5t158 -231t58.5 -303.5q0 -163 -55.5 -298.5t-155.5 -232.5l158 -182l-105 -92l-164 188q-179 -113 -401 -113zM805 113q171 0 307 86
l-129 149l104 92l132 -151q151 164 151 420q0 136 -45 248.5t-122.5 186.5t-180 115t-217.5 41t-217 -40.5t-179.5 -114.5t-123 -187t-45.5 -249q0 -180 78.5 -317.5t206 -208t280.5 -70.5z" />
    <glyph glyph-name="R" unicode="R" horiz-adv-x="1114" 
d="M166 0v1413h383q199 0 318.5 -99t119.5 -286q0 -156 -92 -254.5t-246 -130.5l420 -643h-182l-406 631h-162v-631h-153zM469 764q83 0 144.5 11.5t112 39.5t77 80t26.5 127q0 258 -340 258h-170v-516h150z" />
    <glyph glyph-name="S" unicode="S" horiz-adv-x="1081" 
d="M532 -20q-81 0 -153.5 21.5t-128 59.5t-96 79t-74.5 91l104 101q63 -93 158.5 -156t210.5 -63q116 0 197 65.5t81 179.5q0 54 -19.5 98.5t-57.5 77.5t-77.5 56.5t-94.5 46.5l-209 90q-238 102 -238 334q0 91 35 163.5t94.5 117t133.5 67.5t157 23q129 0 233 -52t168 -131
l-90 -102q-129 151 -307 151q-117 0 -192.5 -57.5t-75.5 -165.5q0 -87 50 -140.5t146 -94.5l193 -82q53 -23 94 -45t83.5 -55.5t69.5 -71.5t44.5 -91.5t17.5 -115.5q0 -126 -66.5 -218.5t-168.5 -136.5t-222 -44z" />
    <glyph glyph-name="T" unicode="T" horiz-adv-x="1011" 
d="M430 0v1278h-412v135h975v-135h-409v-1278h-154z" />
    <glyph glyph-name="U" unicode="U" horiz-adv-x="1347" 
d="M674 -23q-267 0 -393.5 144t-126.5 407v885h153v-889q0 -201 96.5 -306t270.5 -105t270 105t96 306v889h154v-885q0 -263 -126.5 -407t-393.5 -144z" />
    <glyph glyph-name="V" unicode="V" horiz-adv-x="1183" 
d="M526 -2l-516 1415h162l420 -1173l420 1173h162l-517 -1415h-131z" />
    <glyph glyph-name="W" unicode="W" horiz-adv-x="1884" 
d="M420 -2l-402 1415h158l330 -1186l352 1186h168l352 -1182l330 1182h158l-402 -1415h-164l-358 1186l-358 -1186h-164z" />
    <glyph glyph-name="X" unicode="X" horiz-adv-x="1150" 
d="M10 0l465 727l-432 686h182l348 -582l351 582h182l-432 -686l467 -727h-187l-381 625l-378 -625h-185z" />
    <glyph glyph-name="Y" unicode="Y" 
d="M500 0v598l-492 815h174l393 -678l396 678h176l-494 -815v-598h-153z" />
    <glyph glyph-name="Z" unicode="Z" horiz-adv-x="1134" 
d="M61 0v121l807 1157h-784v135h979v-104l-823 -1174h833v-135h-1012z" />
    <glyph glyph-name="bracketleft" unicode="[" horiz-adv-x="598" 
d="M123 -281v1837h377v-102h-240v-1632h240v-103h-377z" />
    <glyph glyph-name="backslash" unicode="\" horiz-adv-x="1056" 
d="M899 -186l-856 1749l115 55l856 -1749z" />
    <glyph glyph-name="bracketright" unicode="]" horiz-adv-x="598" 
d="M98 -281v103h240v1632h-240v102h377v-1837h-377z" />
    <glyph glyph-name="asciicircum" unicode="^" horiz-adv-x="1171" 
d="M143 600l371 821h143l371 -821h-139l-303 688l-305 -688h-138z" />
    <glyph glyph-name="underscore" unicode="_" horiz-adv-x="950" 
d="M-2 -68v129h954v-129h-954z" />
    <glyph glyph-name="grave" unicode="`" horiz-adv-x="737" 
d="M381 1116l-229 297h159l189 -297h-119z" />
    <glyph glyph-name="a" unicode="a" horiz-adv-x="993" 
d="M391 -20q-140 0 -235 81.5t-95 210.5q0 128 96.5 207t286.5 88l263 13v34q0 116 -70.5 175t-185.5 59q-79 0 -156 -28t-127 -64l-53 129q160 94 342 94q205 0 303 -103t98 -313v-563h-149v121q-40 -52 -124 -96.5t-194 -44.5zM420 106q89 0 167.5 46.5t119.5 101.5v207
l-250 -12q-242 -11 -242 -175q0 -73 57 -120.5t148 -47.5z" />
    <glyph glyph-name="b" unicode="b" horiz-adv-x="1198" 
d="M659 -20q-111 0 -207 47t-149 139v-166h-149v1413h151v-512q0 -99 -2 -113q55 87 148.5 139t216.5 52q204 0 329 -138t125 -352q0 -220 -130.5 -364.5t-332.5 -144.5zM631 111q154 0 245 104t91 264q0 159 -89.5 264t-238.5 105q-151 0 -245.5 -107t-94.5 -268
q0 -155 88.5 -258.5t243.5 -103.5z" />
    <glyph glyph-name="c" unicode="c" horiz-adv-x="1003" 
d="M578 -20q-138 0 -252 60t-182 174.5t-68 262.5t69.5 264t183 177t249.5 61q109 0 201 -38t149 -95l-68 -115q-127 117 -285 117q-150 0 -247 -101.5t-97 -265.5t97.5 -267t251.5 -103q91 0 166 36.5t126 100.5l70 -115q-60 -68 -154 -110.5t-210 -42.5z" />
    <glyph glyph-name="d" unicode="d" horiz-adv-x="1198" 
d="M530 -20q-204 0 -329 137.5t-125 351.5q0 221 130.5 365.5t332.5 144.5q111 0 207 -47t149 -139q-2 14 -2 112v508h151v-1413h-149v170q-55 -87 -148.5 -138.5t-216.5 -51.5zM559 111q151 0 245.5 106.5t94.5 267.5q0 155 -88.5 259t-243.5 104q-154 0 -245 -104.5
t-91 -264.5q0 -159 89.5 -263.5t238.5 -104.5z" />
    <glyph glyph-name="e" unicode="e" horiz-adv-x="1073" 
d="M563 -20q-97 0 -178.5 27t-137.5 73t-95 109t-57.5 135t-18.5 151q0 141 57.5 255.5t166.5 181.5t249 67q198 0 323 -126.5t125 -320.5q0 -48 -6 -96h-760q5 -143 98.5 -234t245.5 -91q178 0 324 125l68 -99q-64 -73 -171 -115t-233 -42zM846 559q0 52 -18 102t-53 92.5
t-93 68.5t-131 26q-138 0 -223 -84.5t-95 -204.5h613z" />
    <glyph glyph-name="f" unicode="f" horiz-adv-x="585" 
d="M176 0v831h-139v127h139v113q0 169 71 266t220 97q72 0 141 -21l-14 -123q-53 17 -109 17q-49 0 -81.5 -17t-48 -49.5t-21.5 -68.5t-6 -87v-127h239v-127h-239v-831h-152z" />
    <glyph glyph-name="g" unicode="g" horiz-adv-x="1187" 
d="M526 -410q-216 0 -411 146l75 110q178 -125 345 -125q358 0 358 410v57q-55 -83 -148.5 -132.5t-214.5 -49.5q-204 0 -329 134.5t-125 342.5q0 214 130.5 355t332.5 141q111 0 207 -45.5t149 -136.5v159h149v-811q0 -260 -134 -407.5t-384 -147.5zM559 137
q151 0 245.5 103t94.5 258q0 149 -88.5 249.5t-243.5 100.5q-154 0 -245 -100.5t-91 -253.5q0 -154 89.5 -255.5t238.5 -101.5z" />
    <glyph glyph-name="h" unicode="h" horiz-adv-x="1085" 
d="M154 0v1413h151v-477q0 -101 -4 -133q43 86 129.5 131t196.5 45q92 0 157 -30t100 -86.5t50.5 -124.5t15.5 -156v-582h-151v571q0 277 -215 277q-61 0 -110.5 -22.5t-80 -57.5t-51 -81t-29 -90.5t-8.5 -88.5v-508h-151z" />
    <glyph glyph-name="i" unicode="i" horiz-adv-x="458" 
d="M154 0v958h151v-958h-151zM229 1186q-46 0 -76 30t-30 74t30.5 74.5t75.5 30.5q46 0 76.5 -30.5t30.5 -74.5t-30.5 -74t-76.5 -30z" />
    <glyph glyph-name="j" unicode="j" horiz-adv-x="458" 
d="M18 -410q-59 0 -96 13l6 133q43 -15 66 -15q92 0 126 59.5t34 211.5v966h151v-976q0 -89 -14 -157t-46 -122.5t-89 -83.5t-138 -29zM229 1186q-46 0 -76 30t-30 74t30.5 74.5t75.5 30.5q46 0 76.5 -30.5t30.5 -74.5t-30.5 -74t-76.5 -30z" />
    <glyph glyph-name="k" unicode="k" horiz-adv-x="958" 
d="M154 0v1413h151v-860l416 405h192l-387 -362l443 -596h-183l-362 500l-119 -113v-387h-151z" />
    <glyph glyph-name="l" unicode="l" horiz-adv-x="458" 
d="M154 0v1413h151v-1413h-151z" />
    <glyph glyph-name="m" unicode="m" horiz-adv-x="1634" 
d="M143 0v958h150v-151q36 75 110 123.5t160 48.5q246 0 307 -207q31 90 113 148.5t182 58.5q81 0 142 -23t97 -59t58 -90t29.5 -107.5t7.5 -119.5v-580h-151v571q0 50 -8 93.5t-28.5 87.5t-63 70t-103.5 26q-115 0 -181.5 -98t-66.5 -244v-506h-152v571q0 39 -4.5 74
t-17.5 73.5t-34.5 66t-59 45.5t-86.5 18q-112 0 -180 -100t-68 -246v-502h-152z" />
    <glyph glyph-name="n" unicode="n" horiz-adv-x="1075" 
d="M143 0v958h150v-155q43 86 128 131t195 45q92 0 157 -30t100.5 -86.5t51 -124.5t15.5 -156v-582h-152v571q0 277 -215 277q-61 0 -110.5 -22.5t-80 -57.5t-51 -81.5t-28.5 -90.5t-8 -88v-508h-152z" />
    <glyph glyph-name="o" unicode="o" 
d="M575 -20q-213 0 -356 139t-143 358q0 144 66 259t180 179t253 64q214 0 359 -142t145 -360t-144.5 -357.5t-359.5 -139.5zM575 111q158 0 253.5 105t95.5 263q0 159 -95.5 264t-253.5 105q-156 0 -250 -105t-94 -264q0 -158 94 -263t250 -105z" />
    <glyph glyph-name="p" unicode="p" horiz-adv-x="1187" 
d="M143 -385v1343h150v-170q55 88 148.5 139.5t215.5 51.5q204 0 329.5 -138t125.5 -352q0 -220 -130.5 -364.5t-332.5 -144.5q-111 0 -207 47t-149 139q2 -14 2 -113v-438h-152zM621 111q154 0 244.5 104t90.5 264q0 159 -89 264t-238 105q-151 0 -245.5 -107t-94.5 -268
q0 -155 88.5 -258.5t243.5 -103.5z" />
    <glyph glyph-name="q" unicode="q" horiz-adv-x="1187" 
d="M893 57q0 99 2 113q-55 -87 -148.5 -138.5t-216.5 -51.5q-204 0 -329 137.5t-125 351.5q0 221 130.5 365.5t332.5 144.5q111 0 207 -47t149 -139v165h149v-1343h-151v442zM559 111q151 0 245.5 106.5t94.5 267.5q0 155 -88.5 259t-243.5 104q-154 0 -245 -104.5
t-91 -264.5q0 -159 89.5 -263.5t238.5 -104.5z" />
    <glyph glyph-name="r" unicode="r" horiz-adv-x="663" 
d="M143 0v958h150v-153q32 83 98.5 128.5t140.5 45.5q66 0 107 -18l-12 -146q-48 23 -101 23q-77 0 -130.5 -51t-77 -128t-23.5 -172v-487h-152z" />
    <glyph glyph-name="s" unicode="s" horiz-adv-x="823" 
d="M408 -20q-111 0 -206.5 46t-150.5 124l80 102q129 -146 281 -146q87 0 145.5 36t58.5 112q0 57 -46 96.5t-150 73.5l-39 12q-146 47 -212.5 110.5t-66.5 164.5q0 84 46.5 146.5t116.5 92t151 29.5q97 0 178 -31.5t137 -81.5l-74 -102q-105 88 -241 88q-79 0 -124.5 -31
t-45.5 -96q0 -59 53 -94t152 -68l34 -12q144 -50 209.5 -112.5t65.5 -166.5q0 -135 -99.5 -213.5t-252.5 -78.5z" />
    <glyph glyph-name="t" unicode="t" horiz-adv-x="618" 
d="M410 -20q-130 0 -180 86.5t-50 269.5v495h-143v127h143v297h152v-297h237v-127h-237v-507q0 -125 26.5 -169t100.5 -44q51 0 108 22l8 -123q-67 -30 -165 -30z" />
    <glyph glyph-name="u" unicode="u" horiz-adv-x="1075" 
d="M459 -20q-92 0 -157 30t-100.5 86.5t-51 124.5t-15.5 156v581h152v-571q0 -276 215 -276q61 0 110.5 22.5t80 57.5t51 81.5t28.5 90.5t8 88v507h152v-958h-150v156q-43 -86 -128 -131t-195 -45z" />
    <glyph glyph-name="v" unicode="v" horiz-adv-x="946" 
d="M410 0l-402 958h162l305 -761l301 761h162l-401 -958h-127z" />
    <glyph glyph-name="w" unicode="w" horiz-adv-x="1536" 
d="M334 0l-309 958h157l242 -761l283 764h122l283 -764l242 761h157l-309 -958h-151l-283 758l-283 -758h-151z" />
    <glyph glyph-name="x" unicode="x" horiz-adv-x="974" 
d="M8 0l389 506l-344 455h170l264 -363l265 363h170l-344 -455l389 -506h-176l-304 412l-303 -412h-176z" />
    <glyph glyph-name="y" unicode="y" horiz-adv-x="946" 
d="M209 -399q-65 0 -131 32l31 125q50 -26 98 -26q46 0 73 26.5t66 114.5l55 127l-393 958h162l309 -784l297 784h162l-469 -1134q-53 -125 -115 -174t-145 -49z" />
    <glyph glyph-name="z" unicode="z" horiz-adv-x="905" 
d="M47 0v98l586 733h-557v127h751v-98l-585 -733h616v-127h-811z" />
    <glyph glyph-name="braceleft" unicode="{" horiz-adv-x="598" 
d="M385 -281q-77 0 -127 18.5t-78 59.5t-38.5 95t-10.5 135v374q0 174 -131 174v127q131 0 131 172v377q0 81 10.5 134.5t38.5 94t78 58.5t127 18h121v-102h-100q-77 0 -107.5 -29.5t-30.5 -105.5v-420q0 -89 -17.5 -142t-45 -75.5t-78.5 -38.5v-8q38 -13 61.5 -28t43 -43
t28 -73.5t8.5 -113.5v-418q0 -76 30.5 -106.5t107.5 -30.5h100v-103h-121z" />
    <glyph glyph-name="bar" unicode="|" horiz-adv-x="520" 
d="M201 -197v1835h118v-1835h-118z" />
    <glyph glyph-name="braceright" unicode="}" horiz-adv-x="598" 
d="M92 -281v103h101q77 0 107 30t30 107v418q0 68 8.5 113.5t28 73.5t43 43t61.5 28v8q-51 16 -78.5 38.5t-45 75.5t-17.5 142v420q0 76 -30 105.5t-107 29.5h-101v102h121q77 0 127 -18t78 -58.5t38.5 -94t10.5 -134.5v-377q0 -172 131 -172v-127q-131 0 -131 -174v-374
q0 -81 -10.5 -135t-38.5 -95t-78 -59.5t-127 -18.5h-121z" />
    <glyph glyph-name="asciitilde" unicode="~" horiz-adv-x="1171" 
d="M88 631q112 215 295 215q105 0 227 -82q111 -76 187 -76q106 0 194 164l92 -74q-112 -215 -295 -215q-99 0 -225 82q-118 76 -186 76q-109 0 -197 -164z" />
    <glyph glyph-name="uni00A0" unicode="&#xa0;" horiz-adv-x="409" 
 />
    <glyph glyph-name="exclamdown" unicode="&#xa1;" horiz-adv-x="598" 
d="M219 -455l17 1057h126l17 -1057h-160zM299 754q-52 0 -84.5 31t-32.5 83q0 49 33 80t84 31t84 -31t33 -80q0 -52 -32.5 -83t-84.5 -31z" />
    <glyph glyph-name="cent" unicode="&#xa2;" horiz-adv-x="1054" 
d="M563 -61v192q-189 22 -311.5 158t-122.5 338q0 203 122.5 338t311.5 157v189h119v-187q99 -9 182.5 -50t128.5 -99l-69 -107q-93 112 -242 129v-741q146 17 246 129l67 -102q-48 -60 -130.5 -102t-182.5 -52v-190h-119zM279 631q0 -146 78 -247t206 -124v733
q-130 -24 -207 -119.5t-77 -242.5z" />
    <glyph glyph-name="sterling" unicode="&#xa3;" horiz-adv-x="1044" 
d="M74 0v133h237q37 62 61.5 147t24.5 156t-16 146h-246v112h213q-9 26 -34 90.5t-36.5 98t-22.5 89t-11 105.5q0 157 113 257t274 100q240 0 350 -177l-88 -94q-37 65 -104 104.5t-152 39.5q-120 0 -183 -68.5t-63 -157.5q0 -54 11.5 -110.5t23 -90.5t36.5 -97t34 -89h313
v-112h-281q17 -77 17 -144q0 -70 -24.5 -156.5t-61.5 -148.5h561v-133h-946z" />
    <glyph glyph-name="currency" unicode="&#xa4;" horiz-adv-x="1331" 
d="M666 246q-165 0 -285 88l-188 -189l-87 86l189 191q-88 120 -88 285q0 160 88 280l-189 191l87 86l188 -189q120 88 285 88t284 -86l189 187l86 -86l-187 -189q86 -122 86 -282q0 -165 -86 -287l187 -189l-86 -86l-189 187q-119 -86 -284 -86zM666 365q146 0 236.5 99.5
t90.5 240.5q0 149 -89.5 244t-237.5 95q-149 0 -238.5 -95t-89.5 -244q0 -141 91 -240.5t237 -99.5z" />
    <glyph glyph-name="yen" unicode="&#xa5;" horiz-adv-x="1263" 
d="M553 0v418h-401v112h401v80l-47 84h-354v113h292l-354 606h174l365 -663l368 663h177l-355 -606h293v-113h-356l-49 -84v-80h405v-112h-405v-418h-154z" />
    <glyph glyph-name="brokenbar" unicode="&#xa6;" horiz-adv-x="520" 
d="M201 899v739h118v-739h-118zM201 -197v740h118v-740h-118z" />
    <glyph glyph-name="section" unicode="&#xa7;" horiz-adv-x="1015" 
d="M500 -410q-157 0 -259.5 69t-148.5 191l123 68q34 -100 112.5 -151.5t180.5 -51.5q101 0 164 52.5t63 150.5q0 93 -67.5 152t-200.5 110q-70 27 -123.5 56.5t-107.5 73.5t-83.5 104.5t-29.5 132.5q0 62 21.5 115.5t56.5 90t67 59t66 38.5q-154 100 -154 266
q0 146 101.5 234t257.5 88q148 0 243.5 -62t141.5 -168l-105 -82q-84 187 -276 187q-95 0 -151 -49t-56 -138q0 -82 66.5 -137.5t189.5 -105.5q67 -27 118 -56t99.5 -72.5t75 -104.5t26.5 -136q0 -185 -200 -291q76 -44 128 -120.5t52 -178.5q0 -149 -113 -241.5t-278 -92.5
zM600 283q164 60 164 225q0 119 -139 194q-78 41 -191 86q-78 -26 -121 -85t-43 -142q0 -39 12 -70.5t35.5 -54.5t43 -36.5t49.5 -30.5q64 -36 190 -86z" />
    <glyph glyph-name="dieresis" unicode="&#xa8;" horiz-adv-x="737" 
d="M530 1163q-39 0 -67.5 29t-28.5 72q0 46 28 73t68 27t68.5 -27.5t28.5 -72.5q0 -43 -29 -72t-68 -29zM207 1163q-39 0 -67.5 29t-28.5 72q0 46 28 73t68 27t68 -27t28 -73q0 -43 -28.5 -72t-67.5 -29z" />
    <glyph glyph-name="copyright" unicode="&#xa9;" horiz-adv-x="1626" 
d="M813 -23q-150 0 -285.5 57t-232.5 154.5t-154 233t-57 285.5t57 285.5t154 232.5t232.5 154t285.5 57q151 0 286.5 -57t232.5 -154t153.5 -232t56.5 -286q0 -201 -96 -368.5t-263.5 -264.5t-369.5 -97zM813 70q129 0 247 50.5t203.5 136t136 203.5t50.5 247
q0 172 -85.5 318.5t-232.5 232t-319 85.5t-319 -85.5t-232.5 -232t-85.5 -318.5q0 -129 50.5 -247t136 -203.5t203.5 -136t247 -50.5zM834 272q-180 0 -302 123t-122 312t122 311.5t302 122.5q106 0 185 -35.5t124 -85.5l-60 -86q-36 43 -99.5 74.5t-143.5 31.5
q-130 0 -220 -88t-90 -241q0 -154 87.5 -243t222.5 -89q153 0 252 102l61 -78q-46 -53 -127.5 -92t-191.5 -39z" />
    <glyph glyph-name="ordfeminine" unicode="&#xaa;" horiz-adv-x="761" 
d="M313 643q-113 0 -184.5 63.5t-71.5 165.5t75 163.5t224 68.5l205 10v33q0 93 -55.5 141.5t-149.5 48.5q-60 0 -120 -19.5t-101 -47.5l-41 88q129 76 275 76q313 0 313 -330v-445h-119v103q-102 -119 -250 -119zM344 737q72 0 129 36.5t90 86.5v166l-190 -8
q-100 -4 -147.5 -41.5t-47.5 -99.5q0 -61 43.5 -100.5t122.5 -39.5z" />
    <glyph glyph-name="guillemotleft" unicode="&#xab;" horiz-adv-x="1171" 
d="M500 -25l-385 502l385 502l104 -78l-323 -424l323 -424zM952 -25l-385 502l385 502l105 -78l-324 -424l324 -424z" />
    <glyph glyph-name="logicalnot" unicode="&#xac;" horiz-adv-x="1171" 
d="M913 342v391h-800v127h927v-518h-127z" />
    <glyph glyph-name="registered" unicode="&#xae;" horiz-adv-x="1110" 
d="M555 512q-194 0 -328.5 134t-134.5 327q0 128 61.5 234.5t168 167.5t233.5 61q195 0 329 -134t134 -329q0 -194 -134 -327.5t-329 -133.5zM555 584q158 0 274.5 115.5t116.5 273.5q0 160 -115.5 275.5t-275.5 115.5t-275.5 -115.5t-115.5 -275.5q0 -158 115.5 -273.5
t275.5 -115.5zM387 707v530h168q91 0 138.5 -39.5t47.5 -112.5q0 -60 -38 -98t-85 -47l150 -233h-98l-138 225h-61v-225h-84zM541 1001q112 0 112 84t-106 84h-76v-168h70z" />
    <glyph glyph-name="macron" unicode="&#xaf;" horiz-adv-x="737" 
d="M127 1194v96h483v-96h-483z" />
    <glyph glyph-name="degree" unicode="&#xb0;" horiz-adv-x="831" 
d="M416 899q-128 0 -219 86.5t-91 216.5t91 216.5t219 86.5t218.5 -86.5t90.5 -216.5t-90.5 -216.5t-218.5 -86.5zM416 997q89 0 148 60t59 145q0 86 -58.5 145.5t-148.5 59.5q-88 0 -147.5 -59.5t-59.5 -145.5q0 -84 59.5 -144.5t147.5 -60.5z" />
    <glyph glyph-name="plusminus" unicode="&#xb1;" horiz-adv-x="1171" 
d="M518 217v449h-424v127h424v450h135v-450h424v-127h-424v-449h-135zM94 0v127h983v-127h-983z" />
    <glyph glyph-name="uni00B2" unicode="&#xb2;" horiz-adv-x="798" 
d="M86 764l-16 78l348 286q147 121 147 240q0 74 -50 119t-134 45q-77 0 -140.5 -41t-103.5 -109l-76 74q49 77 136.5 129.5t199.5 52.5q133 0 212 -73.5t79 -188.5q0 -167 -182 -311l-246 -197h459v-104h-633z" />
    <glyph glyph-name="uni00B3" unicode="&#xb3;" horiz-adv-x="782" 
d="M377 743q-110 0 -190.5 42t-129.5 110l76 78q101 -123 238 -123q91 0 146.5 38t55.5 113t-58.5 117.5t-145.5 42.5h-82v99h82q80 0 128 37.5t48 101.5q0 66 -47.5 99.5t-126.5 33.5q-117 0 -226 -102l-65 79q118 129 301 129q128 0 207.5 -63t79.5 -170q0 -68 -39 -115.5
t-97 -70.5v-5q66 -22 115 -76t49 -137q0 -114 -88.5 -186t-230.5 -72z" />
    <glyph glyph-name="acute" unicode="&#xb4;" horiz-adv-x="737" 
d="M238 1116l188 297h160l-230 -297h-118z" />
    <glyph glyph-name="uni00B5" unicode="&#xb5;" 
d="M145 -385v1343h152v-559q0 -49 4 -87.5t17.5 -79t36.5 -67.5t63.5 -44t95.5 -17q92 0 156.5 52.5t94.5 138t30 194.5v469h151v-718q0 -65 19 -94t59 -29t80 18v-123q-61 -22 -117 -22q-164 0 -184 182q-34 -84 -116 -138t-181 -54q-145 0 -219 86q8 -60 8 -189v-262h-150
z" />
    <glyph glyph-name="paragraph" unicode="&#xb6;" horiz-adv-x="1187" 
d="M522 592q-184 5 -295.5 110.5t-111.5 298.5q0 199 115.5 305.5t332.5 106.5h504v-117h-109v-1681h-124v1681h-187v-1681h-125v977z" />
    <glyph glyph-name="periodcentered" unicode="&#xb7;" horiz-adv-x="573" 
d="M287 477q-51 0 -84 31t-33 80q0 52 32.5 83t84.5 31t84 -31t32 -83q0 -49 -32.5 -80t-83.5 -31z" />
    <glyph glyph-name="cedilla" unicode="&#xb8;" horiz-adv-x="737" 
d="M168 -324l194 336h150l-176 -336h-168z" />
    <glyph glyph-name="uni00B9" unicode="&#xb9;" horiz-adv-x="606" 
d="M289 764v749h-185v105h306v-854h-121z" />
    <glyph glyph-name="ordmasculine" unicode="&#xba;" horiz-adv-x="886" 
d="M453 643q-179 0 -287.5 110.5t-108.5 286.5q0 172 109 283t287 111t286.5 -111t108.5 -287q0 -172 -108.5 -282.5t-286.5 -110.5zM453 745q122 0 197 83t75 210q0 123 -75.5 208t-196.5 85q-123 0 -198 -83t-75 -210q0 -123 75.5 -208t197.5 -85z" />
    <glyph glyph-name="guillemotright" unicode="&#xbb;" horiz-adv-x="1171" 
d="M219 -25l-104 78l323 424l-323 424l104 78l385 -502zM672 -25l-105 78l324 424l-324 424l105 78l385 -502z" />
    <glyph glyph-name="onequarter" unicode="&#xbc;" horiz-adv-x="1658" 
d="M289 559v750h-185v104h306v-854h-121zM408 -47l-89 53l871 1440l88 -53zM1348 0v188h-480v82l478 590h124v-567h136v-105h-136v-188h-122zM1012 291h338v420z" />
    <glyph glyph-name="onehalf" unicode="&#xbd;" horiz-adv-x="1789" 
d="M289 559v750h-185v104h306v-854h-121zM408 -47l-89 53l871 1440l88 -53zM1077 0l-16 78l348 287q147 121 147 239q0 74 -50 119t-134 45q-77 0 -140.5 -41t-103.5 -109l-75 74q49 77 136.5 129.5t199.5 52.5q133 0 211.5 -73.5t78.5 -188.5q0 -167 -182 -311l-246 -197
h459v-104h-633z" />
    <glyph glyph-name="threequarters" unicode="&#xbe;" horiz-adv-x="1783" 
d="M377 539q-110 0 -191 42t-129 109l76 78q101 -123 238 -123q91 0 146.5 38.5t55.5 113.5t-58.5 117t-145.5 42h-82v99h82q80 0 128 37.5t48 101.5q0 66 -47.5 99.5t-126.5 33.5q-117 0 -226 -102l-65 80q118 129 301 129q128 0 207.5 -63.5t79.5 -170.5q0 -68 -39 -115.5
t-97 -70.5v-4q66 -22 115 -76t49 -137q0 -114 -88.5 -186t-230.5 -72zM532 -47l-88 53l871 1440l88 -53zM1473 0v188h-480v82l477 590h125v-567h136v-105h-136v-188h-122zM1137 291h338v420z" />
    <glyph glyph-name="questiondown" unicode="&#xbf;" horiz-adv-x="913" 
d="M477 -477q-171 0 -273 97t-102 239q0 174 174 327q97 84 128.5 136t33.5 120l4 160h129l4 -143q0 -107 -33.5 -178t-99.5 -127q-101 -87 -144.5 -149t-43.5 -140q0 -97 66 -154t169 -57q162 0 279 160l84 -97q-55 -89 -157.5 -141.5t-217.5 -52.5zM506 754
q-52 0 -84.5 31t-32.5 83q0 49 33 80t84 31t84 -31t33 -80q0 -52 -32.5 -83t-84.5 -31z" />
    <glyph glyph-name="Agrave" unicode="&#xc0;" horiz-adv-x="1310" 
d="M10 0l588 1417h115l587 -1417h-163l-158 395h-647l-158 -395h-164zM383 528h545l-273 680zM662 1532l-252 297h165l211 -297h-124z" />
    <glyph glyph-name="Aacute" unicode="&#xc1;" horiz-adv-x="1310" 
d="M10 0l588 1417h115l587 -1417h-163l-158 395h-647l-158 -395h-164zM383 528h545l-273 680zM524 1532l211 297h166l-252 -297h-125z" />
    <glyph glyph-name="Acircumflex" unicode="&#xc2;" horiz-adv-x="1310" 
d="M10 0l588 1417h115l587 -1417h-163l-158 395h-647l-158 -395h-164zM383 528h545l-273 680zM379 1532l213 297h127l213 -297h-121l-156 221l-155 -221h-121z" />
    <glyph glyph-name="Atilde" unicode="&#xc3;" horiz-adv-x="1310" 
d="M10 0l588 1417h115l587 -1417h-163l-158 395h-647l-158 -395h-164zM383 528h545l-273 680zM788 1579q-45 0 -94.5 24t-94 48t-77.5 24q-39 0 -63 -26t-29 -62l-88 17q6 75 57 123.5t123 48.5q45 0 94 -24t93.5 -47.5t78.5 -23.5q39 0 63.5 26.5t27.5 61.5l90 -18
q-6 -75 -57.5 -123.5t-123.5 -48.5z" />
    <glyph glyph-name="Adieresis" unicode="&#xc4;" horiz-adv-x="1310" 
d="M10 0l588 1417h115l587 -1417h-163l-158 395h-647l-158 -395h-164zM383 528h545l-273 680zM823 1571q-40 0 -69 28t-29 72q0 45 29 73t69 28t69.5 -28t29.5 -73q0 -44 -29.5 -72t-69.5 -28zM485 1571q-38 0 -67 28t-29 72q0 45 28.5 73t67.5 28q43 0 72 -27.5t29 -73.5
q0 -45 -29.5 -72.5t-71.5 -27.5z" />
    <glyph glyph-name="Aring" unicode="&#xc5;" horiz-adv-x="1310" 
d="M10 0l588 1417h115l587 -1417h-163l-158 395h-647l-158 -395h-164zM383 528h545l-273 680zM655 1511q-85 0 -144.5 53.5t-59.5 129.5q0 77 59.5 129.5t144.5 52.5t145 -52.5t60 -129.5q0 -76 -60 -129.5t-145 -53.5zM655 1585q49 0 81 31.5t32 77.5t-32 77t-81 31
t-80.5 -31t-31.5 -77t31.5 -77.5t80.5 -31.5z" />
    <glyph glyph-name="AE" unicode="&#xc6;" horiz-adv-x="1761" 
d="M-49 0l876 1413h824v-135h-586v-459h551v-135h-551v-549h602v-135h-756v399h-542l-246 -399h-172zM449 535h462v749h-6z" />
    <glyph glyph-name="Ccedilla" unicode="&#xc7;" horiz-adv-x="1392" 
d="M535 -324l176 304q-281 31 -455 228t-174 494q0 161 55 298.5t151.5 232t229.5 148t285 53.5q168 0 295.5 -58t208.5 -139l-80 -117q-51 69 -169.5 123.5t-260.5 54.5q-159 0 -285.5 -72t-199 -206.5t-72.5 -310.5q0 -264 156.5 -431t404.5 -167q262 0 438 190l80 -111
q-76 -85 -191 -144t-268 -69l-158 -301h-167z" />
    <glyph glyph-name="Egrave" unicode="&#xc8;" horiz-adv-x="1069" 
d="M166 0v1413h795v-135h-642v-465h605v-133h-605v-545h656v-135h-809zM580 1532l-252 297h166l211 -297h-125z" />
    <glyph glyph-name="Eacute" unicode="&#xc9;" horiz-adv-x="1069" 
d="M166 0v1413h795v-135h-642v-465h605v-133h-605v-545h656v-135h-809zM442 1532l211 297h166l-252 -297h-125z" />
    <glyph glyph-name="Ecircumflex" unicode="&#xca;" horiz-adv-x="1069" 
d="M166 0v1413h795v-135h-642v-465h605v-133h-605v-545h656v-135h-809zM297 1532l213 297h127l213 -297h-121l-156 221l-155 -221h-121z" />
    <glyph glyph-name="Edieresis" unicode="&#xcb;" horiz-adv-x="1069" 
d="M166 0v1413h795v-135h-642v-465h605v-133h-605v-545h656v-135h-809zM741 1571q-40 0 -69 28t-29 72q0 45 29 73t69 28t69.5 -28t29.5 -73q0 -44 -29.5 -72t-69.5 -28zM403 1571q-38 0 -67 28t-29 72q0 45 28.5 73t67.5 28q43 0 72 -27.5t29 -73.5q0 -45 -29.5 -72.5
t-71.5 -27.5z" />
    <glyph glyph-name="Igrave" unicode="&#xcc;" horiz-adv-x="485" 
d="M166 0v1413h153v-1413h-153zM197 1532l-252 297h166l211 -297h-125z" />
    <glyph glyph-name="Iacute" unicode="&#xcd;" horiz-adv-x="485" 
d="M166 0v1413h153v-1413h-153zM164 1532l211 297h166l-252 -297h-125z" />
    <glyph glyph-name="Icircumflex" unicode="&#xce;" horiz-adv-x="485" 
d="M166 0v1413h153v-1413h-153zM-33 1532l213 297h127l213 -297h-121l-155 221l-156 -221h-121z" />
    <glyph glyph-name="Idieresis" unicode="&#xcf;" horiz-adv-x="485" 
d="M166 0v1413h153v-1413h-153zM412 1571q-40 0 -69.5 28t-29.5 72q0 45 29.5 73t69.5 28t69 -28t29 -73q0 -44 -29 -72t-69 -28zM74 1571q-39 0 -68 28t-29 72q0 45 29 73t68 28q43 0 71.5 -27.5t28.5 -73.5q0 -45 -29 -72.5t-71 -27.5z" />
    <glyph glyph-name="Eth" unicode="&#xd0;" horiz-adv-x="1392" 
d="M27 676v131h139v606h403q216 0 385 -88t263 -249.5t94 -370.5q0 -200 -94 -360.5t-264 -252.5t-384 -92h-403v676h-139zM565 135q137 0 250 46t186 125t112.5 182t39.5 219q0 264 -160.5 417.5t-427.5 153.5h-246v-471h386v-131h-386v-541h246z" />
    <glyph glyph-name="Ntilde" unicode="&#xd1;" horiz-adv-x="1507" 
d="M166 0v1413h158l864 -1165v334v831h153v-1413h-147l-877 1182l2 -498v-684h-153zM907 1579q-45 0 -94.5 24t-94 48t-77.5 24q-39 0 -63 -26t-29 -62l-88 17q6 75 57 123.5t123 48.5q45 0 94 -24t93.5 -47.5t78.5 -23.5q39 0 63 26.5t27 61.5l90 -18q-6 -75 -57 -123.5
t-123 -48.5z" />
    <glyph glyph-name="Ograve" unicode="&#xd2;" horiz-adv-x="1609" 
d="M805 -23q-146 0 -277 51t-230.5 143.5t-157.5 231.5t-58 304t58.5 303.5t157.5 231t230 143.5t277 51q145 0 276 -51t230.5 -143.5t158 -231t58.5 -303.5q0 -166 -58 -304.5t-157 -231t-230 -143.5t-278 -51zM805 113q115 0 217.5 41.5t180 117t122.5 188.5t45 249
t-45 248.5t-122.5 186.5t-180 115t-217.5 41t-217 -40.5t-179.5 -114.5t-123 -187t-45.5 -249q0 -180 78.5 -317.5t206 -208t280.5 -70.5zM811 1532l-252 297h166l211 -297h-125z" />
    <glyph glyph-name="Oacute" unicode="&#xd3;" horiz-adv-x="1609" 
d="M805 -23q-146 0 -277 51t-230.5 143.5t-157.5 231.5t-58 304t58.5 303.5t157.5 231t230 143.5t277 51q145 0 276 -51t230.5 -143.5t158 -231t58.5 -303.5q0 -166 -58 -304.5t-157 -231t-230 -143.5t-278 -51zM805 113q115 0 217.5 41.5t180 117t122.5 188.5t45 249
t-45 248.5t-122.5 186.5t-180 115t-217.5 41t-217 -40.5t-179.5 -114.5t-123 -187t-45.5 -249q0 -180 78.5 -317.5t206 -208t280.5 -70.5zM674 1532l211 297h166l-252 -297h-125z" />
    <glyph glyph-name="Ocircumflex" unicode="&#xd4;" horiz-adv-x="1609" 
d="M805 -23q-146 0 -277 51t-230.5 143.5t-157.5 231.5t-58 304t58.5 303.5t157.5 231t230 143.5t277 51q145 0 276 -51t230.5 -143.5t158 -231t58.5 -303.5q0 -166 -58 -304.5t-157 -231t-230 -143.5t-278 -51zM805 113q115 0 217.5 41.5t180 117t122.5 188.5t45 249
t-45 248.5t-122.5 186.5t-180 115t-217.5 41t-217 -40.5t-179.5 -114.5t-123 -187t-45.5 -249q0 -180 78.5 -317.5t206 -208t280.5 -70.5zM528 1532l213 297h127l213 -297h-120l-156 221l-156 -221h-121z" />
    <glyph glyph-name="Otilde" unicode="&#xd5;" horiz-adv-x="1609" 
d="M805 -23q-146 0 -277 51t-230.5 143.5t-157.5 231.5t-58 304t58.5 303.5t157.5 231t230 143.5t277 51q145 0 276 -51t230.5 -143.5t158 -231t58.5 -303.5q0 -166 -58 -304.5t-157 -231t-230 -143.5t-278 -51zM805 113q115 0 217.5 41.5t180 117t122.5 188.5t45 249
t-45 248.5t-122.5 186.5t-180 115t-217.5 41t-217 -40.5t-179.5 -114.5t-123 -187t-45.5 -249q0 -180 78.5 -317.5t206 -208t280.5 -70.5zM938 1579q-45 0 -94.5 24t-94 48t-77.5 24q-39 0 -63 -26t-29 -62l-88 17q6 75 57 123.5t123 48.5q45 0 94 -24t93.5 -47.5
t78.5 -23.5q39 0 63 26.5t27 61.5l90 -18q-6 -75 -57 -123.5t-123 -48.5z" />
    <glyph glyph-name="Odieresis" unicode="&#xd6;" horiz-adv-x="1609" 
d="M805 -23q-146 0 -277 51t-230.5 143.5t-157.5 231.5t-58 304t58.5 303.5t157.5 231t230 143.5t277 51q145 0 276 -51t230.5 -143.5t158 -231t58.5 -303.5q0 -166 -58 -304.5t-157 -231t-230 -143.5t-278 -51zM805 113q115 0 217.5 41.5t180 117t122.5 188.5t45 249
t-45 248.5t-122.5 186.5t-180 115t-217.5 41t-217 -40.5t-179.5 -114.5t-123 -187t-45.5 -249q0 -180 78.5 -317.5t206 -208t280.5 -70.5zM973 1571q-40 0 -69.5 28t-29.5 72q0 45 29.5 73t69.5 28t69 -28t29 -73q0 -44 -29 -72t-69 -28zM635 1571q-38 0 -67 28t-29 72
q0 45 28.5 73t67.5 28q43 0 71.5 -27.5t28.5 -73.5q0 -45 -29 -72.5t-71 -27.5z" />
    <glyph glyph-name="multiply" unicode="&#xd7;" horiz-adv-x="1171" 
d="M207 242l-90 90l379 370l-379 373l90 88l379 -370l379 370l90 -88l-377 -373l377 -370l-90 -90l-379 372z" />
    <glyph glyph-name="Oslash" unicode="&#xd8;" horiz-adv-x="1609" 
d="M805 -23q-269 0 -467 160l-162 -164l-94 95l160 163q-160 194 -160 476q0 165 58.5 303.5t157.5 231t230 143.5t277 51q269 0 467 -160l162 164l94 -94l-162 -164q162 -196 162 -475q0 -166 -58 -304.5t-157 -231t-230 -143.5t-278 -51zM805 115q115 0 217.5 41t180 116
t122.5 188t45 249q0 217 -108 366l-822 -831q154 -129 365 -129zM240 709q0 -218 110 -369l819 831q-152 127 -364 127q-115 0 -217 -40t-179.5 -114t-123 -186.5t-45.5 -248.5z" />
    <glyph glyph-name="Ugrave" unicode="&#xd9;" horiz-adv-x="1347" 
d="M674 -23q-267 0 -393.5 144t-126.5 407v885h153v-889q0 -201 96.5 -306t270.5 -105t270 105t96 306v889h154v-885q0 -263 -126.5 -407t-393.5 -144zM680 1532l-252 297h166l211 -297h-125z" />
    <glyph glyph-name="Uacute" unicode="&#xda;" horiz-adv-x="1347" 
d="M674 -23q-267 0 -393.5 144t-126.5 407v885h153v-889q0 -201 96.5 -306t270.5 -105t270 105t96 306v889h154v-885q0 -263 -126.5 -407t-393.5 -144zM543 1532l211 297h166l-252 -297h-125z" />
    <glyph glyph-name="Ucircumflex" unicode="&#xdb;" horiz-adv-x="1347" 
d="M674 -23q-267 0 -393.5 144t-126.5 407v885h153v-889q0 -201 96.5 -306t270.5 -105t270 105t96 306v889h154v-885q0 -263 -126.5 -407t-393.5 -144zM397 1532l213 297h127l213 -297h-121l-155 221l-156 -221h-121z" />
    <glyph glyph-name="Udieresis" unicode="&#xdc;" horiz-adv-x="1347" 
d="M674 -23q-267 0 -393.5 144t-126.5 407v885h153v-889q0 -201 96.5 -306t270.5 -105t270 105t96 306v889h154v-885q0 -263 -126.5 -407t-393.5 -144zM842 1571q-40 0 -69.5 28t-29.5 72q0 45 29.5 73t69.5 28t69 -28t29 -73q0 -44 -29 -72t-69 -28zM504 1571q-38 0 -67 28
t-29 72q0 45 28.5 73t67.5 28q43 0 71.5 -27.5t28.5 -73.5q0 -45 -29 -72.5t-71 -27.5z" />
    <glyph glyph-name="Yacute" unicode="&#xdd;" 
d="M500 0v598l-492 815h174l393 -678l396 678h176l-494 -815v-598h-153zM446 1532l211 297h166l-252 -297h-125z" />
    <glyph glyph-name="Thorn" unicode="&#xde;" horiz-adv-x="1056" 
d="M166 0v1413h153v-280h213q131 0 233.5 -43t164 -132.5t61.5 -214.5q0 -130 -65.5 -220t-172.5 -131.5t-247 -41.5h-187v-350h-153zM518 483q146 0 231 63.5t85 194.5q0 129 -87 193.5t-221 64.5h-207v-516h199z" />
    <glyph glyph-name="germandbls" unicode="&#xdf;" horiz-adv-x="1097" 
d="M541 -12q-66 0 -121 14l12 129q54 -12 96 -12q46 0 91 9.5t90.5 32.5t79.5 57.5t55.5 89.5t21.5 124q0 152 -99 235t-261 83h-62v124h60q108 0 166.5 60t58.5 162q0 106 -59 156.5t-150 50.5q-225 0 -225 -308v-995h-152v969q0 217 94.5 341t290.5 124q172 0 264.5 -92
t92.5 -230q0 -67 -22.5 -122t-57 -88t-71.5 -50.5t-70 -17.5v-5q67 -2 129.5 -29.5t114.5 -76t83 -126t31 -171.5q0 -198 -132 -318t-349 -120z" />
    <glyph glyph-name="agrave" unicode="&#xe0;" horiz-adv-x="993" 
d="M391 -20q-140 0 -235 81.5t-95 210.5q0 128 96.5 207t286.5 88l263 13v34q0 116 -70.5 175t-185.5 59q-79 0 -156 -28t-127 -64l-53 129q160 94 342 94q205 0 303 -103t98 -313v-563h-149v121q-40 -52 -124 -96.5t-194 -44.5zM420 106q89 0 167.5 46.5t119.5 101.5v207
l-250 -12q-242 -11 -242 -175q0 -73 57 -120.5t148 -47.5zM475 1116l-229 297h160l188 -297h-119z" />
    <glyph glyph-name="aacute" unicode="&#xe1;" horiz-adv-x="993" 
d="M391 -20q-140 0 -235 81.5t-95 210.5q0 128 96.5 207t286.5 88l263 13v34q0 116 -70.5 175t-185.5 59q-79 0 -156 -28t-127 -64l-53 129q160 94 342 94q205 0 303 -103t98 -313v-563h-149v121q-40 -52 -124 -96.5t-194 -44.5zM420 106q89 0 167.5 46.5t119.5 101.5v207
l-250 -12q-242 -11 -242 -175q0 -73 57 -120.5t148 -47.5zM332 1116l188 297h160l-229 -297h-119z" />
    <glyph glyph-name="acircumflex" unicode="&#xe2;" horiz-adv-x="993" 
d="M391 -20q-140 0 -235 81.5t-95 210.5q0 128 96.5 207t286.5 88l263 13v34q0 116 -70.5 175t-185.5 59q-79 0 -156 -28t-127 -64l-53 129q160 94 342 94q205 0 303 -103t98 -313v-563h-149v121q-40 -52 -124 -96.5t-194 -44.5zM420 106q89 0 167.5 46.5t119.5 101.5v207
l-250 -12q-242 -11 -242 -175q0 -73 57 -120.5t148 -47.5zM201 1116l202 297h119l203 -297h-119l-143 215l-144 -215h-118z" />
    <glyph glyph-name="atilde" unicode="&#xe3;" horiz-adv-x="993" 
d="M391 -20q-140 0 -235 81.5t-95 210.5q0 128 96.5 207t286.5 88l263 13v34q0 116 -70.5 175t-185.5 59q-79 0 -156 -28t-127 -64l-53 129q160 94 342 94q205 0 303 -103t98 -313v-563h-149v121q-40 -52 -124 -96.5t-194 -44.5zM420 106q89 0 167.5 46.5t119.5 101.5v207
l-250 -12q-242 -11 -242 -175q0 -73 57 -120.5t148 -47.5zM592 1171q-43 0 -92 23.5t-93.5 47.5t-76.5 24q-37 0 -60 -24.5t-28 -59.5l-86 24q6 75 56.5 124.5t121.5 49.5q43 0 91.5 -23.5t93 -47t77.5 -23.5q38 0 60.5 24.5t25.5 59.5l88 -24q-6 -75 -57 -125t-121 -50z
" />
    <glyph glyph-name="adieresis" unicode="&#xe4;" horiz-adv-x="993" 
d="M391 -20q-140 0 -235 81.5t-95 210.5q0 128 96.5 207t286.5 88l263 13v34q0 116 -70.5 175t-185.5 59q-79 0 -156 -28t-127 -64l-53 129q160 94 342 94q205 0 303 -103t98 -313v-563h-149v121q-40 -52 -124 -96.5t-194 -44.5zM420 106q89 0 167.5 46.5t119.5 101.5v207
l-250 -12q-242 -11 -242 -175q0 -73 57 -120.5t148 -47.5zM625 1163q-39 0 -68 29t-29 72q0 45 28.5 72.5t68.5 27.5t68 -27t28 -73q0 -43 -28.5 -72t-67.5 -29zM301 1163q-39 0 -67.5 29t-28.5 72q0 46 28 73t68 27t68 -27t28 -73q0 -43 -28.5 -72t-67.5 -29z" />
    <glyph glyph-name="aring" unicode="&#xe5;" horiz-adv-x="993" 
d="M391 -20q-140 0 -235 81.5t-95 210.5q0 128 96.5 207t286.5 88l263 13v34q0 116 -70.5 175t-185.5 59q-79 0 -156 -28t-127 -64l-53 129q160 94 342 94q205 0 303 -103t98 -313v-563h-149v121q-40 -52 -124 -96.5t-194 -44.5zM420 106q89 0 167.5 46.5t119.5 101.5v207
l-250 -12q-242 -11 -242 -175q0 -73 57 -120.5t148 -47.5zM463 1114q-84 0 -142.5 54t-58.5 135t58.5 134.5t142.5 53.5t142.5 -53.5t58.5 -134.5t-58.5 -135t-142.5 -54zM463 1192q46 0 76 32t30 79t-29.5 78.5t-76.5 31.5t-77 -32t-30 -78q0 -47 30 -79t77 -32z" />
    <glyph glyph-name="ae" unicode="&#xe6;" horiz-adv-x="1695" 
d="M391 -20q-140 0 -235 81.5t-95 210.5q0 128 96.5 207t286.5 88l263 13v38q0 116 -70.5 174t-185.5 58q-93 0 -171 -27t-114 -51l-51 113q160 94 342 94q263 0 348 -174q63 82 157.5 128t211.5 46q197 0 321.5 -128t124.5 -327q0 -40 -6 -88h-760q5 -145 98 -236t246 -91
q179 0 324 124l67 -96q-67 -74 -175 -115.5t-240 -41.5q-126 0 -225 49.5t-161 142.5q-80 -95 -173.5 -143.5t-223.5 -48.5zM420 106q94 0 169.5 42t145.5 131q-30 93 -33 182l-245 -12q-242 -11 -242 -175q0 -73 57 -120.5t148 -47.5zM1468 559q0 53 -18 103t-53 93
t-94.5 69t-135.5 26q-131 0 -216.5 -86t-94.5 -205h612z" />
    <glyph glyph-name="ccedilla" unicode="&#xe7;" horiz-adv-x="1003" 
d="M322 -324l178 310q-185 25 -304.5 158t-119.5 333q0 148 69.5 264t183 177t249.5 61q109 0 201 -38t149 -95l-68 -115q-127 117 -285 117q-150 0 -247 -101.5t-97 -265.5t97.5 -267t251.5 -103q91 0 166 36.5t126 100.5l70 -115q-108 -123 -291 -149l-162 -308h-167z" />
    <glyph glyph-name="egrave" unicode="&#xe8;" horiz-adv-x="1073" 
d="M563 -20q-97 0 -178.5 27t-137.5 73t-95 109t-57.5 135t-18.5 151q0 141 57.5 255.5t166.5 181.5t249 67q198 0 323 -126.5t125 -320.5q0 -48 -6 -96h-760q5 -143 98.5 -234t245.5 -91q178 0 324 125l68 -99q-64 -73 -171 -115t-233 -42zM846 559q0 52 -18 102t-53 92.5
t-93 68.5t-131 26q-138 0 -223 -84.5t-95 -204.5h613zM549 1116l-230 297h160l189 -297h-119z" />
    <glyph glyph-name="eacute" unicode="&#xe9;" horiz-adv-x="1073" 
d="M563 -20q-97 0 -178.5 27t-137.5 73t-95 109t-57.5 135t-18.5 151q0 141 57.5 255.5t166.5 181.5t249 67q198 0 323 -126.5t125 -320.5q0 -48 -6 -96h-760q5 -143 98.5 -234t245.5 -91q178 0 324 125l68 -99q-64 -73 -171 -115t-233 -42zM846 559q0 52 -18 102t-53 92.5
t-93 68.5t-131 26q-138 0 -223 -84.5t-95 -204.5h613zM406 1116l188 297h160l-230 -297h-118z" />
    <glyph glyph-name="ecircumflex" unicode="&#xea;" horiz-adv-x="1073" 
d="M563 -20q-97 0 -178.5 27t-137.5 73t-95 109t-57.5 135t-18.5 151q0 141 57.5 255.5t166.5 181.5t249 67q198 0 323 -126.5t125 -320.5q0 -48 -6 -96h-760q5 -143 98.5 -234t245.5 -91q178 0 324 125l68 -99q-64 -73 -171 -115t-233 -42zM846 559q0 52 -18 102t-53 92.5
t-93 68.5t-131 26q-138 0 -223 -84.5t-95 -204.5h613zM274 1116l203 297h119l203 -297h-119l-143 215l-144 -215h-119z" />
    <glyph glyph-name="edieresis" unicode="&#xeb;" horiz-adv-x="1073" 
d="M563 -20q-97 0 -178.5 27t-137.5 73t-95 109t-57.5 135t-18.5 151q0 141 57.5 255.5t166.5 181.5t249 67q198 0 323 -126.5t125 -320.5q0 -48 -6 -96h-760q5 -143 98.5 -234t245.5 -91q178 0 324 125l68 -99q-64 -73 -171 -115t-233 -42zM846 559q0 52 -18 102t-53 92.5
t-93 68.5t-131 26q-138 0 -223 -84.5t-95 -204.5h613zM698 1163q-39 0 -67.5 29t-28.5 72q0 46 28 73t68 27t68.5 -27.5t28.5 -72.5q0 -43 -29 -72t-68 -29zM375 1163q-39 0 -67.5 29t-28.5 72q0 46 28 73t68 27t68 -27t28 -73q0 -43 -28.5 -72t-67.5 -29z" />
    <glyph glyph-name="igrave" unicode="&#xec;" horiz-adv-x="458" 
d="M154 0v958h151v-958h-151zM172 1116l-229 297h159l189 -297h-119z" />
    <glyph glyph-name="iacute" unicode="&#xed;" horiz-adv-x="458" 
d="M154 0v958h151v-958h-151zM164 1116l188 297h160l-229 -297h-119z" />
    <glyph glyph-name="icircumflex" unicode="&#xee;" horiz-adv-x="458" 
d="M-6 1116l176 297h119l176 -297h-113l-123 217l-123 -217h-112zM154 0v958h151v-958h-151z" />
    <glyph glyph-name="idieresis" unicode="&#xef;" horiz-adv-x="458" 
d="M154 0v958h151v-958h-151zM377 1163q-38 0 -66 29t-28 72q0 45 27.5 72.5t66.5 27.5t66.5 -27.5t27.5 -72.5q0 -43 -28 -72t-66 -29zM82 1163q-38 0 -66 29t-28 72q0 45 27.5 72.5t66.5 27.5t66.5 -27.5t27.5 -72.5q0 -43 -28 -72t-66 -29z" />
    <glyph glyph-name="eth" unicode="&#xf0;" horiz-adv-x="1159" 
d="M567 -20q-220 0 -355.5 138t-135.5 359q0 203 136 342t343 139q99 0 178.5 -32.5t124.5 -77.5q-50 94 -146 208t-167 163l-232 -146l-53 80l209 131q-108 87 -209 158l107 71q106 -63 221 -155l252 160l51 -82l-227 -144q207 -184 309 -373.5t102 -429.5
q0 -219 -140 -364t-368 -145zM580 111q151 0 245.5 101.5t94.5 256.5q0 143 -95 250.5t-250 107.5q-151 0 -247.5 -101.5t-96.5 -256.5q0 -154 98.5 -256t250.5 -102z" />
    <glyph glyph-name="ntilde" unicode="&#xf1;" horiz-adv-x="1075" 
d="M143 0v958h150v-155q43 86 128 131t195 45q92 0 157 -30t100.5 -86.5t51 -124.5t15.5 -156v-582h-152v571q0 277 -215 277q-61 0 -110.5 -22.5t-80 -57.5t-51 -81.5t-28.5 -90.5t-8 -88v-508h-152zM696 1171q-43 0 -92 23.5t-93.5 47.5t-76.5 24q-37 0 -60 -24.5
t-28 -59.5l-86 24q6 75 56.5 124.5t121.5 49.5q43 0 91.5 -23.5t93 -47t77.5 -23.5q38 0 60.5 24.5t25.5 59.5l88 -24q-6 -75 -57 -125t-121 -50z" />
    <glyph glyph-name="ograve" unicode="&#xf2;" 
d="M575 -20q-213 0 -356 139t-143 358q0 144 66 259t180 179t253 64q214 0 359 -142t145 -360t-144.5 -357.5t-359.5 -139.5zM575 111q158 0 253.5 105t95.5 263q0 159 -95.5 264t-253.5 105q-156 0 -250 -105t-94 -264q0 -158 94 -263t250 -105zM590 1116l-230 297h160
l189 -297h-119z" />
    <glyph glyph-name="oacute" unicode="&#xf3;" 
d="M575 -20q-213 0 -356 139t-143 358q0 144 66 259t180 179t253 64q214 0 359 -142t145 -360t-144.5 -357.5t-359.5 -139.5zM575 111q158 0 253.5 105t95.5 263q0 159 -95.5 264t-253.5 105q-156 0 -250 -105t-94 -264q0 -158 94 -263t250 -105zM446 1116l189 297h160
l-230 -297h-119z" />
    <glyph glyph-name="ocircumflex" unicode="&#xf4;" 
d="M575 -20q-213 0 -356 139t-143 358q0 144 66 259t180 179t253 64q214 0 359 -142t145 -360t-144.5 -357.5t-359.5 -139.5zM575 111q158 0 253.5 105t95.5 263q0 159 -95.5 264t-253.5 105q-156 0 -250 -105t-94 -264q0 -158 94 -263t250 -105zM315 1116l203 297h119
l203 -297h-119l-143 215l-144 -215h-119z" />
    <glyph glyph-name="otilde" unicode="&#xf5;" 
d="M575 -20q-213 0 -356 139t-143 358q0 144 66 259t180 179t253 64q214 0 359 -142t145 -360t-144.5 -357.5t-359.5 -139.5zM575 111q158 0 253.5 105t95.5 263q0 159 -95.5 264t-253.5 105q-156 0 -250 -105t-94 -264q0 -158 94 -263t250 -105zM707 1171q-43 0 -92.5 23.5
t-94 47.5t-76.5 24q-37 0 -60 -24.5t-28 -59.5l-86 24q6 75 57 124.5t122 49.5q43 0 91.5 -23.5t93 -47t77.5 -23.5q38 0 60.5 24.5t25.5 59.5l88 -24q-6 -75 -57 -125t-121 -50z" />
    <glyph glyph-name="odieresis" unicode="&#xf6;" 
d="M575 -20q-213 0 -356 139t-143 358q0 144 66 259t180 179t253 64q214 0 359 -142t145 -360t-144.5 -357.5t-359.5 -139.5zM575 111q158 0 253.5 105t95.5 263q0 159 -95.5 264t-253.5 105q-156 0 -250 -105t-94 -264q0 -158 94 -263t250 -105zM739 1163q-39 0 -67.5 29
t-28.5 72q0 46 28 73t68 27t68.5 -27.5t28.5 -72.5q0 -43 -29 -72t-68 -29zM416 1163q-39 0 -68 29t-29 72q0 45 28.5 72.5t68.5 27.5t68 -27t28 -73q0 -43 -28.5 -72t-67.5 -29z" />
    <glyph glyph-name="divide" unicode="&#xf7;" horiz-adv-x="1171" 
d="M115 641v127h942v-127h-942zM586 268q-44 0 -76.5 32.5t-32.5 78.5q0 44 32.5 76t76.5 32q47 0 78.5 -31.5t31.5 -76.5q0 -46 -31.5 -78.5t-78.5 -32.5zM586 922q-45 0 -77 31.5t-32 78.5q0 44 32.5 76.5t76.5 32.5q47 0 78.5 -32t31.5 -77q0 -47 -31.5 -78.5
t-78.5 -31.5z" />
    <glyph glyph-name="oslash" unicode="&#xf8;" 
d="M575 -20q-180 0 -313 100l-121 -121l-92 88l125 125q-98 132 -98 305q0 144 66 259t180 179t253 64q179 0 312 -100l121 120l92 -88l-123 -123q102 -133 102 -311q0 -218 -144.5 -357.5t-359.5 -139.5zM575 111q158 0 253.5 105t95.5 263q0 115 -52 205l-510 -504
q87 -69 213 -69zM231 479q0 -111 50 -200l507 501q-90 68 -213 68q-156 0 -250 -105t-94 -264z" />
    <glyph glyph-name="ugrave" unicode="&#xf9;" horiz-adv-x="1075" 
d="M459 -20q-92 0 -157 30t-100.5 86.5t-51 124.5t-15.5 156v581h152v-571q0 -276 215 -276q61 0 110.5 22.5t80 57.5t51 81.5t28.5 90.5t8 88v507h152v-958h-150v156q-43 -86 -128 -131t-195 -45zM549 1116l-230 297h160l189 -297h-119z" />
    <glyph glyph-name="uacute" unicode="&#xfa;" horiz-adv-x="1075" 
d="M459 -20q-92 0 -157 30t-100.5 86.5t-51 124.5t-15.5 156v581h152v-571q0 -276 215 -276q61 0 110.5 22.5t80 57.5t51 81.5t28.5 90.5t8 88v507h152v-958h-150v156q-43 -86 -128 -131t-195 -45zM406 1116l188 297h160l-230 -297h-118z" />
    <glyph glyph-name="ucircumflex" unicode="&#xfb;" horiz-adv-x="1075" 
d="M459 -20q-92 0 -157 30t-100.5 86.5t-51 124.5t-15.5 156v581h152v-571q0 -276 215 -276q61 0 110.5 22.5t80 57.5t51 81.5t28.5 90.5t8 88v507h152v-958h-150v156q-43 -86 -128 -131t-195 -45zM274 1116l203 297h119l203 -297h-119l-143 215l-144 -215h-119z" />
    <glyph glyph-name="udieresis" unicode="&#xfc;" horiz-adv-x="1075" 
d="M459 -20q-92 0 -157 30t-100.5 86.5t-51 124.5t-15.5 156v581h152v-571q0 -276 215 -276q61 0 110.5 22.5t80 57.5t51 81.5t28.5 90.5t8 88v507h152v-958h-150v156q-43 -86 -128 -131t-195 -45zM698 1163q-39 0 -67.5 29t-28.5 72q0 46 28 73t68 27t68.5 -27.5
t28.5 -72.5q0 -43 -29 -72t-68 -29zM375 1163q-39 0 -67.5 29t-28.5 72q0 46 28 73t68 27t68 -27t28 -73q0 -43 -28.5 -72t-67.5 -29z" />
    <glyph glyph-name="yacute" unicode="&#xfd;" horiz-adv-x="946" 
d="M209 -399q-65 0 -131 32l31 125q50 -26 98 -26q46 0 73 26.5t66 114.5l55 127l-393 958h162l309 -784l297 784h162l-469 -1134q-53 -125 -115 -174t-145 -49zM342 1116l188 297h160l-229 -297h-119z" />
    <glyph glyph-name="thorn" unicode="&#xfe;" horiz-adv-x="1198" 
d="M154 -385v1798h151v-512q0 -99 -2 -113q55 87 148.5 139t216.5 52q204 0 329 -138t125 -352q0 -220 -130.5 -364.5t-332.5 -144.5q-111 0 -207 47t-149 139q2 -14 2 -113v-438h-151zM631 111q154 0 245 104t91 264q0 159 -89.5 264t-238.5 105q-151 0 -245.5 -107
t-94.5 -268q0 -155 88.5 -258.5t243.5 -103.5z" />
    <glyph glyph-name="ydieresis" unicode="&#xff;" horiz-adv-x="946" 
d="M209 -399q-65 0 -131 32l31 125q50 -26 98 -26q46 0 73 26.5t66 114.5l55 127l-393 958h162l309 -784l297 784h162l-469 -1134q-53 -125 -115 -174t-145 -49zM635 1163q-39 0 -67.5 29t-28.5 72q0 46 28 73t68 27t68 -27t28 -73q0 -43 -28.5 -72t-67.5 -29zM311 1163
q-39 0 -67.5 29t-28.5 72q0 46 28 73t68 27t68.5 -27.5t28.5 -72.5q0 -43 -29 -72t-68 -29z" />
    <glyph glyph-name="Amacron" unicode="&#x100;" horiz-adv-x="1310" 
d="M10 0l588 1417h115l587 -1417h-163l-158 395h-647l-158 -395h-164zM383 528h545l-273 680zM395 1589v99h520v-99h-520z" />
    <glyph glyph-name="amacron" unicode="&#x101;" horiz-adv-x="993" 
d="M391 -20q-140 0 -235 81.5t-95 210.5q0 128 96.5 207t286.5 88l263 13v34q0 116 -70.5 175t-185.5 59q-79 0 -156 -28t-127 -64l-53 129q160 94 342 94q205 0 303 -103t98 -313v-563h-149v121q-40 -52 -124 -96.5t-194 -44.5zM420 106q89 0 167.5 46.5t119.5 101.5v207
l-250 -12q-242 -11 -242 -175q0 -73 57 -120.5t148 -47.5zM221 1194v96h484v-96h-484z" />
    <glyph glyph-name="Abreve" unicode="&#x102;" horiz-adv-x="1310" 
d="M10 0l588 1417h115l587 -1417h-163l-158 395h-647l-158 -395h-164zM383 528h545l-273 680zM655 1546q-124 0 -198 69.5t-82 190.5h94q14 -79 61 -122.5t125 -43.5t125.5 43.5t61.5 122.5h94q-8 -121 -82.5 -190.5t-198.5 -69.5z" />
    <glyph glyph-name="abreve" unicode="&#x103;" horiz-adv-x="993" 
d="M391 -20q-140 0 -235 81.5t-95 210.5q0 128 96.5 207t286.5 88l263 13v34q0 116 -70.5 175t-185.5 59q-79 0 -156 -28t-127 -64l-53 129q160 94 342 94q205 0 303 -103t98 -313v-563h-149v121q-40 -52 -124 -96.5t-194 -44.5zM420 106q89 0 167.5 46.5t119.5 101.5v207
l-250 -12q-242 -11 -242 -175q0 -73 57 -120.5t148 -47.5zM463 1124q-124 0 -196 71t-81 200h90q14 -80 61.5 -123t125.5 -43q158 0 186 166h90q-9 -130 -80 -200.5t-196 -70.5z" />
    <glyph glyph-name="Aogonek" unicode="&#x104;" horiz-adv-x="1310" 
d="M10 0l588 1417h115l587 -1417h-36q-86 -38 -133.5 -97t-47.5 -116q0 -53 34 -78.5t87 -25.5q77 0 144 45l30 -58q-86 -80 -211 -80q-96 0 -149 44.5t-53 125.5q0 73 46.5 135t125.5 105l-158 395h-647l-158 -395h-164zM383 528h545l-273 680z" />
    <glyph glyph-name="aogonek" unicode="&#x105;" horiz-adv-x="993" 
d="M391 -20q-140 0 -235 81.5t-95 210.5q0 128 96.5 207t286.5 88l263 13v34q0 116 -70.5 175t-185.5 59q-79 0 -156 -28t-127 -64l-53 129q160 94 342 94q205 0 303 -103t98 -313v-563h-22q-86 -38 -133.5 -97t-47.5 -116q0 -53 34 -78.5t87 -25.5q77 0 144 45l30 -58
q-86 -80 -211 -80q-96 0 -149 44.5t-53 125.5q0 73 46.5 135t125.5 105v121q-40 -52 -124 -96.5t-194 -44.5zM420 106q89 0 167.5 46.5t119.5 101.5v207l-250 -12q-242 -11 -242 -175q0 -73 57 -120.5t148 -47.5z" />
    <glyph glyph-name="Cacute" unicode="&#x106;" horiz-adv-x="1392" 
d="M803 -25q-155 0 -288.5 53.5t-229 148t-149.5 230t-54 295.5q0 161 55 298.5t151.5 232t229.5 148t285 53.5q168 0 295.5 -58t208.5 -139l-80 -117q-51 69 -169.5 123.5t-260.5 54.5q-159 0 -285.5 -72t-199 -206.5t-72.5 -310.5q0 -264 156.5 -431t404.5 -167
q262 0 438 190l80 -111q-83 -92 -212 -153.5t-304 -61.5zM627 1532l211 297h166l-252 -297h-125z" />
    <glyph glyph-name="cacute" unicode="&#x107;" horiz-adv-x="1003" 
d="M578 -20q-138 0 -252 60t-182 174.5t-68 262.5t69.5 264t183 177t249.5 61q109 0 201 -38t149 -95l-68 -115q-127 117 -285 117q-150 0 -247 -101.5t-97 -265.5t97.5 -267t251.5 -103q91 0 166 36.5t126 100.5l70 -115q-60 -68 -154 -110.5t-210 -42.5zM406 1116l188 297
h160l-230 -297h-118z" />
    <glyph glyph-name="Ccircumflex" unicode="&#x108;" horiz-adv-x="1392" 
d="M803 -25q-155 0 -288.5 53.5t-229 148t-149.5 230t-54 295.5q0 161 55 298.5t151.5 232t229.5 148t285 53.5q168 0 295.5 -58t208.5 -139l-80 -117q-51 69 -169.5 123.5t-260.5 54.5q-159 0 -285.5 -72t-199 -206.5t-72.5 -310.5q0 -264 156.5 -431t404.5 -167
q262 0 438 190l80 -111q-83 -92 -212 -153.5t-304 -61.5zM481 1532l213 297h127l213 -297h-121l-155 221l-156 -221h-121z" />
    <glyph glyph-name="ccircumflex" unicode="&#x109;" horiz-adv-x="1003" 
d="M578 -20q-138 0 -252 60t-182 174.5t-68 262.5t69.5 264t183 177t249.5 61q109 0 201 -38t149 -95l-68 -115q-127 117 -285 117q-150 0 -247 -101.5t-97 -265.5t97.5 -267t251.5 -103q91 0 166 36.5t126 100.5l70 -115q-60 -68 -154 -110.5t-210 -42.5zM274 1116l203 297
h119l203 -297h-119l-143 215l-144 -215h-119z" />
    <glyph glyph-name="Cdotaccent" unicode="&#x10a;" horiz-adv-x="1392" 
d="M803 -25q-155 0 -288.5 53.5t-229 148t-149.5 230t-54 295.5q0 161 55 298.5t151.5 232t229.5 148t285 53.5q168 0 295.5 -58t208.5 -139l-80 -117q-51 69 -169.5 123.5t-260.5 54.5q-159 0 -285.5 -72t-199 -206.5t-72.5 -310.5q0 -264 156.5 -431t404.5 -167
q262 0 438 190l80 -111q-83 -92 -212 -153.5t-304 -61.5zM758 1571q-40 0 -69.5 28t-29.5 72q0 45 29.5 73t69.5 28t69 -28t29 -73q0 -44 -29 -72t-69 -28z" />
    <glyph glyph-name="cdotaccent" unicode="&#x10b;" horiz-adv-x="1003" 
d="M578 -20q-138 0 -252 60t-182 174.5t-68 262.5t69.5 264t183 177t249.5 61q109 0 201 -38t149 -95l-68 -115q-127 117 -285 117q-150 0 -247 -101.5t-97 -265.5t97.5 -267t251.5 -103q91 0 166 36.5t126 100.5l70 -115q-60 -68 -154 -110.5t-210 -42.5zM537 1163
q-39 0 -68 29t-29 72q0 45 28.5 72.5t68.5 27.5t68 -27t28 -73q0 -43 -28.5 -72t-67.5 -29z" />
    <glyph glyph-name="Ccaron" unicode="&#x10c;" horiz-adv-x="1392" 
d="M803 -25q-155 0 -288.5 53.5t-229 148t-149.5 230t-54 295.5q0 161 55 298.5t151.5 232t229.5 148t285 53.5q168 0 295.5 -58t208.5 -139l-80 -117q-51 69 -169.5 123.5t-260.5 54.5q-159 0 -285.5 -72t-199 -206.5t-72.5 -310.5q0 -264 156.5 -431t404.5 -167
q262 0 438 190l80 -111q-83 -92 -212 -153.5t-304 -61.5zM694 1532l-213 297h121l156 -221l155 221h121l-213 -297h-127z" />
    <glyph glyph-name="ccaron" unicode="&#x10d;" horiz-adv-x="1003" 
d="M578 -20q-138 0 -252 60t-182 174.5t-68 262.5t69.5 264t183 177t249.5 61q109 0 201 -38t149 -95l-68 -115q-127 117 -285 117q-150 0 -247 -101.5t-97 -265.5t97.5 -267t251.5 -103q91 0 166 36.5t126 100.5l70 -115q-60 -68 -154 -110.5t-210 -42.5zM477 1116
l-203 297h119l144 -215l143 215h119l-203 -297h-119z" />
    <glyph glyph-name="Dcaron" unicode="&#x10e;" horiz-adv-x="1392" 
d="M166 0v1413h403q216 0 385 -88t263 -249.5t94 -370.5q0 -200 -94 -360.5t-264 -252.5t-384 -92h-403zM565 135q137 0 250 46t186 125t112.5 182t39.5 219q0 264 -160.5 417.5t-427.5 153.5h-246v-1143h246zM606 1532l-213 297h121l156 -221l155 221h121l-213 -297h-127z
" />
    <glyph glyph-name="dcaron" unicode="&#x10f;" horiz-adv-x="1228" 
d="M530 -20q-204 0 -329 137.5t-125 351.5q0 221 130.5 365.5t332.5 144.5q111 0 207 -47t149 -139q-2 14 -2 112v508h151v-1413h-149v170q-55 -87 -148.5 -138.5t-216.5 -51.5zM559 111q151 0 245.5 106.5t94.5 267.5q0 155 -88.5 259t-243.5 104q-154 0 -245 -104.5
t-91 -264.5q0 -159 89.5 -263.5t238.5 -104.5zM1122 999l129 414h162l-172 -414h-119z" />
    <glyph glyph-name="Dcroat" unicode="&#x110;" horiz-adv-x="1392" 
d="M27 676v131h139v606h403q216 0 385 -88t263 -249.5t94 -370.5q0 -200 -94 -360.5t-264 -252.5t-384 -92h-403v676h-139zM565 135q137 0 250 46t186 125t112.5 182t39.5 219q0 264 -160.5 417.5t-427.5 153.5h-246v-471h386v-131h-386v-541h246z" />
    <glyph glyph-name="dcroat" unicode="&#x111;" horiz-adv-x="1198" 
d="M489 1155v123h404v135h151v-135h146v-123h-146v-1155h-149v170q-55 -87 -148.5 -138.5t-216.5 -51.5q-204 0 -329 137.5t-125 351.5q0 221 130.5 365.5t332.5 144.5q111 0 207 -47t149 -139q-2 14 -2 112v250h-404zM559 111q151 0 245.5 106.5t94.5 267.5
q0 155 -88.5 259t-243.5 104q-154 0 -245 -104.5t-91 -264.5q0 -159 89.5 -263.5t238.5 -104.5z" />
    <glyph glyph-name="Emacron" unicode="&#x112;" horiz-adv-x="1069" 
d="M166 0v1413h795v-135h-642v-465h605v-133h-605v-545h656v-135h-809zM313 1589v99h521v-99h-521z" />
    <glyph glyph-name="emacron" unicode="&#x113;" horiz-adv-x="1073" 
d="M563 -20q-97 0 -178.5 27t-137.5 73t-95 109t-57.5 135t-18.5 151q0 141 57.5 255.5t166.5 181.5t249 67q198 0 323 -126.5t125 -320.5q0 -48 -6 -96h-760q5 -143 98.5 -234t245.5 -91q178 0 324 125l68 -99q-64 -73 -171 -115t-233 -42zM846 559q0 52 -18 102t-53 92.5
t-93 68.5t-131 26q-138 0 -223 -84.5t-95 -204.5h613zM295 1194v96h483v-96h-483z" />
    <glyph glyph-name="Ebreve" unicode="&#x114;" horiz-adv-x="1069" 
d="M166 0v1413h795v-135h-642v-465h605v-133h-605v-545h656v-135h-809zM573 1546q-124 0 -198 69.5t-82 190.5h94q14 -79 61 -122.5t125 -43.5t125.5 43.5t61.5 122.5h94q-8 -121 -82.5 -190.5t-198.5 -69.5z" />
    <glyph glyph-name="ebreve" unicode="&#x115;" horiz-adv-x="1073" 
d="M563 -20q-97 0 -178.5 27t-137.5 73t-95 109t-57.5 135t-18.5 151q0 141 57.5 255.5t166.5 181.5t249 67q198 0 323 -126.5t125 -320.5q0 -48 -6 -96h-760q5 -143 98.5 -234t245.5 -91q178 0 324 125l68 -99q-64 -73 -171 -115t-233 -42zM846 559q0 52 -18 102t-53 92.5
t-93 68.5t-131 26q-138 0 -223 -84.5t-95 -204.5h613zM537 1124q-124 0 -196 71t-81 200h90q14 -80 61.5 -123t125.5 -43q158 0 186 166h90q-9 -130 -80 -200.5t-196 -70.5z" />
    <glyph glyph-name="Edotaccent" unicode="&#x116;" horiz-adv-x="1069" 
d="M166 0v1413h795v-135h-642v-465h605v-133h-605v-545h656v-135h-809zM573 1571q-40 0 -69 28t-29 72q0 45 29 73t69 28t69.5 -28t29.5 -73q0 -44 -29.5 -72t-69.5 -28z" />
    <glyph glyph-name="edotaccent" unicode="&#x117;" horiz-adv-x="1073" 
d="M563 -20q-97 0 -178.5 27t-137.5 73t-95 109t-57.5 135t-18.5 151q0 141 57.5 255.5t166.5 181.5t249 67q198 0 323 -126.5t125 -320.5q0 -48 -6 -96h-760q5 -143 98.5 -234t245.5 -91q178 0 324 125l68 -99q-64 -73 -171 -115t-233 -42zM846 559q0 52 -18 102t-53 92.5
t-93 68.5t-131 26q-138 0 -223 -84.5t-95 -204.5h613zM537 1163q-39 0 -68 29t-29 72q0 45 28.5 72.5t68.5 27.5t68 -27t28 -73q0 -43 -28.5 -72t-67.5 -29z" />
    <glyph glyph-name="Eogonek" unicode="&#x118;" horiz-adv-x="1069" 
d="M166 0v1413h795v-135h-642v-465h605v-133h-605v-545h656v-135h-111q-86 -38 -133 -97t-47 -116q0 -53 34 -78.5t87 -25.5q76 0 143 45l31 -58q-86 -80 -211 -80q-96 0 -149.5 44.5t-53.5 125.5q0 74 45.5 135.5t124.5 104.5h-569z" />
    <glyph glyph-name="eogonek" unicode="&#x119;" horiz-adv-x="1073" 
d="M760 -410q-95 0 -149 44.5t-54 123.5q0 70 41 131.5t109 104.5q-66 -14 -146 -14q-220 0 -352.5 135.5t-132.5 355.5t130.5 364t342.5 144q198 0 323 -126.5t125 -320.5q0 -48 -6 -96h-760q5 -144 98.5 -235.5t245.5 -91.5q179 0 324 124l68 -96q-18 -23 -52 -51
q-43 -32 -74.5 -59t-74.5 -69.5t-66.5 -87t-23.5 -85.5q0 -50 33.5 -76t85.5 -26q78 0 145 45l31 -58q-86 -80 -211 -80zM846 559q0 52 -18 102.5t-53 93.5t-93 69t-131 26q-136 0 -221.5 -84t-96.5 -207h613z" />
    <glyph glyph-name="Ecaron" unicode="&#x11a;" horiz-adv-x="1069" 
d="M166 0v1413h795v-135h-642v-465h605v-133h-605v-545h656v-135h-809zM510 1532l-213 297h121l155 -221l156 221h121l-213 -297h-127z" />
    <glyph glyph-name="ecaron" unicode="&#x11b;" horiz-adv-x="1073" 
d="M563 -20q-97 0 -178.5 27t-137.5 73t-95 109t-57.5 135t-18.5 151q0 141 57.5 255.5t166.5 181.5t249 67q198 0 323 -126.5t125 -320.5q0 -48 -6 -96h-760q5 -143 98.5 -234t245.5 -91q178 0 324 125l68 -99q-64 -73 -171 -115t-233 -42zM846 559q0 52 -18 102t-53 92.5
t-93 68.5t-131 26q-138 0 -223 -84.5t-95 -204.5h613zM477 1116l-203 297h119l144 -215l143 215h119l-203 -297h-119z" />
    <glyph glyph-name="Gcircumflex" unicode="&#x11c;" horiz-adv-x="1511" 
d="M817 -23q-217 0 -384 90t-259 254.5t-92 378.5q0 216 93 384t258 260t374 92q183 0 322.5 -69.5t232.5 -176.5l-105 -105q-181 215 -458 215q-118 0 -220.5 -41.5t-177.5 -117t-118 -187.5t-43 -247q0 -273 163.5 -433.5t425.5 -160.5q121 0 230 35.5t180 103.5v350h-405
v135h557v-536q-91 -106 -245.5 -165t-328.5 -59zM510 1532l213 297h127l213 -297h-121l-156 221l-155 -221h-121z" />
    <glyph glyph-name="gcircumflex" unicode="&#x11d;" horiz-adv-x="1187" 
d="M526 -410q-216 0 -411 146l75 110q178 -125 345 -125q358 0 358 410v57q-55 -83 -148.5 -132.5t-214.5 -49.5q-204 0 -329 134.5t-125 342.5q0 214 130.5 355t332.5 141q111 0 207 -45.5t149 -136.5v159h149v-811q0 -260 -134 -407.5t-384 -147.5zM559 137
q151 0 245.5 103t94.5 258q0 149 -88.5 249.5t-243.5 100.5q-154 0 -245 -100.5t-91 -253.5q0 -154 89.5 -255.5t238.5 -101.5zM311 1116l203 297h119l203 -297h-119l-144 215l-143 -215h-119z" />
    <glyph glyph-name="Gbreve" unicode="&#x11e;" horiz-adv-x="1511" 
d="M817 -23q-217 0 -384 90t-259 254.5t-92 378.5q0 216 93 384t258 260t374 92q183 0 322.5 -69.5t232.5 -176.5l-105 -105q-181 215 -458 215q-118 0 -220.5 -41.5t-177.5 -117t-118 -187.5t-43 -247q0 -273 163.5 -433.5t425.5 -160.5q121 0 230 35.5t180 103.5v350h-405
v135h557v-536q-91 -106 -245.5 -165t-328.5 -59zM786 1546q-124 0 -198 69.5t-82 190.5h94q14 -79 61 -122.5t125 -43.5t125.5 43.5t61.5 122.5h94q-8 -121 -82.5 -190.5t-198.5 -69.5z" />
    <glyph glyph-name="gbreve" unicode="&#x11f;" horiz-adv-x="1187" 
d="M526 -410q-216 0 -411 146l75 110q178 -125 345 -125q358 0 358 410v57q-55 -83 -148.5 -132.5t-214.5 -49.5q-204 0 -329 134.5t-125 342.5q0 214 130.5 355t332.5 141q111 0 207 -45.5t149 -136.5v159h149v-811q0 -260 -134 -407.5t-384 -147.5zM559 137
q151 0 245.5 103t94.5 258q0 149 -88.5 249.5t-243.5 100.5q-154 0 -245 -100.5t-91 -253.5q0 -154 89.5 -255.5t238.5 -101.5zM573 1124q-124 0 -195.5 70.5t-80.5 200.5h90q14 -80 61.5 -123t124.5 -43q79 0 126 43t61 123h90q-9 -130 -80.5 -200.5t-196.5 -70.5z" />
    <glyph glyph-name="Gdotaccent" unicode="&#x120;" horiz-adv-x="1511" 
d="M817 -23q-217 0 -384 90t-259 254.5t-92 378.5q0 216 93 384t258 260t374 92q183 0 322.5 -69.5t232.5 -176.5l-105 -105q-181 215 -458 215q-118 0 -220.5 -41.5t-177.5 -117t-118 -187.5t-43 -247q0 -273 163.5 -433.5t425.5 -160.5q121 0 230 35.5t180 103.5v350h-405
v135h557v-536q-91 -106 -245.5 -165t-328.5 -59zM786 1571q-40 0 -69 28t-29 72q0 45 29 73t69 28t69.5 -28t29.5 -73q0 -44 -29.5 -72t-69.5 -28z" />
    <glyph glyph-name="gdotaccent" unicode="&#x121;" horiz-adv-x="1187" 
d="M526 -410q-216 0 -411 146l75 110q178 -125 345 -125q358 0 358 410v57q-55 -83 -148.5 -132.5t-214.5 -49.5q-204 0 -329 134.5t-125 342.5q0 214 130.5 355t332.5 141q111 0 207 -45.5t149 -136.5v159h149v-811q0 -260 -134 -407.5t-384 -147.5zM559 137
q151 0 245.5 103t94.5 258q0 149 -88.5 249.5t-243.5 100.5q-154 0 -245 -100.5t-91 -253.5q0 -154 89.5 -255.5t238.5 -101.5zM573 1163q-39 0 -67.5 29t-28.5 72q0 46 28 73t68 27t68.5 -27.5t28.5 -72.5q0 -43 -29 -72t-68 -29z" />
    <glyph glyph-name="uni0122" unicode="&#x122;" horiz-adv-x="1511" 
d="M817 -23q-217 0 -384 90t-259 254.5t-92 378.5q0 216 93 384t258 260t374 92q183 0 322.5 -69.5t232.5 -176.5l-105 -105q-181 215 -458 215q-118 0 -220.5 -41.5t-177.5 -117t-118 -187.5t-43 -247q0 -273 163.5 -433.5t425.5 -160.5q121 0 230 35.5t180 103.5v350h-405
v135h557v-536q-91 -106 -245.5 -165t-328.5 -59zM670 -410l88 299h149l-129 -299h-108z" />
    <glyph glyph-name="uni0123" unicode="&#x123;" horiz-adv-x="1187" 
d="M526 -410q-216 0 -411 146l75 110q178 -125 345 -125q358 0 358 410v57q-55 -83 -148.5 -132.5t-214.5 -49.5q-204 0 -329 134.5t-125 342.5q0 214 130.5 355t332.5 141q111 0 207 -45.5t149 -136.5v159h149v-811q0 -260 -134 -407.5t-384 -147.5zM559 137
q151 0 245.5 103t94.5 258q0 149 -88.5 249.5t-243.5 100.5q-154 0 -245 -100.5t-91 -253.5q0 -154 89.5 -255.5t238.5 -101.5zM483 1116l131 297h111l-94 -297h-148z" />
    <glyph glyph-name="Hcircumflex" unicode="&#x124;" horiz-adv-x="1449" 
d="M166 0v1413h153v-600h811v600h154v-1413h-154v680h-811v-680h-153zM449 1532l213 297h126l213 -297h-120l-156 221l-156 -221h-120z" />
    <glyph glyph-name="hcircumflex" unicode="&#x125;" horiz-adv-x="1085" 
d="M154 0v1413h151v-477q0 -101 -4 -133q43 86 129.5 131t196.5 45q92 0 157 -30t100 -86.5t50.5 -124.5t15.5 -156v-582h-151v571q0 277 -215 277q-61 0 -110.5 -22.5t-80 -57.5t-51 -81t-29 -90.5t-8.5 -88.5v-508h-151zM-25 1509l203 297h119l203 -297h-119l-143 215
l-144 -215h-119z" />
    <glyph glyph-name="Hbar" unicode="&#x126;" horiz-adv-x="1449" 
d="M166 0v1104h-156v115h156v194h153v-194h814v194h153v-194h154v-115h-154v-1104h-153v678h-814v-678h-153zM319 813h814v291h-814v-291z" />
    <glyph glyph-name="hbar" unicode="&#x127;" horiz-adv-x="1085" 
d="M6 1155v123h148v135h151v-135h402v-123h-402v-219q0 -101 -4 -133q43 86 129.5 131t196.5 45q92 0 157 -30t100 -86.5t50.5 -124.5t15.5 -156v-582h-151v571q0 277 -215 277q-61 0 -110.5 -22.5t-80 -57.5t-51 -81t-29 -90.5t-8.5 -88.5v-508h-151v1155h-148z" />
    <glyph glyph-name="Itilde" unicode="&#x128;" horiz-adv-x="485" 
d="M166 0v1413h153v-1413h-153zM377 1579q-45 0 -94.5 24t-94 48t-77.5 24q-39 0 -63.5 -26.5t-29.5 -61.5l-88 17q6 75 57.5 123.5t123.5 48.5q45 0 94 -24t93.5 -47.5t78.5 -23.5q39 0 63 26.5t27 61.5l90 -18q-6 -75 -57 -123.5t-123 -48.5z" />
    <glyph glyph-name="itilde" unicode="&#x129;" horiz-adv-x="458" 
d="M346 1176q-40 0 -82 23.5t-80.5 47t-68.5 23.5q-36 0 -51.5 -22.5t-20.5 -61.5l-84 16q6 78 46.5 126t107.5 48q40 0 81.5 -23.5t80 -47t69.5 -23.5q62 0 70 84l86 -16q-6 -79 -45 -126.5t-109 -47.5zM154 0v958h151v-958h-151z" />
    <glyph glyph-name="Imacron" unicode="&#x12a;" horiz-adv-x="485" 
d="M166 0v1413h153v-1413h-153zM-16 1589v99h520v-99h-520z" />
    <glyph glyph-name="imacron" unicode="&#x12b;" horiz-adv-x="458" 
d="M154 0v958h151v-958h-151zM0 1194v96h461v-96h-461z" />
    <glyph glyph-name="Ibreve" unicode="&#x12c;" horiz-adv-x="485" 
d="M166 0v1413h153v-1413h-153zM244 1546q-124 0 -198.5 69.5t-82.5 190.5h94q14 -79 61.5 -122.5t125.5 -43.5t125 43.5t61 122.5h94q-8 -121 -82 -190.5t-198 -69.5z" />
    <glyph glyph-name="ibreve" unicode="&#x12d;" horiz-adv-x="458" 
d="M229 1124q-107 0 -168.5 70.5t-70.5 200.5h88q11 -80 49.5 -123t101.5 -43q64 0 102.5 43t49.5 123h88q-8 -130 -70 -200.5t-170 -70.5zM154 0v958h151v-958h-151z" />
    <glyph glyph-name="Iogonek" unicode="&#x12e;" horiz-adv-x="485" 
d="M211 -410q-96 0 -149.5 44.5t-53.5 125.5q0 74 45.5 135.5t124.5 104.5h-12v1413h153v-1413q-95 -37 -143.5 -95.5t-48.5 -117.5q0 -53 34 -78.5t87 -25.5q76 0 143 45l31 -58q-86 -80 -211 -80z" />
    <glyph glyph-name="iogonek" unicode="&#x12f;" horiz-adv-x="458" 
d="M209 -410q-96 0 -148.5 44.5t-52.5 125.5q0 70 35 126t113 114h-2v958h151v-958q-84 -40 -132 -96t-48 -117q0 -53 34 -78.5t87 -25.5q76 0 143 45l31 -58q-86 -80 -211 -80zM229 1186q-46 0 -76 30t-30 74t30.5 74.5t75.5 30.5q46 0 76.5 -30.5t30.5 -74.5t-30.5 -74
t-76.5 -30z" />
    <glyph glyph-name="Idotaccent" unicode="&#x130;" horiz-adv-x="485" 
d="M166 0v1413h153v-1413h-153zM244 1571q-40 0 -69.5 28t-29.5 72q0 45 29.5 73t69.5 28t69 -28t29 -73q0 -44 -29 -72t-69 -28z" />
    <glyph glyph-name="dotlessi" unicode="&#x131;" horiz-adv-x="458" 
d="M154 0v958h151v-958h-151z" />
    <glyph glyph-name="IJ" unicode="&#x132;" horiz-adv-x="970" 
d="M166 0v1413h153v-1413h-153zM530 -410q-83 0 -127 23l5 125q35 -14 92 -14q47 0 78.5 21t46.5 61.5t20.5 84t5.5 103.5v1419h154v-1423q0 -83 -14.5 -152t-45 -126.5t-85.5 -89.5t-130 -32z" />
    <glyph glyph-name="ij" unicode="&#x133;" horiz-adv-x="917" 
d="M154 0v958h151v-958h-151zM229 1186q-46 0 -76 30t-30 74t30.5 74.5t75.5 30.5q46 0 76.5 -30.5t30.5 -74.5t-30.5 -74t-76.5 -30zM477 -410q-59 0 -96 13l6 133q43 -15 66 -15q92 0 125.5 59.5t33.5 211.5v966h152v-976q0 -89 -14 -157t-46 -122.5t-89 -83.5t-138 -29z
M688 1186q-46 0 -76 30t-30 74t30 74.5t76 30.5t76.5 -30.5t30.5 -74.5t-30.5 -74t-76.5 -30z" />
    <glyph glyph-name="Jcircumflex" unicode="&#x134;" horiz-adv-x="485" 
d="M45 -410q-83 0 -127 23l4 125q35 -14 92 -14q47 0 78.5 21t47 61.5t21 84t5.5 103.5v1419h153v-1423q0 -66 -8.5 -123t-28.5 -109t-51 -88.5t-78.5 -58t-107.5 -21.5zM-33 1532l213 297h127l213 -297h-121l-155 221l-156 -221h-121z" />
    <glyph glyph-name="jcircumflex" unicode="&#x135;" horiz-adv-x="458" 
d="M18 -410q-59 0 -96 13l6 133q43 -15 66 -15q92 0 126 59.5t34 211.5v966h151v-976q0 -89 -14 -157t-46 -122.5t-89 -83.5t-138 -29zM-6 1116l176 297h119l176 -297h-113l-123 217l-123 -217h-112z" />
    <glyph glyph-name="uni0136" unicode="&#x136;" horiz-adv-x="1163" 
d="M166 0v1413h153v-641l619 641h195l-549 -555l590 -858h-191l-508 748l-156 -158v-590h-153zM473 -410l88 299h150l-129 -299h-109z" />
    <glyph glyph-name="uni0137" unicode="&#x137;" horiz-adv-x="958" 
d="M154 0v1413h151v-860l416 405h192l-387 -362l443 -596h-183l-362 500l-119 -113v-387h-151zM387 -410l88 299h150l-129 -299h-109z" />
    <glyph glyph-name="kgreenlandic" unicode="&#x138;" horiz-adv-x="948" 
d="M143 0v958h152v-405l416 405h192l-387 -362l442 -596h-182l-362 500l-119 -113v-387h-152z" />
    <glyph glyph-name="Lacute" unicode="&#x139;" horiz-adv-x="860" 
d="M166 0v1413h153v-1278h500v-135h-653zM174 1532l211 297h166l-252 -297h-125z" />
    <glyph glyph-name="lacute" unicode="&#x13a;" horiz-adv-x="487" 
d="M154 0v1413h151v-1413h-151zM156 1513l188 297h160l-230 -297h-118z" />
    <glyph glyph-name="uni013B" unicode="&#x13b;" horiz-adv-x="860" 
d="M166 0v1413h153v-1278h500v-135h-653zM346 -410l88 299h150l-129 -299h-109z" />
    <glyph glyph-name="uni013C" unicode="&#x13c;" horiz-adv-x="487" 
d="M154 0v1413h151v-1413h-151zM74 -410l88 299h149l-129 -299h-108z" />
    <glyph glyph-name="Lcaron" unicode="&#x13d;" horiz-adv-x="860" 
d="M166 0v1413h153v-1278h500v-135h-653zM549 999l129 414h162l-172 -414h-119z" />
    <glyph glyph-name="lcaron" unicode="&#x13e;" horiz-adv-x="458" 
d="M154 0v1413h151v-1413h-151zM383 999l129 414h162l-172 -414h-119z" />
    <glyph glyph-name="Ldot" unicode="&#x13f;" horiz-adv-x="860" 
d="M166 0v1413h153v-1278h500v-135h-653zM702 571q-50 0 -82 32t-32 81t32 81t82 32q52 0 84.5 -31.5t32.5 -81.5t-32.5 -81.5t-84.5 -31.5z" />
    <glyph glyph-name="ldot" unicode="&#x140;" horiz-adv-x="716" 
d="M588 477q-50 0 -82.5 32t-32.5 81t32.5 80.5t82.5 31.5q52 0 84.5 -31t32.5 -81t-32.5 -81.5t-84.5 -31.5zM154 0v1413h151v-1413h-151z" />
    <glyph glyph-name="Lslash" unicode="&#x141;" horiz-adv-x="860" 
d="M166 0v547l-135 -103v140l135 102v727h153v-608l240 182v-141l-240 -182v-529h500v-135h-653z" />
    <glyph glyph-name="lslash" unicode="&#x142;" horiz-adv-x="458" 
d="M154 0v623l-127 -119v147l127 119v643h151v-500l127 119v-147l-127 -119v-766h-151z" />
    <glyph glyph-name="Nacute" unicode="&#x143;" horiz-adv-x="1507" 
d="M166 0v1413h158l864 -1165v334v831h153v-1413h-147l-877 1182l2 -498v-684h-153zM643 1532l211 297h166l-252 -297h-125z" />
    <glyph glyph-name="nacute" unicode="&#x144;" horiz-adv-x="1075" 
d="M143 0v958h150v-155q43 86 128 131t195 45q92 0 157 -30t100.5 -86.5t51 -124.5t15.5 -156v-582h-152v571q0 277 -215 277q-61 0 -110.5 -22.5t-80 -57.5t-51 -81.5t-28.5 -90.5t-8 -88v-508h-152zM436 1116l189 297h159l-229 -297h-119z" />
    <glyph glyph-name="uni0145" unicode="&#x145;" horiz-adv-x="1507" 
d="M166 0v1413h158l864 -1165v334v831h153v-1413h-147l-877 1182l2 -498v-684h-153zM618 -410l89 299h149l-129 -299h-109z" />
    <glyph glyph-name="uni0146" unicode="&#x146;" horiz-adv-x="1075" 
d="M143 0v958h150v-155q43 86 128 131t195 45q92 0 157 -30t100.5 -86.5t51 -124.5t15.5 -156v-582h-152v571q0 277 -215 277q-61 0 -110.5 -22.5t-80 -57.5t-51 -81.5t-28.5 -90.5t-8 -88v-508h-152zM410 -410l88 299h149l-129 -299h-108z" />
    <glyph glyph-name="Ncaron" unicode="&#x147;" horiz-adv-x="1507" 
d="M166 0v1413h158l864 -1165v334v831h153v-1413h-147l-877 1182l2 -498v-684h-153zM711 1532l-213 297h120l156 -221l156 221h121l-213 -297h-127z" />
    <glyph glyph-name="ncaron" unicode="&#x148;" horiz-adv-x="1075" 
d="M143 0v958h150v-155q43 86 128 131t195 45q92 0 157 -30t100.5 -86.5t51 -124.5t15.5 -156v-582h-152v571q0 277 -215 277q-61 0 -110.5 -22.5t-80 -57.5t-51 -81.5t-28.5 -90.5t-8 -88v-508h-152zM508 1116l-203 297h119l143 -215l144 215h118l-202 -297h-119z" />
    <glyph glyph-name="Eng" unicode="&#x14a;" horiz-adv-x="1507" 
d="M166 0v1413h158l864 -1165v334v831h153v-1411q0 -395 -280 -395q-31 0 -59.5 4t-41.5 8l-12 4v123q44 -14 92 -14q41 0 69.5 15.5t44 38t24 62t10.5 72.5t2 84v2l-873 1176l2 -371v-811h-153z" />
    <glyph glyph-name="eng" unicode="&#x14b;" horiz-adv-x="1075" 
d="M653 -410q-59 0 -96 13l6 133q43 -15 66 -15q92 0 125.5 59.5t33.5 211.5v579q0 277 -215 277q-61 0 -110.5 -22.5t-80 -57.5t-51 -81.5t-28.5 -90.5t-8 -88v-508h-152v958h150v-155q43 86 128 131t195 45q92 0 157 -30t100.5 -86.5t51 -124.5t15.5 -156v-600
q0 -89 -14 -157t-46 -122.5t-89 -83.5t-138 -29z" />
    <glyph glyph-name="Omacron" unicode="&#x14c;" horiz-adv-x="1609" 
d="M805 -23q-146 0 -277 51t-230.5 143.5t-157.5 231.5t-58 304t58.5 303.5t157.5 231t230 143.5t277 51q145 0 276 -51t230.5 -143.5t158 -231t58.5 -303.5q0 -166 -58 -304.5t-157 -231t-230 -143.5t-278 -51zM805 113q115 0 217.5 41.5t180 117t122.5 188.5t45 249
t-45 248.5t-122.5 186.5t-180 115t-217.5 41t-217 -40.5t-179.5 -114.5t-123 -187t-45.5 -249q0 -180 78.5 -317.5t206 -208t280.5 -70.5zM545 1589v99h520v-99h-520z" />
    <glyph glyph-name="omacron" unicode="&#x14d;" 
d="M575 -20q-213 0 -356 139t-143 358q0 144 66 259t180 179t253 64q214 0 359 -142t145 -360t-144.5 -357.5t-359.5 -139.5zM575 111q158 0 253.5 105t95.5 263q0 159 -95.5 264t-253.5 105q-156 0 -250 -105t-94 -264q0 -158 94 -263t250 -105zM336 1194v96h483v-96h-483z
" />
    <glyph glyph-name="Obreve" unicode="&#x14e;" horiz-adv-x="1609" 
d="M805 -23q-146 0 -277 51t-230.5 143.5t-157.5 231.5t-58 304t58.5 303.5t157.5 231t230 143.5t277 51q145 0 276 -51t230.5 -143.5t158 -231t58.5 -303.5q0 -166 -58 -304.5t-157 -231t-230 -143.5t-278 -51zM805 113q115 0 217.5 41.5t180 117t122.5 188.5t45 249
t-45 248.5t-122.5 186.5t-180 115t-217.5 41t-217 -40.5t-179.5 -114.5t-123 -187t-45.5 -249q0 -180 78.5 -317.5t206 -208t280.5 -70.5zM805 1546q-124 0 -198.5 69.5t-82.5 190.5h94q14 -79 61.5 -122.5t125.5 -43.5t125 43.5t61 122.5h94q-8 -121 -82 -190.5t-198 -69.5
z" />
    <glyph glyph-name="obreve" unicode="&#x14f;" 
d="M575 -20q-213 0 -356 139t-143 358q0 144 66 259t180 179t253 64q214 0 359 -142t145 -360t-144.5 -357.5t-359.5 -139.5zM575 111q158 0 253.5 105t95.5 263q0 159 -95.5 264t-253.5 105q-156 0 -250 -105t-94 -264q0 -158 94 -263t250 -105zM578 1124q-124 0 -196 71
t-81 200h90q14 -80 61.5 -123t125.5 -43q158 0 186 166h90q-9 -130 -80 -200.5t-196 -70.5z" />
    <glyph glyph-name="Ohungarumlaut" unicode="&#x150;" horiz-adv-x="1609" 
d="M805 -23q-146 0 -277 51t-230.5 143.5t-157.5 231.5t-58 304t58.5 303.5t157.5 231t230 143.5t277 51q145 0 276 -51t230.5 -143.5t158 -231t58.5 -303.5q0 -166 -58 -304.5t-157 -231t-230 -143.5t-278 -51zM805 113q115 0 217.5 41.5t180 117t122.5 188.5t45 249
t-45 248.5t-122.5 186.5t-180 115t-217.5 41t-217 -40.5t-179.5 -114.5t-123 -187t-45.5 -249q0 -180 78.5 -317.5t206 -208t280.5 -70.5zM889 1532l209 297h164l-250 -297h-123zM555 1532l209 297h164l-250 -297h-123z" />
    <glyph glyph-name="ohungarumlaut" unicode="&#x151;" 
d="M575 -20q-213 0 -356 139t-143 358q0 144 66 259t180 179t253 64q214 0 359 -142t145 -360t-144.5 -357.5t-359.5 -139.5zM575 111q158 0 253.5 105t95.5 263q0 159 -95.5 264t-253.5 105q-156 0 -250 -105t-94 -264q0 -158 94 -263t250 -105zM645 1116l193 297h157
l-231 -297h-119zM365 1116l192 297h158l-232 -297h-118z" />
    <glyph glyph-name="OE" unicode="&#x152;" horiz-adv-x="2048" 
d="M805 -25q-146 0 -277 51t-230.5 143.5t-157.5 231.5t-58 304t58.5 303.5t157.5 231t230 143.5t277 51q218 0 389 -101v80h745v-133h-591v-467h555v-133h-555v-547h606v-133h-760v80q-183 -105 -389 -105zM805 109q111 0 212 38.5t177 110.5v899q-155 143 -389 143
q-115 0 -217 -40.5t-179.5 -114t-123 -187t-45.5 -251.5q0 -136 45.5 -250t123.5 -189.5t180 -117t216 -41.5z" />
    <glyph glyph-name="oe" unicode="&#x153;" horiz-adv-x="1921" 
d="M575 -20q-213 0 -356 139t-143 358q0 144 66 259t180 179t253 64q134 0 245.5 -59.5t176.5 -163.5q60 103 164.5 163t237.5 60q197 0 321.5 -128t124.5 -327q0 -40 -6 -88h-760q5 -145 98 -235t246 -90q178 0 324 125l68 -99q-133 -157 -416 -157q-134 0 -238 57
t-164 162q-66 -103 -177 -161t-245 -58zM575 111q158 0 255.5 106.5t97.5 263.5q0 158 -97.5 262.5t-255.5 104.5q-157 0 -252.5 -103.5t-95.5 -261.5t96 -265t252 -107zM1694 559q0 53 -18 102.5t-53 92t-94.5 68.5t-135.5 26q-131 0 -217 -85.5t-95 -203.5h613z" />
    <glyph glyph-name="Racute" unicode="&#x154;" horiz-adv-x="1114" 
d="M166 0v1413h383q199 0 318.5 -99t119.5 -286q0 -156 -92 -254.5t-246 -130.5l420 -643h-182l-406 631h-162v-631h-153zM469 764q83 0 144.5 11.5t112 39.5t77 80t26.5 127q0 258 -340 258h-170v-516h150zM422 1532l211 297h166l-252 -297h-125z" />
    <glyph glyph-name="racute" unicode="&#x155;" horiz-adv-x="663" 
d="M143 0v958h150v-153q32 83 98.5 128.5t140.5 45.5q66 0 107 -18l-12 -146q-48 23 -101 23q-77 0 -130.5 -51t-77 -128t-23.5 -172v-487h-152zM244 1116l188 297h160l-230 -297h-118z" />
    <glyph glyph-name="uni0156" unicode="&#x156;" horiz-adv-x="1114" 
d="M166 0v1413h383q199 0 318.5 -99t119.5 -286q0 -156 -92 -254.5t-246 -130.5l420 -643h-182l-406 631h-162v-631h-153zM469 764q83 0 144.5 11.5t112 39.5t77 80t26.5 127q0 258 -340 258h-170v-516h150zM434 -410l88 299h150l-129 -299h-109z" />
    <glyph glyph-name="uni0157" unicode="&#x157;" horiz-adv-x="663" 
d="M143 0v958h150v-153q32 83 98.5 128.5t140.5 45.5q66 0 107 -18l-12 -146q-48 23 -101 23q-77 0 -130.5 -51t-77 -128t-23.5 -172v-487h-152zM84 -410l88 299h150l-129 -299h-109z" />
    <glyph glyph-name="Rcaron" unicode="&#x158;" horiz-adv-x="1114" 
d="M166 0v1413h383q199 0 318.5 -99t119.5 -286q0 -156 -92 -254.5t-246 -130.5l420 -643h-182l-406 631h-162v-631h-153zM469 764q83 0 144.5 11.5t112 39.5t77 80t26.5 127q0 258 -340 258h-170v-516h150zM489 1532l-213 297h121l156 -221l156 221h120l-213 -297h-127z
" />
    <glyph glyph-name="rcaron" unicode="&#x159;" horiz-adv-x="663" 
d="M143 0v958h150v-153q32 83 98.5 128.5t140.5 45.5q66 0 107 -18l-12 -146q-48 23 -101 23q-77 0 -130.5 -51t-77 -128t-23.5 -172v-487h-152zM315 1116l-202 297h118l144 -215l143 215h119l-203 -297h-119z" />
    <glyph glyph-name="Sacute" unicode="&#x15a;" horiz-adv-x="1081" 
d="M532 -20q-81 0 -153.5 21.5t-128 59.5t-96 79t-74.5 91l104 101q63 -93 158.5 -156t210.5 -63q116 0 197 65.5t81 179.5q0 54 -19.5 98.5t-57.5 77.5t-77.5 56.5t-94.5 46.5l-209 90q-238 102 -238 334q0 91 35 163.5t94.5 117t133.5 67.5t157 23q129 0 233 -52t168 -131
l-90 -102q-129 151 -307 151q-117 0 -192.5 -57.5t-75.5 -165.5q0 -87 50 -140.5t146 -94.5l193 -82q53 -23 94 -45t83.5 -55.5t69.5 -71.5t44.5 -91.5t17.5 -115.5q0 -126 -66.5 -218.5t-168.5 -136.5t-222 -44zM416 1532l211 297h166l-252 -297h-125z" />
    <glyph glyph-name="sacute" unicode="&#x15b;" horiz-adv-x="823" 
d="M408 -20q-111 0 -206.5 46t-150.5 124l80 102q129 -146 281 -146q87 0 145.5 36t58.5 112q0 57 -46 96.5t-150 73.5l-39 12q-146 47 -212.5 110.5t-66.5 164.5q0 84 46.5 146.5t116.5 92t151 29.5q97 0 178 -31.5t137 -81.5l-74 -102q-105 88 -241 88q-79 0 -124.5 -31
t-45.5 -96q0 -59 53 -94t152 -68l34 -12q144 -50 209.5 -112.5t65.5 -166.5q0 -135 -99.5 -213.5t-252.5 -78.5zM281 1116l188 297h160l-230 -297h-118z" />
    <glyph glyph-name="Scircumflex" unicode="&#x15c;" horiz-adv-x="1081" 
d="M532 -20q-81 0 -153.5 21.5t-128 59.5t-96 79t-74.5 91l104 101q63 -93 158.5 -156t210.5 -63q116 0 197 65.5t81 179.5q0 54 -19.5 98.5t-57.5 77.5t-77.5 56.5t-94.5 46.5l-209 90q-238 102 -238 334q0 91 35 163.5t94.5 117t133.5 67.5t157 23q129 0 233 -52t168 -131
l-90 -102q-129 151 -307 151q-117 0 -192.5 -57.5t-75.5 -165.5q0 -87 50 -140.5t146 -94.5l193 -82q53 -23 94 -45t83.5 -55.5t69.5 -71.5t44.5 -91.5t17.5 -115.5q0 -126 -66.5 -218.5t-168.5 -136.5t-222 -44zM270 1532l213 297h127l213 -297h-121l-155 221l-156 -221
h-121z" />
    <glyph glyph-name="scircumflex" unicode="&#x15d;" horiz-adv-x="823" 
d="M408 -20q-111 0 -206.5 46t-150.5 124l80 102q129 -146 281 -146q87 0 145.5 36t58.5 112q0 57 -46 96.5t-150 73.5l-39 12q-146 47 -212.5 110.5t-66.5 164.5q0 84 46.5 146.5t116.5 92t151 29.5q97 0 178 -31.5t137 -81.5l-74 -102q-105 88 -241 88q-79 0 -124.5 -31
t-45.5 -96q0 -59 53 -94t152 -68l34 -12q144 -50 209.5 -112.5t65.5 -166.5q0 -135 -99.5 -213.5t-252.5 -78.5zM150 1116l202 297h119l203 -297h-119l-143 215l-144 -215h-118z" />
    <glyph glyph-name="Scedilla" unicode="&#x15e;" horiz-adv-x="1081" 
d="M324 -324l176 304q-260 15 -420 251l104 101q63 -93 158.5 -156t210.5 -63q116 0 197 65.5t81 179.5q0 54 -19.5 98.5t-57.5 77.5t-77.5 56.5t-94.5 46.5l-209 90q-238 102 -238 334q0 91 35 163.5t94.5 117t133.5 67.5t157 23q129 0 233 -52t168 -131l-90 -102
q-129 151 -307 151q-117 0 -192.5 -57.5t-75.5 -165.5q0 -87 50 -140.5t146 -94.5l193 -82q53 -23 94 -45t83.5 -55.5t69.5 -71.5t44.5 -91.5t17.5 -115.5q0 -154 -92.5 -253t-239.5 -132l-165 -318h-168z" />
    <glyph glyph-name="scedilla" unicode="&#x15f;" horiz-adv-x="823" 
d="M186 -324l176 306q-99 9 -180 53t-131 115l80 102q129 -146 281 -146q87 0 145.5 36t58.5 112q0 57 -46 96.5t-150 73.5l-39 12q-146 47 -212.5 110.5t-66.5 164.5q0 84 46.5 146.5t116.5 92t151 29.5q97 0 178 -31.5t137 -81.5l-74 -102q-105 88 -241 88
q-79 0 -124.5 -31t-45.5 -96q0 -59 53 -94t152 -68l34 -12q144 -50 209.5 -112.5t65.5 -166.5q0 -107 -66 -180.5t-174 -99.5l-166 -316h-168z" />
    <glyph glyph-name="Scaron" unicode="&#x160;" horiz-adv-x="1081" 
d="M532 -20q-81 0 -153.5 21.5t-128 59.5t-96 79t-74.5 91l104 101q63 -93 158.5 -156t210.5 -63q116 0 197 65.5t81 179.5q0 54 -19.5 98.5t-57.5 77.5t-77.5 56.5t-94.5 46.5l-209 90q-238 102 -238 334q0 91 35 163.5t94.5 117t133.5 67.5t157 23q129 0 233 -52t168 -131
l-90 -102q-129 151 -307 151q-117 0 -192.5 -57.5t-75.5 -165.5q0 -87 50 -140.5t146 -94.5l193 -82q53 -23 94 -45t83.5 -55.5t69.5 -71.5t44.5 -91.5t17.5 -115.5q0 -126 -66.5 -218.5t-168.5 -136.5t-222 -44zM483 1532l-213 297h121l156 -221l155 221h121l-213 -297
h-127z" />
    <glyph glyph-name="scaron" unicode="&#x161;" horiz-adv-x="823" 
d="M408 -20q-111 0 -206.5 46t-150.5 124l80 102q129 -146 281 -146q87 0 145.5 36t58.5 112q0 57 -46 96.5t-150 73.5l-39 12q-146 47 -212.5 110.5t-66.5 164.5q0 84 46.5 146.5t116.5 92t151 29.5q97 0 178 -31.5t137 -81.5l-74 -102q-105 88 -241 88q-79 0 -124.5 -31
t-45.5 -96q0 -59 53 -94t152 -68l34 -12q144 -50 209.5 -112.5t65.5 -166.5q0 -135 -99.5 -213.5t-252.5 -78.5zM352 1116l-202 297h118l144 -215l143 215h119l-203 -297h-119z" />
    <glyph glyph-name="uni0162" unicode="&#x162;" horiz-adv-x="1011" 
d="M430 0v1278h-412v135h975v-135h-409v-1278h-154zM356 -410l88 299h150l-129 -299h-109z" />
    <glyph glyph-name="uni0163" unicode="&#x163;" horiz-adv-x="618" 
d="M410 -20q-130 0 -180 86.5t-50 269.5v495h-143v127h143v297h152v-297h237v-127h-237v-507q0 -125 26.5 -169t100.5 -44q51 0 108 22l8 -123q-67 -30 -165 -30zM236 -410l88 299h149l-129 -299h-108z" />
    <glyph glyph-name="Tcaron" unicode="&#x164;" horiz-adv-x="1011" 
d="M430 0v1278h-412v135h975v-135h-409v-1278h-154zM442 1532l-213 297h121l156 -221l156 221h120l-213 -297h-127z" />
    <glyph glyph-name="tcaron" unicode="&#x165;" horiz-adv-x="622" 
d="M410 -20q-130 0 -180 86.5t-50 269.5v495h-143v127h143v297h152v-297h237v-127h-237v-507q0 -125 26.5 -169t100.5 -44q51 0 108 22l8 -123q-67 -30 -165 -30zM496 1053l129 413h161l-172 -413h-118z" />
    <glyph glyph-name="Tbar" unicode="&#x166;" horiz-adv-x="1011" 
d="M428 0v741h-223v121h223v420h-410v131h975v-131h-411v-420h225v-121h-225v-741h-154z" />
    <glyph glyph-name="tbar" unicode="&#x167;" horiz-adv-x="618" 
d="M410 -20q-130 0 -180 86.5t-50 269.5v196h-131v123h131v176h-143v127h143v297h152v-297h237v-127h-237v-176h221v-123h-221v-208q0 -125 26.5 -169t100.5 -44q51 0 108 22l8 -123q-67 -30 -165 -30z" />
    <glyph glyph-name="Utilde" unicode="&#x168;" horiz-adv-x="1347" 
d="M674 -23q-267 0 -393.5 144t-126.5 407v885h153v-889q0 -201 96.5 -306t270.5 -105t270 105t96 306v889h154v-885q0 -263 -126.5 -407t-393.5 -144zM807 1579q-45 0 -94.5 24t-94 48t-77.5 24q-39 0 -63 -26t-29 -62l-89 17q6 75 57.5 123.5t123.5 48.5q45 0 94 -24
t93.5 -47.5t78.5 -23.5q39 0 63 26.5t27 61.5l90 -18q-6 -75 -57 -123.5t-123 -48.5z" />
    <glyph glyph-name="utilde" unicode="&#x169;" horiz-adv-x="1075" 
d="M459 -20q-92 0 -157 30t-100.5 86.5t-51 124.5t-15.5 156v581h152v-571q0 -276 215 -276q61 0 110.5 22.5t80 57.5t51 81.5t28.5 90.5t8 88v507h152v-958h-150v156q-43 -86 -128 -131t-195 -45zM666 1171q-43 0 -92.5 23.5t-94 47.5t-76.5 24q-37 0 -60 -24.5t-28 -59.5
l-86 24q6 75 57 124.5t122 49.5q43 0 91.5 -23.5t93 -47t77.5 -23.5q38 0 60.5 24.5t25.5 59.5l88 -24q-6 -75 -57 -125t-121 -50z" />
    <glyph glyph-name="Umacron" unicode="&#x16a;" horiz-adv-x="1347" 
d="M674 -23q-267 0 -393.5 144t-126.5 407v885h153v-889q0 -201 96.5 -306t270.5 -105t270 105t96 306v889h154v-885q0 -263 -126.5 -407t-393.5 -144zM414 1589v99h520v-99h-520z" />
    <glyph glyph-name="umacron" unicode="&#x16b;" horiz-adv-x="1075" 
d="M459 -20q-92 0 -157 30t-100.5 86.5t-51 124.5t-15.5 156v581h152v-571q0 -276 215 -276q61 0 110.5 22.5t80 57.5t51 81.5t28.5 90.5t8 88v507h152v-958h-150v156q-43 -86 -128 -131t-195 -45zM295 1194v96h483v-96h-483z" />
    <glyph glyph-name="Ubreve" unicode="&#x16c;" horiz-adv-x="1347" 
d="M674 -23q-267 0 -393.5 144t-126.5 407v885h153v-889q0 -201 96.5 -306t270.5 -105t270 105t96 306v889h154v-885q0 -263 -126.5 -407t-393.5 -144zM674 1546q-124 0 -198.5 69.5t-82.5 190.5h94q14 -79 61.5 -122.5t125.5 -43.5t125 43.5t61 122.5h94
q-8 -121 -82 -190.5t-198 -69.5z" />
    <glyph glyph-name="ubreve" unicode="&#x16d;" horiz-adv-x="1075" 
d="M459 -20q-92 0 -157 30t-100.5 86.5t-51 124.5t-15.5 156v581h152v-571q0 -276 215 -276q61 0 110.5 22.5t80 57.5t51 81.5t28.5 90.5t8 88v507h152v-958h-150v156q-43 -86 -128 -131t-195 -45zM537 1124q-124 0 -196 71t-81 200h90q14 -80 61.5 -123t125.5 -43
q158 0 186 166h90q-9 -130 -80 -200.5t-196 -70.5z" />
    <glyph glyph-name="Uring" unicode="&#x16e;" horiz-adv-x="1347" 
d="M674 -23q-267 0 -393.5 144t-126.5 407v885h153v-889q0 -201 96.5 -306t270.5 -105t270 105t96 306v889h154v-885q0 -263 -126.5 -407t-393.5 -144zM674 1511q-85 0 -145 53.5t-60 129.5q0 77 60 129.5t145 52.5t145 -52.5t60 -129.5q0 -76 -60 -129.5t-145 -53.5z
M674 1585q49 0 80.5 31.5t31.5 77.5t-31.5 77t-80.5 31t-81 -31t-32 -77t32 -77.5t81 -31.5z" />
    <glyph glyph-name="uring" unicode="&#x16f;" horiz-adv-x="1075" 
d="M459 -20q-92 0 -157 30t-100.5 86.5t-51 124.5t-15.5 156v581h152v-571q0 -276 215 -276q61 0 110.5 22.5t80 57.5t51 81.5t28.5 90.5t8 88v507h152v-958h-150v156q-43 -86 -128 -131t-195 -45zM537 1114q-84 0 -142.5 54t-58.5 135t58.5 134.5t142.5 53.5t142 -53.5
t58 -134.5t-58 -135t-142 -54zM537 1192q46 0 76 32t30 79t-29.5 78.5t-76.5 31.5t-77 -32t-30 -78q0 -47 30 -79t77 -32z" />
    <glyph glyph-name="Uhungarumlaut" unicode="&#x170;" horiz-adv-x="1347" 
d="M674 -23q-267 0 -393.5 144t-126.5 407v885h153v-889q0 -201 96.5 -306t270.5 -105t270 105t96 306v889h154v-885q0 -263 -126.5 -407t-393.5 -144zM758 1532l209 297h163l-249 -297h-123zM424 1532l209 297h164l-250 -297h-123z" />
    <glyph glyph-name="uhungarumlaut" unicode="&#x171;" horiz-adv-x="1075" 
d="M459 -20q-92 0 -157 30t-100.5 86.5t-51 124.5t-15.5 156v581h152v-571q0 -276 215 -276q61 0 110.5 22.5t80 57.5t51 81.5t28.5 90.5t8 88v507h152v-958h-150v156q-43 -86 -128 -131t-195 -45zM604 1116l193 297h157l-231 -297h-119zM324 1116l192 297h158l-232 -297
h-118z" />
    <glyph glyph-name="Uogonek" unicode="&#x172;" horiz-adv-x="1347" 
d="M674 -23q-267 0 -393.5 144t-126.5 407v885h153v-889q0 -201 96.5 -306t270.5 -105t270 105t96 306v889h154v-885q0 -214 -84.5 -350.5t-259.5 -179.5q-83 -38 -128.5 -96.5t-45.5 -114.5q0 -53 34 -78.5t87 -25.5q76 0 143 45l31 -58q-86 -80 -211 -80
q-96 0 -149.5 44.5t-53.5 125.5q0 126 135 217h-18z" />
    <glyph glyph-name="uogonek" unicode="&#x173;" horiz-adv-x="1075" 
d="M459 -20q-92 0 -157 30t-100.5 86.5t-51 124.5t-15.5 156v581h152v-571q0 -276 215 -276q61 0 110.5 22.5t80 57.5t51 81.5t28.5 90.5t8 88v507h152v-958h-23q-86 -38 -133 -97t-47 -116q0 -53 34 -78.5t87 -25.5q76 0 143 45l31 -58q-86 -80 -211 -80q-96 0 -149.5 44.5
t-53.5 125.5q0 73 46.5 135t125.5 105v156q-43 -86 -128 -131t-195 -45z" />
    <glyph glyph-name="Wcircumflex" unicode="&#x174;" horiz-adv-x="1884" 
d="M420 -2l-402 1415h158l330 -1186l352 1186h168l352 -1182l330 1182h158l-402 -1415h-164l-358 1186l-358 -1186h-164zM666 1532l213 297h127l213 -297h-121l-156 221l-156 -221h-120z" />
    <glyph glyph-name="wcircumflex" unicode="&#x175;" horiz-adv-x="1536" 
d="M334 0l-309 958h157l242 -761l283 764h122l283 -764l242 761h157l-309 -958h-151l-283 758l-283 -758h-151zM506 1116l203 297h118l203 -297h-119l-143 215l-143 -215h-119z" />
    <glyph glyph-name="Ycircumflex" unicode="&#x176;" 
d="M500 0v598l-492 815h174l393 -678l396 678h176l-494 -815v-598h-153zM301 1532l213 297h127l213 -297h-121l-155 221l-156 -221h-121z" />
    <glyph glyph-name="ycircumflex" unicode="&#x177;" horiz-adv-x="946" 
d="M209 -399q-65 0 -131 32l31 125q50 -26 98 -26q46 0 73 26.5t66 114.5l55 127l-393 958h162l309 -784l297 784h162l-469 -1134q-53 -125 -115 -174t-145 -49zM211 1116l203 297h118l203 -297h-119l-143 215l-143 -215h-119z" />
    <glyph glyph-name="Ydieresis" unicode="&#x178;" 
d="M500 0v598l-492 815h174l393 -678l396 678h176l-494 -815v-598h-153zM745 1571q-40 0 -69 28t-29 72q0 45 29 73t69 28t69.5 -28t29.5 -73q0 -44 -29.5 -72t-69.5 -28zM408 1571q-39 0 -68 28t-29 72q0 45 29 73t68 28q43 0 71.5 -27.5t28.5 -73.5q0 -45 -29 -72.5
t-71 -27.5z" />
    <glyph glyph-name="Zacute" unicode="&#x179;" horiz-adv-x="1134" 
d="M61 0v121l807 1157h-784v135h979v-104l-823 -1174h833v-135h-1012zM424 1532l211 297h166l-252 -297h-125z" />
    <glyph glyph-name="zacute" unicode="&#x17a;" horiz-adv-x="905" 
d="M47 0v98l586 733h-557v127h751v-98l-585 -733h616v-127h-811zM303 1116l189 297h159l-229 -297h-119z" />
    <glyph glyph-name="Zdotaccent" unicode="&#x17b;" horiz-adv-x="1134" 
d="M61 0v121l807 1157h-784v135h979v-104l-823 -1174h833v-135h-1012zM555 1571q-40 0 -69 28t-29 72q0 45 29 73t69 28t69 -28t29 -73q0 -44 -29 -72t-69 -28z" />
    <glyph glyph-name="zdotaccent" unicode="&#x17c;" horiz-adv-x="905" 
d="M47 0v98l586 733h-557v127h751v-98l-585 -733h616v-127h-811zM434 1163q-39 0 -67.5 29t-28.5 72q0 46 28 73t68 27t68 -27t28 -73q0 -43 -28.5 -72t-67.5 -29z" />
    <glyph glyph-name="Zcaron" unicode="&#x17d;" horiz-adv-x="1134" 
d="M61 0v121l807 1157h-784v135h979v-104l-823 -1174h833v-135h-1012zM492 1532l-213 297h120l156 -221l156 221h120l-213 -297h-126z" />
    <glyph glyph-name="zcaron" unicode="&#x17e;" horiz-adv-x="905" 
d="M47 0v98l586 733h-557v127h751v-98l-585 -733h616v-127h-811zM375 1116l-203 297h119l143 -215l144 215h118l-202 -297h-119z" />
    <glyph glyph-name="uni018F" unicode="&#x18f;" horiz-adv-x="1507" 
d="M731 -23q-291 0 -470 207.5t-179 544.5q0 20 2 43h1184q-10 111 -54 207.5t-114.5 167.5t-170 112t-214.5 41q-152 0 -288 -67t-212 -154l-80 117q111 106 257 173t319 67q203 0 366.5 -95t255.5 -262.5t92 -373.5q0 -154 -53.5 -289t-145 -231.5t-220.5 -152t-275 -55.5
zM244 637q23 -240 155.5 -382t333.5 -142q146 0 264 73t185.5 191t83.5 260h-1022z" />
    <glyph glyph-name="florin" unicode="&#x192;" horiz-adv-x="1085" 
d="M170 -246q-46 0 -96.5 14t-77.5 33l49 113q73 -33 117 -33q66 0 101.5 50.5t60.5 179.5l114 602h-188l20 127h191l55 282q29 151 104 240.5t193 89.5q58 0 105.5 -15.5t70.5 -35.5l-47 -115q-57 39 -123 39q-61 0 -94.5 -51t-56.5 -164l-54 -270h228l-21 -127h-229
l-115 -604q-34 -180 -105 -267.5t-202 -87.5z" />
    <glyph glyph-name="uni019D" unicode="&#x19d;" horiz-adv-x="1507" 
d="M39 -393q-31 0 -59.5 4t-41.5 8l-12 4v123q44 -14 92 -14q40 0 68.5 15.5t43.5 37t23.5 58.5t10.5 67t2 74v1429h158l864 -1165v334v831h153v-1413h-147l-877 1182l2 -498v-702q0 -375 -280 -375z" />
    <glyph glyph-name="Ohorn" unicode="&#x1a0;" horiz-adv-x="1609" 
d="M805 -23q-146 0 -277 51t-230.5 143.5t-157.5 231.5t-58 304t58.5 303.5t157.5 231t230 143.5t277 51q92 0 186 -23q144 0 144 98q0 84 -52 154h146q47 -71 47 -152q0 -137 -80 -184q154 -94 243 -254t89 -368q0 -166 -58 -304.5t-157 -231t-230 -143.5t-278 -51z
M805 113q115 0 217.5 41.5t180 117t122.5 188.5t45 249t-45 248.5t-122.5 186.5t-180 115t-217.5 41t-217 -40.5t-179.5 -114.5t-123 -187t-45.5 -249q0 -180 78.5 -317.5t206 -208t280.5 -70.5z" />
    <glyph glyph-name="ohorn" unicode="&#x1a1;" 
d="M575 -20q-213 0 -356 139t-143 358q0 144 66 259t180 179t253 64q77 0 150 -21q139 0 139 99q0 84 -51 153h145q48 -73 48 -151q0 -153 -101 -195q82 -69 128 -168.5t46 -218.5q0 -218 -144.5 -357.5t-359.5 -139.5zM575 111q158 0 253.5 105t95.5 263q0 159 -95.5 264
t-253.5 105q-156 0 -250 -105t-94 -264q0 -158 94 -263t250 -105z" />
    <glyph glyph-name="Uhorn" unicode="&#x1af;" horiz-adv-x="1347" 
d="M674 -23q-267 0 -393.5 144t-126.5 407v885h153v-889q0 -201 96.5 -306t270.5 -105t270 105t96 306v889h68q82 0 112.5 26.5t30.5 71.5q0 85 -51 154h146q47 -71 47 -152q0 -102 -45.5 -156.5t-153.5 -58.5v-770q0 -263 -126.5 -407t-393.5 -144z" />
    <glyph glyph-name="uhorn" unicode="&#x1b0;" horiz-adv-x="1075" 
d="M459 -20q-92 0 -157 30t-100.5 86.5t-51 124.5t-15.5 156v581h152v-571q0 -276 215 -276q61 0 110.5 22.5t80 57.5t51 81.5t28.5 90.5t8 88v507h45q144 0 144 99q0 84 -51 153h145q47 -71 47 -151q0 -97 -41 -150.5t-137 -62.5v-846h-150v156q-43 -86 -128 -131t-195 -45
z" />
    <glyph glyph-name="uni01CD" unicode="&#x1cd;" horiz-adv-x="1310" 
d="M10 0l588 1417h115l587 -1417h-163l-158 395h-647l-158 -395h-164zM383 528h545l-273 680zM592 1532l-213 297h121l155 -221l156 221h121l-213 -297h-127z" />
    <glyph glyph-name="uni01CE" unicode="&#x1ce;" horiz-adv-x="993" 
d="M391 -20q-140 0 -235 81.5t-95 210.5q0 128 96.5 207t286.5 88l263 13v34q0 116 -70.5 175t-185.5 59q-79 0 -156 -28t-127 -64l-53 129q160 94 342 94q205 0 303 -103t98 -313v-563h-149v121q-40 -52 -124 -96.5t-194 -44.5zM420 106q89 0 167.5 46.5t119.5 101.5v207
l-250 -12q-242 -11 -242 -175q0 -73 57 -120.5t148 -47.5zM403 1116l-202 297h118l144 -215l143 215h119l-203 -297h-119z" />
    <glyph glyph-name="uni01CF" unicode="&#x1cf;" horiz-adv-x="485" 
d="M166 0v1413h153v-1413h-153zM180 1532l-213 297h121l156 -221l155 221h121l-213 -297h-127z" />
    <glyph glyph-name="uni01D0" unicode="&#x1d0;" horiz-adv-x="458" 
d="M170 1116l-176 297h112l123 -217l123 217h113l-176 -297h-119zM154 0v958h151v-958h-151z" />
    <glyph glyph-name="uni01D1" unicode="&#x1d1;" horiz-adv-x="1609" 
d="M805 -23q-146 0 -277 51t-230.5 143.5t-157.5 231.5t-58 304t58.5 303.5t157.5 231t230 143.5t277 51q145 0 276 -51t230.5 -143.5t158 -231t58.5 -303.5q0 -166 -58 -304.5t-157 -231t-230 -143.5t-278 -51zM805 113q115 0 217.5 41.5t180 117t122.5 188.5t45 249
t-45 248.5t-122.5 186.5t-180 115t-217.5 41t-217 -40.5t-179.5 -114.5t-123 -187t-45.5 -249q0 -180 78.5 -317.5t206 -208t280.5 -70.5zM741 1532l-213 297h121l156 -221l156 221h120l-213 -297h-127z" />
    <glyph glyph-name="uni01D2" unicode="&#x1d2;" 
d="M575 -20q-213 0 -356 139t-143 358q0 144 66 259t180 179t253 64q214 0 359 -142t145 -360t-144.5 -357.5t-359.5 -139.5zM575 111q158 0 253.5 105t95.5 263q0 159 -95.5 264t-253.5 105q-156 0 -250 -105t-94 -264q0 -158 94 -263t250 -105zM518 1116l-203 297h119
l144 -215l143 215h119l-203 -297h-119z" />
    <glyph glyph-name="uni01D3" unicode="&#x1d3;" horiz-adv-x="1347" 
d="M674 -23q-267 0 -393.5 144t-126.5 407v885h153v-889q0 -201 96.5 -306t270.5 -105t270 105t96 306v889h154v-885q0 -263 -126.5 -407t-393.5 -144zM610 1532l-213 297h121l156 -221l155 221h121l-213 -297h-127z" />
    <glyph glyph-name="uni01D4" unicode="&#x1d4;" horiz-adv-x="1075" 
d="M459 -20q-92 0 -157 30t-100.5 86.5t-51 124.5t-15.5 156v581h152v-571q0 -276 215 -276q61 0 110.5 22.5t80 57.5t51 81.5t28.5 90.5t8 88v507h152v-958h-150v156q-43 -86 -128 -131t-195 -45zM477 1116l-203 297h119l144 -215l143 215h119l-203 -297h-119z" />
    <glyph glyph-name="uni01D5" unicode="&#x1d5;" horiz-adv-x="1347" 
d="M674 -23q-267 0 -393.5 144t-126.5 407v885h153v-889q0 -201 96.5 -306t270.5 -105t270 105t96 306v889h154v-885q0 -263 -126.5 -407t-393.5 -144zM432 1903v96h483v-96h-483zM842 1571q-40 0 -69.5 28t-29.5 72q0 45 29.5 73t69.5 28t69 -28t29 -73q0 -44 -29 -72
t-69 -28zM506 1571q-39 0 -68.5 28t-29.5 72q0 45 29.5 73t68.5 28q42 0 70 -27.5t28 -73.5q0 -45 -28 -72.5t-70 -27.5z" />
    <glyph glyph-name="uni01D6" unicode="&#x1d6;" horiz-adv-x="1075" 
d="M459 -20q-92 0 -157 30t-100.5 86.5t-51 124.5t-15.5 156v581h152v-571q0 -276 215 -276q61 0 110.5 22.5t80 57.5t51 81.5t28.5 90.5t8 88v507h152v-958h-150v156q-43 -86 -128 -131t-195 -45zM375 1163q-39 0 -67.5 29t-28.5 72q0 46 28 73t68 27t68 -27t28 -73
q0 -43 -28.5 -72t-67.5 -29zM698 1163q-39 0 -67.5 29t-28.5 72q0 46 28 73t68 27t68.5 -27.5t28.5 -72.5q0 -43 -29 -72t-68 -29zM295 1497v96h483v-96h-483z" />
    <glyph glyph-name="uni01D7" unicode="&#x1d7;" horiz-adv-x="1347" 
d="M674 -23q-267 0 -393.5 144t-126.5 407v885h153v-889q0 -201 96.5 -306t270.5 -105t270 105t96 306v889h154v-885q0 -263 -126.5 -407t-393.5 -144zM616 1796l148 236h143l-188 -236h-103zM506 1571q-39 0 -68.5 28t-29.5 72q0 45 29.5 73t68.5 28q42 0 70 -27.5
t28 -73.5q0 -45 -28 -72.5t-70 -27.5zM842 1571q-40 0 -69.5 28t-29.5 72q0 45 29.5 73t69.5 28t69 -28t29 -73q0 -44 -29 -72t-69 -28z" />
    <glyph glyph-name="uni01D8" unicode="&#x1d8;" horiz-adv-x="1075" 
d="M459 -20q-92 0 -157 30t-100.5 86.5t-51 124.5t-15.5 156v581h152v-571q0 -276 215 -276q61 0 110.5 22.5t80 57.5t51 81.5t28.5 90.5t8 88v507h152v-958h-150v156q-43 -86 -128 -131t-195 -45zM481 1389l148 235h143l-188 -235h-103zM375 1163q-39 0 -67.5 29t-28.5 72
q0 46 28 73t68 27t68 -27t28 -73q0 -43 -28.5 -72t-67.5 -29zM698 1163q-39 0 -67.5 29t-28.5 72q0 46 28 73t68 27t68.5 -27.5t28.5 -72.5q0 -43 -29 -72t-68 -29z" />
    <glyph glyph-name="uni01D9" unicode="&#x1d9;" horiz-adv-x="1347" 
d="M674 -23q-267 0 -393.5 144t-126.5 407v885h153v-889q0 -201 96.5 -306t270.5 -105t270 105t96 306v889h154v-885q0 -263 -126.5 -407t-393.5 -144zM997 2032l-264 -236h-119l-264 236h139l185 -154l184 154h139zM842 1571q-40 0 -69.5 28t-29.5 72q0 45 29.5 73t69.5 28
t69 -28t29 -73q0 -44 -29 -72t-69 -28zM506 1571q-39 0 -68.5 28t-29.5 72q0 45 29.5 73t68.5 28q42 0 70 -27.5t28 -73.5q0 -45 -28 -72.5t-70 -27.5z" />
    <glyph glyph-name="uni01DA" unicode="&#x1da;" horiz-adv-x="1075" 
d="M459 -20q-92 0 -157 30t-100.5 86.5t-51 124.5t-15.5 156v581h152v-571q0 -276 215 -276q61 0 110.5 22.5t80 57.5t51 81.5t28.5 90.5t8 88v507h152v-958h-150v156q-43 -86 -128 -131t-195 -45zM375 1163q-39 0 -67.5 29t-28.5 72q0 46 28 73t68 27t68 -27t28 -73
q0 -43 -28.5 -72t-67.5 -29zM698 1163q-39 0 -67.5 29t-28.5 72q0 46 28 73t68 27t68.5 -27.5t28.5 -72.5q0 -43 -29 -72t-68 -29zM860 1624l-264 -235h-119l-264 235h139l185 -154l184 154h139z" />
    <glyph glyph-name="uni01DB" unicode="&#x1db;" horiz-adv-x="1347" 
d="M674 -23q-267 0 -393.5 144t-126.5 407v885h153v-889q0 -201 96.5 -306t270.5 -105t270 105t96 306v889h154v-885q0 -263 -126.5 -407t-393.5 -144zM643 1796l-188 236h143l147 -236h-102zM842 1571q-40 0 -69.5 28t-29.5 72q0 45 29.5 73t69.5 28t69 -28t29 -73
q0 -44 -29 -72t-69 -28zM506 1571q-39 0 -68.5 28t-29.5 72q0 45 29.5 73t68.5 28q42 0 70 -27.5t28 -73.5q0 -45 -28 -72.5t-70 -27.5z" />
    <glyph glyph-name="uni01DC" unicode="&#x1dc;" horiz-adv-x="1075" 
d="M459 -20q-92 0 -157 30t-100.5 86.5t-51 124.5t-15.5 156v581h152v-571q0 -276 215 -276q61 0 110.5 22.5t80 57.5t51 81.5t28.5 90.5t8 88v507h152v-958h-150v156q-43 -86 -128 -131t-195 -45zM608 1389h-102l-189 235h144zM375 1163q-39 0 -67.5 29t-28.5 72
q0 46 28 73t68 27t68 -27t28 -73q0 -43 -28.5 -72t-67.5 -29zM698 1163q-39 0 -67.5 29t-28.5 72q0 46 28 73t68 27t68.5 -27.5t28.5 -72.5q0 -43 -29 -72t-68 -29z" />
    <glyph glyph-name="uni01DE" unicode="&#x1de;" horiz-adv-x="1310" 
d="M10 0l588 1417h115l587 -1417h-163l-158 395h-647l-158 -395h-164zM383 528h545l-273 680zM414 1903v96h483v-96h-483zM823 1571q-40 0 -69 28t-29 72q0 45 29 73t69 28t69.5 -28t29.5 -73q0 -44 -29.5 -72t-69.5 -28zM487 1571q-39 0 -68.5 28t-29.5 72q0 45 29.5 73
t68.5 28q42 0 70.5 -27.5t28.5 -73.5q0 -45 -28.5 -72.5t-70.5 -27.5z" />
    <glyph glyph-name="uni01DF" unicode="&#x1df;" horiz-adv-x="993" 
d="M391 -20q-140 0 -235 81.5t-95 210.5q0 128 96.5 207t286.5 88l263 13v34q0 116 -70.5 175t-185.5 59q-79 0 -156 -28t-127 -64l-53 129q160 94 342 94q205 0 303 -103t98 -313v-563h-149v121q-40 -52 -124 -96.5t-194 -44.5zM420 106q89 0 167.5 46.5t119.5 101.5v207
l-250 -12q-242 -11 -242 -175q0 -73 57 -120.5t148 -47.5zM301 1163q-39 0 -67.5 29t-28.5 72q0 46 28 73t68 27t68 -27t28 -73q0 -43 -28.5 -72t-67.5 -29zM625 1163q-39 0 -68 29t-29 72q0 45 28.5 72.5t68.5 27.5t68 -27t28 -73q0 -43 -28.5 -72t-67.5 -29zM221 1497v96
h484v-96h-484z" />
    <glyph glyph-name="Gcaron" unicode="&#x1e6;" horiz-adv-x="1511" 
d="M817 -23q-217 0 -384 90t-259 254.5t-92 378.5q0 216 93 384t258 260t374 92q183 0 322.5 -69.5t232.5 -176.5l-105 -105q-181 215 -458 215q-118 0 -220.5 -41.5t-177.5 -117t-118 -187.5t-43 -247q0 -273 163.5 -433.5t425.5 -160.5q121 0 230 35.5t180 103.5v350h-405
v135h557v-536q-91 -106 -245.5 -165t-328.5 -59zM723 1532l-213 297h121l155 -221l156 221h121l-213 -297h-127z" />
    <glyph glyph-name="gcaron" unicode="&#x1e7;" horiz-adv-x="1187" 
d="M526 -410q-216 0 -411 146l75 110q178 -125 345 -125q358 0 358 410v57q-55 -83 -148.5 -132.5t-214.5 -49.5q-204 0 -329 134.5t-125 342.5q0 214 130.5 355t332.5 141q111 0 207 -45.5t149 -136.5v159h149v-811q0 -260 -134 -407.5t-384 -147.5zM559 137
q151 0 245.5 103t94.5 258q0 149 -88.5 249.5t-243.5 100.5q-154 0 -245 -100.5t-91 -253.5q0 -154 89.5 -255.5t238.5 -101.5zM514 1116l-203 297h119l143 -215l144 215h119l-203 -297h-119z" />
    <glyph glyph-name="uni01EA" unicode="&#x1ea;" horiz-adv-x="1609" 
d="M805 113q115 0 217.5 41.5t180 117t122.5 188.5t45 249t-45 248.5t-122.5 186.5t-180 115t-217.5 41t-217 -40.5t-179.5 -114.5t-123 -187t-45.5 -249q0 -180 78.5 -317.5t206 -208t280.5 -70.5zM819 -410q-96 0 -149.5 44.5t-53.5 125.5q0 130 138 220q-137 9 -259 63.5
t-214 146t-145.5 225.5t-53.5 292q0 165 58.5 303.5t157.5 231t230 143.5t277 51q145 0 276 -51t230.5 -143.5t158 -231t58.5 -303.5q0 -155 -51.5 -287t-140 -223.5t-206.5 -147t-253 -67.5q-67 -38 -104.5 -92t-37.5 -103q0 -53 34 -78.5t87 -25.5q76 0 143 45l31 -58
q-86 -80 -211 -80z" />
    <glyph glyph-name="uni01EB" unicode="&#x1eb;" 
d="M575 111q158 0 253.5 105t95.5 263q0 159 -95.5 264t-253.5 105q-156 0 -250 -105t-94 -264q0 -158 94 -263t250 -105zM592 -410q-96 0 -149.5 44.5t-53.5 125.5q0 132 139 222q-195 15 -323.5 152t-128.5 343q0 144 66 259t180 179t253 64q214 0 359 -142t145 -360
q0 -196 -118 -330t-302 -161q-74 -40 -112.5 -93.5t-38.5 -105.5q0 -53 34 -78.5t87 -25.5q76 0 143 45l31 -58q-86 -80 -211 -80z" />
    <glyph glyph-name="AEacute" unicode="&#x1fc;" horiz-adv-x="1761" 
d="M-49 0l876 1413h824v-135h-586v-459h551v-135h-551v-549h602v-135h-756v399h-542l-246 -399h-172zM449 535h462v749h-6zM1159 1532l211 297h166l-252 -297h-125z" />
    <glyph glyph-name="aeacute" unicode="&#x1fd;" horiz-adv-x="1695" 
d="M391 -20q-140 0 -235 81.5t-95 210.5q0 128 96.5 207t286.5 88l263 13v38q0 116 -70.5 174t-185.5 58q-93 0 -171 -27t-114 -51l-51 113q160 94 342 94q263 0 348 -174q63 82 157.5 128t211.5 46q197 0 321.5 -128t124.5 -327q0 -40 -6 -88h-760q5 -145 98 -236t246 -91
q179 0 324 124l67 -96q-67 -74 -175 -115.5t-240 -41.5q-126 0 -225 49.5t-161 142.5q-80 -95 -173.5 -143.5t-223.5 -48.5zM420 106q94 0 169.5 42t145.5 131q-30 93 -33 182l-245 -12q-242 -11 -242 -175q0 -73 57 -120.5t148 -47.5zM1468 559q0 53 -18 103t-53 93
t-94.5 69t-135.5 26q-131 0 -216.5 -86t-94.5 -205h612zM748 1116l188 297h160l-230 -297h-118z" />
    <glyph glyph-name="Oslashacute" unicode="&#x1fe;" horiz-adv-x="1609" 
d="M805 -23q-269 0 -467 160l-162 -164l-94 95l160 163q-160 194 -160 476q0 165 58.5 303.5t157.5 231t230 143.5t277 51q269 0 467 -160l162 164l94 -94l-162 -164q162 -196 162 -475q0 -166 -58 -304.5t-157 -231t-230 -143.5t-278 -51zM805 115q115 0 217.5 41t180 116
t122.5 188t45 249q0 217 -108 366l-822 -831q154 -129 365 -129zM674 1532l211 297h166l-252 -297h-125zM240 709q0 -218 110 -369l819 831q-152 127 -364 127q-115 0 -217 -40t-179.5 -114t-123 -186.5t-45.5 -248.5z" />
    <glyph glyph-name="oslashacute" unicode="&#x1ff;" 
d="M575 -20q-180 0 -313 100l-121 -121l-92 88l125 125q-98 132 -98 305q0 144 66 259t180 179t253 64q179 0 312 -100l121 120l92 -88l-123 -123q102 -133 102 -311q0 -218 -144.5 -357.5t-359.5 -139.5zM575 111q158 0 253.5 105t95.5 263q0 115 -52 205l-510 -504
q87 -69 213 -69zM444 1116l189 297h160l-230 -297h-119zM231 479q0 -111 50 -200l507 501q-90 68 -213 68q-156 0 -250 -105t-94 -264z" />
    <glyph glyph-name="uni0218" unicode="&#x218;" horiz-adv-x="1081" 
d="M532 -20q-81 0 -153.5 21.5t-128 59.5t-96 79t-74.5 91l104 101q63 -93 158.5 -156t210.5 -63q116 0 197 65.5t81 179.5q0 54 -19.5 98.5t-57.5 77.5t-77.5 56.5t-94.5 46.5l-209 90q-238 102 -238 334q0 91 35 163.5t94.5 117t133.5 67.5t157 23q129 0 233 -52t168 -131
l-90 -102q-129 151 -307 151q-117 0 -192.5 -57.5t-75.5 -165.5q0 -87 50 -140.5t146 -94.5l193 -82q53 -23 94 -45t83.5 -55.5t69.5 -71.5t44.5 -91.5t17.5 -115.5q0 -126 -66.5 -218.5t-168.5 -136.5t-222 -44zM395 -410l88 299h150l-129 -299h-109z" />
    <glyph glyph-name="uni0219" unicode="&#x219;" horiz-adv-x="823" 
d="M408 -20q-111 0 -206.5 46t-150.5 124l80 102q129 -146 281 -146q87 0 145.5 36t58.5 112q0 57 -46 96.5t-150 73.5l-39 12q-146 47 -212.5 110.5t-66.5 164.5q0 84 46.5 146.5t116.5 92t151 29.5q97 0 178 -31.5t137 -81.5l-74 -102q-105 88 -241 88q-79 0 -124.5 -31
t-45.5 -96q0 -59 53 -94t152 -68l34 -12q144 -50 209.5 -112.5t65.5 -166.5q0 -135 -99.5 -213.5t-252.5 -78.5zM258 -410l88 299h150l-129 -299h-109z" />
    <glyph glyph-name="uni021A" unicode="&#x21a;" horiz-adv-x="1011" 
d="M430 0v1278h-412v135h975v-135h-409v-1278h-154zM356 -410l88 299h150l-129 -299h-109z" />
    <glyph glyph-name="uni021B" unicode="&#x21b;" horiz-adv-x="618" 
d="M410 -20q-130 0 -180 86.5t-50 269.5v495h-143v127h143v297h152v-297h237v-127h-237v-507q0 -125 26.5 -169t100.5 -44q51 0 108 22l8 -123q-67 -30 -165 -30zM236 -410l88 299h149l-129 -299h-108z" />
    <glyph glyph-name="uni022A" unicode="&#x22a;" horiz-adv-x="1609" 
d="M805 -23q-146 0 -277 51t-230.5 143.5t-157.5 231.5t-58 304t58.5 303.5t157.5 231t230 143.5t277 51q145 0 276 -51t230.5 -143.5t158 -231t58.5 -303.5q0 -166 -58 -304.5t-157 -231t-230 -143.5t-278 -51zM805 113q115 0 217.5 41.5t180 117t122.5 188.5t45 249
t-45 248.5t-122.5 186.5t-180 115t-217.5 41t-217 -40.5t-179.5 -114.5t-123 -187t-45.5 -249q0 -180 78.5 -317.5t206 -208t280.5 -70.5zM563 1903v96h484v-96h-484zM973 1571q-40 0 -69.5 28t-29.5 72q0 45 29.5 73t69.5 28t69 -28t29 -73q0 -44 -29 -72t-69 -28z
M637 1571q-39 0 -68.5 28t-29.5 72q0 45 29.5 73t68.5 28q42 0 70 -27.5t28 -73.5q0 -45 -28 -72.5t-70 -27.5z" />
    <glyph glyph-name="uni022B" unicode="&#x22b;" 
d="M575 -20q-213 0 -356 139t-143 358q0 144 66 259t180 179t253 64q214 0 359 -142t145 -360t-144.5 -357.5t-359.5 -139.5zM575 111q158 0 253.5 105t95.5 263q0 159 -95.5 264t-253.5 105q-156 0 -250 -105t-94 -264q0 -158 94 -263t250 -105zM416 1163q-39 0 -68 29
t-29 72q0 45 28.5 72.5t68.5 27.5t68 -27t28 -73q0 -43 -28.5 -72t-67.5 -29zM739 1163q-39 0 -67.5 29t-28.5 72q0 46 28 73t68 27t68.5 -27.5t28.5 -72.5q0 -43 -29 -72t-68 -29zM336 1497v96h483v-96h-483z" />
    <glyph glyph-name="uni0232" unicode="&#x232;" 
d="M500 0v598l-492 815h174l393 -678l396 678h176l-494 -815v-598h-153zM317 1589v99h521v-99h-521z" />
    <glyph glyph-name="uni0233" unicode="&#x233;" horiz-adv-x="946" 
d="M209 -399q-65 0 -131 32l31 125q50 -26 98 -26q46 0 73 26.5t66 114.5l55 127l-393 958h162l309 -784l297 784h162l-469 -1134q-53 -125 -115 -174t-145 -49zM231 1194v96h484v-96h-484z" />
    <glyph glyph-name="uni0237" unicode="&#x237;" horiz-adv-x="458" 
d="M18 -410q-59 0 -96 13l6 133q43 -15 66 -15q92 0 126 59.5t34 211.5v966h151v-976q0 -89 -14 -157t-46 -122.5t-89 -83.5t-138 -29z" />
    <glyph glyph-name="uni0259" unicode="&#x259;" horiz-adv-x="1073" 
d="M524 -20q-198 0 -323 126t-125 320q0 48 6 96h760q-5 143 -98.5 234.5t-245.5 91.5q-178 0 -324 -125l-68 98q64 73 171 115.5t233 42.5q121 0 216.5 -41t153 -111t87.5 -157.5t30 -186.5q0 -141 -57.5 -255t-166.5 -181t-249 -67zM522 111q138 0 223 84t95 204h-613
q0 -52 18 -102t53 -92.5t93 -68t131 -25.5z" />
    <glyph glyph-name="uni0272" unicode="&#x272;" horiz-adv-x="1075" 
d="M8 -410q-59 0 -96 13l6 133q43 -15 66 -15q92 0 125.5 59.5t33.5 211.5v966h150v-155q43 86 128 131t195 45q92 0 157 -30t100.5 -86.5t51 -124.5t15.5 -156v-582h-152v571q0 277 -215 277q-61 0 -110.5 -22.5t-80 -57.5t-51 -81.5t-28.5 -90.5t-8 -88v-526
q0 -89 -14 -157t-46 -122.5t-89 -83.5t-138 -29z" />
    <glyph glyph-name="uni02BC" unicode="&#x2bc;" horiz-adv-x="598" 
d="M137 958l129 455h162l-172 -455h-119z" />
    <glyph glyph-name="circumflex" unicode="&#x2c6;" horiz-adv-x="737" 
d="M106 1116l203 297h119l203 -297h-119l-143 215l-144 -215h-119z" />
    <glyph glyph-name="caron" unicode="&#x2c7;" horiz-adv-x="737" 
d="M309 1116l-203 297h119l144 -215l143 215h119l-203 -297h-119z" />
    <glyph glyph-name="breve" unicode="&#x2d8;" horiz-adv-x="737" 
d="M369 1124q-124 0 -196 71t-81 200h90q14 -80 61.5 -123t125.5 -43q158 0 186 166h90q-9 -130 -80 -200.5t-196 -70.5z" />
    <glyph glyph-name="dotaccent" unicode="&#x2d9;" horiz-adv-x="737" 
d="M369 1163q-39 0 -68 29t-29 72q0 45 28.5 72.5t68.5 27.5t68 -27t28 -73q0 -43 -28.5 -72t-67.5 -29z" />
    <glyph glyph-name="ring" unicode="&#x2da;" horiz-adv-x="737" 
d="M369 1114q-84 0 -142.5 54t-58.5 135t58.5 134.5t142.5 53.5t142 -53.5t58 -134.5t-58 -135t-142 -54zM369 1192q46 0 76 32t30 79t-29.5 78.5t-76.5 31.5t-77 -32t-30 -78q0 -47 30 -79t77 -32z" />
    <glyph glyph-name="ogonek" unicode="&#x2db;" horiz-adv-x="737" 
d="M383 -410q-96 0 -149.5 44.5t-53.5 125.5q0 78 51.5 142.5t139.5 107.5h108v-10q-86 -38 -133 -97t-47 -116q0 -53 34 -78.5t87 -25.5q76 0 143 45l31 -58q-86 -80 -211 -80z" />
    <glyph glyph-name="tilde" unicode="&#x2dc;" horiz-adv-x="737" 
d="M498 1171q-43 0 -92 23.5t-93.5 47.5t-76.5 24q-37 0 -60.5 -24.5t-28.5 -59.5l-86 24q6 75 57 124.5t122 49.5q43 0 91.5 -23.5t93 -47t77.5 -23.5q38 0 60.5 24.5t25.5 59.5l88 -24q-6 -75 -57 -125t-121 -50z" />
    <glyph glyph-name="hungarumlaut" unicode="&#x2dd;" horiz-adv-x="737" 
d="M436 1116l193 297h157l-231 -297h-119zM156 1116l192 297h158l-232 -297h-118z" />
    <glyph glyph-name="gravecomb" unicode="&#x300;" horiz-adv-x="0" 
d="M381 1116l-229 297h159l189 -297h-119z" />
    <glyph glyph-name="acutecomb" unicode="&#x301;" horiz-adv-x="0" 
d="M238 1116l188 297h160l-230 -297h-118z" />
    <glyph glyph-name="uni0302" unicode="&#x302;" horiz-adv-x="0" 
d="M106 1116l203 297h119l203 -297h-119l-143 215l-144 -215h-119z" />
    <glyph glyph-name="tildecomb" unicode="&#x303;" horiz-adv-x="0" 
d="M498 1171q-43 0 -92 23.5t-93.5 47.5t-76.5 24q-37 0 -60.5 -24.5t-28.5 -59.5l-86 24q6 75 57 124.5t122 49.5q43 0 91.5 -23.5t93 -47t77.5 -23.5q38 0 60.5 24.5t25.5 59.5l88 -24q-6 -75 -57 -125t-121 -50z" />
    <glyph glyph-name="uni0304" unicode="&#x304;" horiz-adv-x="0" 
d="M127 1194v96h483v-96h-483z" />
    <glyph glyph-name="uni0306" unicode="&#x306;" horiz-adv-x="0" 
d="M369 1124q-124 0 -196 71t-81 200h90q14 -80 61.5 -123t125.5 -43q158 0 186 166h90q-9 -130 -80 -200.5t-196 -70.5z" />
    <glyph glyph-name="uni0307" unicode="&#x307;" horiz-adv-x="0" 
d="M369 1163q-39 0 -68 29t-29 72q0 45 28.5 72.5t68.5 27.5t68 -27t28 -73q0 -43 -28.5 -72t-67.5 -29z" />
    <glyph glyph-name="uni0308" unicode="&#x308;" horiz-adv-x="0" 
d="M207 1163q-39 0 -67.5 29t-28.5 72q0 46 28 73t68 27t68 -27t28 -73q0 -43 -28.5 -72t-67.5 -29zM530 1163q-39 0 -67.5 29t-28.5 72q0 46 28 73t68 27t68.5 -27.5t28.5 -72.5q0 -43 -29 -72t-68 -29z" />
    <glyph glyph-name="hookabovecomb" unicode="&#x309;" horiz-adv-x="0" 
d="M395 1497q96 0 149.5 -44.5t53.5 -125.5q0 -66 -53.5 -124.5t-136.5 -84.5h-109v10q82 23 131 75.5t49 96.5q0 53 -34 79t-87 26q-76 0 -143 -45l-31 57q86 80 211 80z" />
    <glyph glyph-name="uni030A" unicode="&#x30a;" horiz-adv-x="0" 
d="M369 1114q-84 0 -142.5 54t-58.5 135t58.5 134.5t142.5 53.5t142 -53.5t58 -134.5t-58 -135t-142 -54zM369 1192q46 0 76 32t30 79t-29.5 78.5t-76.5 31.5t-77 -32t-30 -78q0 -47 30 -79t77 -32z" />
    <glyph glyph-name="uni030B" unicode="&#x30b;" horiz-adv-x="0" 
d="M436 1116l193 297h157l-231 -297h-119zM156 1116l192 297h158l-232 -297h-118z" />
    <glyph glyph-name="uni030C" unicode="&#x30c;" horiz-adv-x="0" 
d="M309 1116l-203 297h119l144 -215l143 215h119l-203 -297h-119z" />
    <glyph glyph-name="uni031B" unicode="&#x31b;" horiz-adv-x="0" 
d="M96 844h-76v114h11q82 0 112.5 27t30.5 72q0 84 -51 153h145q47 -71 47 -151q0 -107 -49.5 -161t-169.5 -54z" />
    <glyph glyph-name="dotbelowcomb" unicode="&#x323;" horiz-adv-x="0" 
d="M369 -365q-40 0 -68.5 27.5t-28.5 73.5q0 43 29 71.5t68 28.5t67.5 -28.5t28.5 -71.5q0 -46 -28 -73.5t-68 -27.5z" />
    <glyph glyph-name="uni0326" unicode="&#x326;" horiz-adv-x="0" 
d="M240 -410l88 299h149l-129 -299h-108z" />
    <glyph glyph-name="uni037E" unicode="&#x37e;" horiz-adv-x="614" 
d="M328 750q-52 0 -84.5 31t-32.5 81q0 51 33 82t84 31t83.5 -31t32.5 -82t-32.5 -81.5t-83.5 -30.5zM152 -287l133 477h161l-176 -477h-118z" />
    <glyph glyph-name="tonos" unicode="&#x384;" horiz-adv-x="323" 
d="M-25 1073l209 340h164l-262 -340h-111z" />
    <glyph glyph-name="dieresistonos" unicode="&#x385;" horiz-adv-x="737" 
d="M651 1169q-39 0 -67.5 29t-28.5 72t28.5 70.5t67.5 27.5q40 0 68.5 -27.5t28.5 -70.5t-29 -72t-68 -29zM86 1169q-39 0 -67.5 29t-28.5 72t28.5 70.5t67.5 27.5t67.5 -27.5t28.5 -70.5t-28.5 -72t-67.5 -29zM197 1120l188 299h164l-234 -299h-118z" />
    <glyph glyph-name="Alphatonos" unicode="&#x386;" horiz-adv-x="1339" 
d="M-25 1073l209 340h164l-262 -340h-111zM39 0l588 1417h114l588 -1417h-164l-157 395h-648l-157 -395h-164zM412 528h544l-272 680z" />
    <glyph glyph-name="anoteleia" unicode="&#x387;" horiz-adv-x="573" 
d="M287 477q-51 0 -84 31t-33 80q0 52 32.5 83t84.5 31t84 -31t32 -83q0 -49 -32.5 -80t-83.5 -31z" />
    <glyph glyph-name="Epsilontonos" unicode="&#x388;" horiz-adv-x="1392" 
d="M-25 1073l209 340h164l-262 -340h-111zM489 0v1413h795v-135h-641v-465h604v-133h-604v-545h655v-135h-809z" />
    <glyph glyph-name="Etatonos" unicode="&#x389;" horiz-adv-x="1773" 
d="M-25 1073l209 340h164l-262 -340h-111zM489 0v1413h154v-600h811v600h154v-1413h-154v680h-811v-680h-154z" />
    <glyph glyph-name="Iotatonos" unicode="&#x38a;" horiz-adv-x="808" 
d="M-25 1073l209 340h164l-262 -340h-111zM489 0v1413h154v-1413h-154z" />
    <glyph glyph-name="Omicrontonos" unicode="&#x38c;" horiz-adv-x="1835" 
d="M-27 1073l209 340h164l-262 -340h-111zM1030 -23q-146 0 -277 51t-230.5 143.5t-157.5 231.5t-58 304t58.5 303.5t157.5 231t230 143.5t277 51q145 0 276 -51t230.5 -143.5t158 -231t58.5 -303.5q0 -166 -58 -304.5t-157 -231t-230 -143.5t-278 -51zM1030 113
q115 0 217.5 41.5t180 117t122.5 188.5t45 249t-45 248.5t-122.5 186.5t-180 115t-217.5 41t-217 -40.5t-179.5 -114.5t-123 -187t-45.5 -249q0 -180 78.5 -317.5t206 -208t280.5 -70.5z" />
    <glyph glyph-name="Upsilontonos" unicode="&#x38e;" horiz-adv-x="1585" 
d="M-25 1073l209 340h164l-262 -340h-111zM930 0v598l-492 815h174l394 -678l395 678h176l-494 -815v-598h-153z" />
    <glyph glyph-name="Omegatonos" unicode="&#x38f;" horiz-adv-x="1771" 
d="M-25 1073l209 340h164l-262 -340h-111zM360 0v133h357v17q-177 72 -286 232t-109 380q0 153 54 281t146.5 213.5t215.5 132.5t261 47t261 -47t215.5 -132.5t147 -213.5t54.5 -281q0 -220 -108 -380t-285 -232v-17h356v-133h-505v231q172 43 278.5 182t106.5 345
q0 168 -71.5 293t-188.5 187t-261 62q-107 0 -201 -36.5t-165 -104t-112.5 -171.5t-41.5 -230q0 -206 107.5 -345t279.5 -182v-231h-506z" />
    <glyph glyph-name="iotadieresistonos" unicode="&#x390;" horiz-adv-x="499" 
d="M330 -10q-195 0 -195 233v735h152v-718q0 -65 19 -94t61 -29t82 18v-123q-61 -22 -119 -22zM492 1169q-39 0 -68 29t-29 72t28.5 70.5t68.5 27.5q39 0 67.5 -27.5t28.5 -70.5t-28.5 -72t-67.5 -29zM-74 1169q-39 0 -67.5 29t-28.5 72t28.5 70.5t67.5 27.5
q40 0 68.5 -27.5t28.5 -70.5t-29 -72t-68 -29zM37 1120l188 299h164l-233 -299h-119z" />
    <glyph glyph-name="Alpha" unicode="&#x391;" horiz-adv-x="1310" 
d="M10 0l588 1417h115l587 -1417h-163l-158 395h-647l-158 -395h-164zM383 528h545l-273 680z" />
    <glyph glyph-name="Beta" unicode="&#x392;" horiz-adv-x="1175" 
d="M166 0v1413h369q452 0 452 -354q0 -107 -63.5 -192.5t-159.5 -116.5v-5q154 -28 236.5 -117t82.5 -231q0 -397 -483 -397h-434zM557 133q71 0 124.5 6.5t101.5 23.5t78 46.5t47.5 76.5t17.5 111q0 72 -27.5 125t-79 84t-118.5 45.5t-152 14.5h-230v-533h238zM498 797
q331 0 331 247q0 127 -80 181.5t-223 54.5h-207v-483h179z" />
    <glyph glyph-name="Gamma" unicode="&#x393;" horiz-adv-x="991" 
d="M166 0v1413h772v-135h-619v-1278h-153z" />
    <glyph glyph-name="uni0394" unicode="&#x394;" horiz-adv-x="1290" 
d="M29 0v80l557 1337h119l557 -1337v-80h-1233zM215 137h858l-428 1051z" />
    <glyph glyph-name="Epsilon" unicode="&#x395;" horiz-adv-x="1069" 
d="M166 0v1413h795v-135h-642v-465h605v-133h-605v-545h656v-135h-809z" />
    <glyph glyph-name="Zeta" unicode="&#x396;" horiz-adv-x="1134" 
d="M61 0v121l807 1157h-784v135h979v-104l-823 -1174h833v-135h-1012z" />
    <glyph glyph-name="Eta" unicode="&#x397;" horiz-adv-x="1449" 
d="M166 0v1413h153v-600h811v600h154v-1413h-154v680h-811v-680h-153z" />
    <glyph glyph-name="Theta" unicode="&#x398;" horiz-adv-x="1609" 
d="M805 -23q-146 0 -277 51t-230.5 143.5t-157.5 231.5t-58 304t58.5 303.5t157.5 231t230 143.5t277 51q145 0 276 -51t230.5 -143.5t158 -231t58.5 -303.5q0 -166 -58 -304.5t-157 -231t-230 -143.5t-278 -51zM805 113q115 0 217.5 41.5t180 117t122.5 188.5t45 249
t-45 248.5t-122.5 186.5t-180 115t-217.5 41t-217 -40.5t-179.5 -114.5t-123 -187t-45.5 -249q0 -180 78.5 -317.5t206 -208t280.5 -70.5zM465 641v131h680v-131h-680z" />
    <glyph glyph-name="Iota" unicode="&#x399;" horiz-adv-x="485" 
d="M166 0v1413h153v-1413h-153z" />
    <glyph glyph-name="Kappa" unicode="&#x39a;" horiz-adv-x="1163" 
d="M166 0v1413h153v-641l619 641h195l-549 -555l590 -858h-191l-508 748l-156 -158v-590h-153z" />
    <glyph glyph-name="Lambda" unicode="&#x39b;" horiz-adv-x="1310" 
d="M10 0l588 1417h115l587 -1417h-163l-482 1208l-481 -1208h-164z" />
    <glyph glyph-name="Mu" unicode="&#x39c;" horiz-adv-x="1720" 
d="M96 0l142 1413h176l446 -1141l447 1141h176l141 -1413h-151l-113 1165l-463 -1183h-74l-463 1183l-112 -1165h-152z" />
    <glyph glyph-name="Nu" unicode="&#x39d;" horiz-adv-x="1507" 
d="M166 0v1413h158l864 -1165v334v831h153v-1413h-147l-877 1182l2 -498v-684h-153z" />
    <glyph glyph-name="Xi" unicode="&#x39e;" horiz-adv-x="1179" 
d="M139 1280v133h901v-133h-901zM242 680v133h696v-133h-696zM139 0v133h901v-133h-901z" />
    <glyph glyph-name="Omicron" unicode="&#x39f;" horiz-adv-x="1609" 
d="M805 -23q-146 0 -277 51t-230.5 143.5t-157.5 231.5t-58 304t58.5 303.5t157.5 231t230 143.5t277 51q145 0 276 -51t230.5 -143.5t158 -231t58.5 -303.5q0 -166 -58 -304.5t-157 -231t-230 -143.5t-278 -51zM805 113q115 0 217.5 41.5t180 117t122.5 188.5t45 249
t-45 248.5t-122.5 186.5t-180 115t-217.5 41t-217 -40.5t-179.5 -114.5t-123 -187t-45.5 -249q0 -180 78.5 -317.5t206 -208t280.5 -70.5z" />
    <glyph glyph-name="Pi" unicode="&#x3a0;" horiz-adv-x="1368" 
d="M166 0v1413h1036v-1413h-153v1278h-730v-1278h-153z" />
    <glyph glyph-name="Rho" unicode="&#x3a1;" horiz-adv-x="1056" 
d="M166 0v1413h366q131 0 233.5 -42.5t164 -132t61.5 -214.5q0 -130 -65.5 -220t-172.5 -131.5t-247 -41.5h-187v-631h-153zM518 764q146 0 231 63.5t85 194.5q0 128 -86.5 193t-221.5 65h-207v-516h199z" />
    <glyph glyph-name="Sigma" unicode="&#x3a3;" horiz-adv-x="1126" 
d="M98 0v117l516 592l-516 587v117h930v-135h-725l502 -569l-502 -574h725v-135h-930z" />
    <glyph glyph-name="Tau" unicode="&#x3a4;" horiz-adv-x="1011" 
d="M430 0v1278h-412v135h975v-135h-409v-1278h-154z" />
    <glyph glyph-name="Upsilon" unicode="&#x3a5;" 
d="M500 0v598l-492 815h174l393 -678l396 678h176l-494 -815v-598h-153z" />
    <glyph glyph-name="Phi" unicode="&#x3a6;" horiz-adv-x="1562" 
d="M858 274q129 0 234 50.5t168 150.5t63 232q0 133 -63 232.5t-167.5 149.5t-234.5 50v-865zM705 139q-173 0 -313.5 67.5t-225 198.5t-84.5 302q0 129 49 236.5t133.5 179.5t198 111.5t242.5 39.5v162h153v-162q128 0 241.5 -39.5t198 -111.5t134 -179.5t49.5 -236.5
q0 -171 -85 -302t-225.5 -198.5t-312.5 -67.5v-162h-153v162zM240 707q0 -132 63 -232t168 -150.5t234 -50.5v865q-130 0 -234.5 -50t-167.5 -149.5t-63 -232.5z" />
    <glyph glyph-name="Chi" unicode="&#x3a7;" horiz-adv-x="1150" 
d="M10 0l465 727l-432 686h182l348 -582l351 582h182l-432 -686l467 -727h-187l-381 625l-378 -625h-185z" />
    <glyph glyph-name="Psi" unicode="&#x3a8;" horiz-adv-x="1525" 
d="M840 414q199 0 308 111.5t109 320.5v567h154v-567q0 -269 -152 -417t-419 -148v-301h-154v301q-267 0 -419 148t-152 417v567h153v-567q0 -209 109.5 -320.5t308.5 -111.5v999h154v-999z" />
    <glyph glyph-name="uni03A9" unicode="&#x3a9;" horiz-adv-x="1544" 
d="M133 0v133h356v17q-177 72 -286 232t-109 380q0 153 54.5 281t147 213.5t215.5 132.5t261 47t261 -47t215.5 -132.5t147 -213.5t54.5 -281q0 -220 -108 -380t-285 -232v-17h356v-133h-506v231q172 43 278.5 182t106.5 345q0 126 -41 230t-112 171.5t-165.5 104
t-201.5 36.5t-201 -36.5t-165 -104t-112.5 -171.5t-41.5 -230q0 -206 107.5 -345t279.5 -182v-231h-506z" />
    <glyph glyph-name="Iotadieresis" unicode="&#x3aa;" horiz-adv-x="485" 
d="M166 0v1413h153v-1413h-153zM410 1571q-40 0 -69.5 28t-29.5 72q0 45 29.5 73t69.5 28t69 -28t29 -73q0 -44 -29 -72t-69 -28zM72 1571q-39 0 -68 28t-29 72q0 45 29 73t68 28q43 0 71.5 -27.5t28.5 -73.5q0 -45 -29 -72.5t-71 -27.5z" />
    <glyph glyph-name="Upsilondieresis" unicode="&#x3ab;" 
d="M500 0v598l-492 815h174l393 -678l396 678h176l-494 -815v-598h-153zM743 1571q-40 0 -69 28t-29 72q0 45 29 73t69 28t69.5 -28t29.5 -73q0 -44 -29.5 -72t-69.5 -28zM406 1571q-39 0 -68 28t-29 72q0 45 29 73t68 28q43 0 71.5 -27.5t28.5 -73.5q0 -45 -29 -72.5
t-71 -27.5z" />
    <glyph glyph-name="alphatonos" unicode="&#x3ac;" horiz-adv-x="1257" 
d="M530 -20q-204 0 -329 137.5t-125 351.5q0 221 130.5 365.5t332.5 144.5q111 0 207 -47t149 -139v165h149v-718q0 -65 19 -94t61 -29t82 18v-123q-61 -22 -119 -22q-172 0 -192 180q-57 -90 -150 -140t-215 -50zM559 111q151 0 245.5 106.5t94.5 267.5q0 155 -88.5 259
t-243.5 104q-154 0 -245 -104.5t-91 -264.5q0 -159 89.5 -263.5t238.5 -104.5zM440 1116l189 297h159l-229 -297h-119z" />
    <glyph glyph-name="epsilontonos" unicode="&#x3ad;" horiz-adv-x="1011" 
d="M514 -20q-189 0 -304.5 80.5t-115.5 207.5q0 89 54 149.5t133 88.5v4q-150 63 -150 209q0 118 108 189t277 71q125 0 231.5 -39t176.5 -102l-76 -101q-143 115 -330 115q-101 0 -165 -36t-64 -107t60 -110.5t159 -39.5h217v-119h-215q-111 0 -184.5 -43t-73.5 -125
t75.5 -124t190.5 -42q211 0 350 136l84 -92q-65 -74 -178.5 -122t-259.5 -48zM406 1116l188 297h160l-230 -297h-118z" />
    <glyph glyph-name="etatonos" unicode="&#x3ae;" horiz-adv-x="1077" 
d="M793 557q0 50 -4.5 89t-18.5 79t-37.5 66.5t-64 43.5t-95.5 17q-92 0 -156 -52.5t-93 -136.5t-29 -192v-471h-150v958h146v-176q39 87 123.5 142t185.5 55q80 0 140 -21t98 -56.5t61.5 -88t33 -110.5t9.5 -130v-958h-149v942zM416 1116l188 297h160l-229 -297h-119z" />
    <glyph glyph-name="iotatonos" unicode="&#x3af;" horiz-adv-x="499" 
d="M330 -10q-195 0 -195 233v735h152v-718q0 -65 19 -94t61 -29t82 18v-123q-61 -22 -119 -22zM131 1116l188 297h160l-229 -297h-119z" />
    <glyph glyph-name="upsilondieresistonos" unicode="&#x3b0;" horiz-adv-x="1064" 
d="M532 -20q-91 0 -160 21t-113.5 58t-72.5 92.5t-39.5 118.5t-11.5 142v546h150v-548q0 -50 5 -89.5t20.5 -81.5t41.5 -69.5t72 -45.5t108 -18q63 0 109 18t72 45.5t42 69.5t20.5 81.5t4.5 89.5v548h150v-546q0 -79 -11 -142t-39 -118.5t-72.5 -92.5t-114 -58t-161.5 -21z
M815 1169q-39 0 -67.5 29t-28.5 72t28.5 70.5t67.5 27.5t67.5 -27.5t28.5 -70.5t-28.5 -72t-67.5 -29zM250 1169q-39 0 -67.5 29t-28.5 72t28.5 70.5t67.5 27.5t67.5 -27.5t28.5 -70.5t-28.5 -72t-67.5 -29zM360 1120l189 299h164l-234 -299h-119z" />
    <glyph glyph-name="alpha" unicode="&#x3b1;" horiz-adv-x="1257" 
d="M530 -20q-204 0 -329 137.5t-125 351.5q0 221 130.5 365.5t332.5 144.5q111 0 207 -47t149 -139v165h149v-718q0 -65 19 -94t61 -29t82 18v-123q-61 -22 -119 -22q-172 0 -192 180q-57 -90 -150 -140t-215 -50zM559 111q151 0 245.5 106.5t94.5 267.5q0 155 -88.5 259
t-243.5 104q-154 0 -245 -104.5t-91 -264.5q0 -159 89.5 -263.5t238.5 -104.5z" />
    <glyph glyph-name="beta" unicode="&#x3b2;" horiz-adv-x="1097" 
d="M139 1008q0 206 98.5 316t276.5 110q166 0 268.5 -91t102.5 -231q0 -106 -57.5 -194.5t-139.5 -118.5v-4q146 -19 240 -121.5t94 -257.5q0 -187 -134.5 -308.5t-340.5 -121.5q-149 0 -256 43v-414h-152v1393zM291 174q103 -59 237 -59q149 0 243.5 85t94.5 220
q0 138 -100.5 220.5t-261.5 82.5h-70v121h68q107 0 168 66t61 175q0 105 -56.5 163.5t-160.5 58.5q-115 0 -169 -73t-54 -230v-830z" />
    <glyph glyph-name="gamma" unicode="&#x3b3;" horiz-adv-x="946" 
d="M397 -385v416l-389 927h160l305 -761l305 761h160l-389 -927v-416h-152z" />
    <glyph glyph-name="delta" unicode="&#x3b4;" 
d="M578 -20q-215 0 -358.5 138.5t-143.5 354.5q0 213 140.5 353t338.5 143l-418 331v113h881v-127h-649l532 -422q85 -67 131.5 -167t46.5 -222q0 -217 -143 -356t-358 -139zM578 106q156 0 249 105.5t93 263.5q0 160 -93 265.5t-249 105.5t-251.5 -106t-95.5 -265
q0 -158 95.5 -263.5t251.5 -105.5z" />
    <glyph glyph-name="epsilon" unicode="&#x3b5;" horiz-adv-x="1011" 
d="M514 -20q-189 0 -304.5 80.5t-115.5 207.5q0 89 54 149.5t133 88.5v4q-150 63 -150 209q0 118 108 189t277 71q125 0 231.5 -39t176.5 -102l-76 -101q-143 115 -330 115q-101 0 -165 -36t-64 -107t60 -110.5t159 -39.5h217v-119h-215q-111 0 -184.5 -43t-73.5 -125
t75.5 -124t190.5 -42q211 0 350 136l84 -92q-65 -74 -178.5 -122t-259.5 -48z" />
    <glyph glyph-name="zeta" unicode="&#x3b6;" horiz-adv-x="1001" 
d="M788 -90q7 25 7 37q0 53 -68 53h-250q-186 0 -293.5 103.5t-107.5 271.5q0 96 38 204.5t114.5 225.5t205 242t295.5 239h-600v127h844v-110q-194 -119 -340.5 -246.5t-232 -244.5t-127.5 -222t-42 -197q0 -123 65.5 -194.5t192.5 -71.5h254q89 0 136 -46.5t47 -121.5
q0 -24 -11 -70l-67 -274h-131z" />
    <glyph glyph-name="eta" unicode="&#x3b7;" horiz-adv-x="1077" 
d="M793 557q0 50 -4.5 89t-18.5 79t-37.5 66.5t-64 43.5t-95.5 17q-92 0 -156 -52.5t-93 -136.5t-29 -192v-471h-150v958h146v-176q39 87 123.5 142t185.5 55q80 0 140 -21t98 -56.5t61.5 -88t33 -110.5t9.5 -130v-958h-149v942z" />
    <glyph glyph-name="theta" unicode="&#x3b8;" horiz-adv-x="1093" 
d="M547 -20q-92 0 -169.5 39.5t-131.5 108t-91.5 161.5t-55 198.5t-17.5 219.5q0 115 18 220.5t55.5 198t91.5 161t131 108t169 39.5t169.5 -39.5t131.5 -108.5t91.5 -162t55 -198.5t17.5 -220.5q0 -114 -17.5 -219.5t-55 -198t-91.5 -160.5t-131.5 -107.5t-169.5 -39.5z
M547 109q140 0 220 142.5t89 389.5h-618q9 -246 89.5 -389t219.5 -143zM238 768h618q-8 248 -87.5 392.5t-221.5 144.5q-139 0 -220 -145t-89 -392z" />
    <glyph glyph-name="iota" unicode="&#x3b9;" horiz-adv-x="499" 
d="M330 -10q-195 0 -195 233v735h152v-718q0 -65 19 -94t61 -29t82 18v-123q-61 -22 -119 -22z" />
    <glyph glyph-name="kappa" unicode="&#x3ba;" horiz-adv-x="948" 
d="M143 0v958h152v-405l416 405h192l-387 -362l442 -596h-182l-362 500l-119 -113v-387h-152z" />
    <glyph glyph-name="lambda" unicode="&#x3bb;" horiz-adv-x="950" 
d="M8 0l393 946l-192 467h153l580 -1413h-162l-305 774l-307 -774h-160z" />
    <glyph glyph-name="uni03BC" unicode="&#x3bc;" 
d="M145 -385v1343h152v-559q0 -49 4 -87.5t17.5 -79t36.5 -67.5t63.5 -44t95.5 -17q92 0 156.5 52.5t94.5 138t30 194.5v469h151v-718q0 -65 19 -94t59 -29t80 18v-123q-61 -22 -117 -22q-164 0 -184 182q-34 -84 -116 -138t-181 -54q-145 0 -219 86q8 -60 8 -189v-262h-150
z" />
    <glyph glyph-name="nu" unicode="&#x3bd;" horiz-adv-x="946" 
d="M410 0l-402 958h162l305 -761l301 761h162l-401 -958h-127z" />
    <glyph glyph-name="xi" unicode="&#x3be;" horiz-adv-x="958" 
d="M770 -90q6 21 6 37q0 53 -67 53h-150q-219 0 -347 108t-128 283q0 137 80 229.5t213 124.5v5q-87 30 -129.5 94.5t-42.5 150.5q0 97 42 174.5t126 118.5v4h-248v121h764v-127h-187q-164 0 -254 -75.5t-90 -202.5q0 -89 72 -150t213 -61h191v-127h-222q-372 0 -372 -273
q0 -138 95.5 -204t258.5 -66h133q89 0 135.5 -46.5t46.5 -121.5q0 -35 -12 -82l-66 -262h-133z" />
    <glyph glyph-name="omicron" unicode="&#x3bf;" 
d="M575 -20q-213 0 -356 139t-143 358q0 144 66 259t180 179t253 64q214 0 359 -142t145 -360t-144.5 -357.5t-359.5 -139.5zM575 111q158 0 253.5 105t95.5 263q0 159 -95.5 264t-253.5 105q-156 0 -250 -105t-94 -264q0 -158 94 -263t250 -105z" />
    <glyph glyph-name="pi" unicode="&#x3c0;" horiz-adv-x="1126" 
d="M950 -10q-196 0 -196 233v608h-385v-831h-152v831h-160v127h1012v-127h-164v-589q0 -65 20 -95t62 -30q40 0 82 18v-123q-61 -22 -119 -22z" />
    <glyph glyph-name="rho" unicode="&#x3c1;" horiz-adv-x="1196" 
d="M139 483q0 217 138.5 356.5t353.5 139.5t352 -140t137 -358q0 -219 -134 -360t-347 -141q-227 0 -350 157l2 -104v-418h-152v868zM625 106q155 0 246.5 106.5t91.5 266.5t-91.5 266.5t-246.5 106.5q-157 0 -247.5 -106t-90.5 -267t90.5 -267t247.5 -106z" />
    <glyph glyph-name="uni03C2" unicode="&#x3c2;" horiz-adv-x="1003" 
d="M727 -203q8 36 8 51q0 37 -20 60t-74 37l-207 53q-159 41 -258.5 170.5t-99.5 310.5q0 147 67.5 262t181 176.5t250.5 61.5q115 0 211 -42t154 -110l-70 -106q-111 131 -286 131q-155 0 -254 -101.5t-99 -267.5q0 -135 70 -230.5t186 -125.5l191 -49q100 -26 145 -74
t45 -127q0 -53 -18 -123l-35 -139h-133z" />
    <glyph glyph-name="sigma" unicode="&#x3c3;" horiz-adv-x="1183" 
d="M569 -20q-211 0 -352 137t-141 352q0 213 141 351t352 138h578v-127h-260q83 -58 129.5 -153t46.5 -213q0 -213 -141 -349t-353 -136zM569 111q152 0 245 102t93 256t-93 256t-245 102q-153 0 -245.5 -102t-92.5 -256t92.5 -256t245.5 -102z" />
    <glyph glyph-name="tau" unicode="&#x3c4;" horiz-adv-x="819" 
d="M18 831v127h783v-127h-316v-591q0 -66 19 -95.5t61 -29.5q44 0 84 18v-121q-61 -22 -121 -22q-194 0 -194 233v608h-316z" />
    <glyph glyph-name="upsilon" unicode="&#x3c5;" horiz-adv-x="1064" 
d="M532 -20q-91 0 -160 21t-113.5 58t-72.5 92.5t-39.5 118.5t-11.5 142v546h150v-548q0 -50 5 -89.5t20.5 -81.5t41.5 -69.5t72 -45.5t108 -18q63 0 109 18t72 45.5t42 69.5t20.5 81.5t4.5 89.5v548h150v-546q0 -79 -11 -142t-39 -118.5t-72.5 -92.5t-114 -58t-161.5 -21z
" />
    <glyph glyph-name="phi" unicode="&#x3c6;" horiz-adv-x="1363" 
d="M606 -20q-149 0 -269.5 62.5t-190.5 177t-70 259.5t70 259.5t191 177.5t269 63v434h152v-434q148 0 269 -63t191 -177.5t70 -259.5t-70 -259.5t-190.5 -177t-269.5 -62.5v-365h-152v365zM758 106q168 0 271.5 106.5t103.5 266.5q0 159 -103.5 266t-271.5 107v-746z
M231 479q0 -160 103.5 -266.5t271.5 -106.5v746q-168 0 -271.5 -107t-103.5 -266z" />
    <glyph glyph-name="chi" unicode="&#x3c7;" horiz-adv-x="974" 
d="M8 0l389 506l-344 455h170l264 -363l265 363h170l-344 -455l389 -506h-176l-304 412l-303 -412h-176z" />
    <glyph glyph-name="psi" unicode="&#x3c8;" horiz-adv-x="1380" 
d="M614 -8q-239 0 -359 127t-120 352v487h152v-489q0 -164 86.5 -257t240.5 -93v1022h152v-1022q155 0 241.5 93.5t86.5 256.5v489h151v-487q0 -225 -120 -352t-359 -127v-377h-152v377z" />
    <glyph glyph-name="omega" unicode="&#x3c9;" horiz-adv-x="1421" 
d="M451 -20q-155 0 -257 112.5t-102 302.5q0 267 213 563h178q-235 -298 -235 -567q0 -134 58 -209.5t147 -75.5q79 0 131.5 55.5t52.5 160.5v344h147v-344q0 -104 53.5 -160t131.5 -56q89 0 147 75.5t58 209.5q0 268 -236 567h180q211 -297 211 -563q0 -191 -101 -303
t-257 -112q-81 0 -149.5 34t-110.5 97q-42 -63 -110.5 -97t-149.5 -34z" />
    <glyph glyph-name="iotadieresis" unicode="&#x3ca;" horiz-adv-x="499" 
d="M330 -10q-195 0 -195 233v735h152v-718q0 -65 19 -94t61 -29t82 18v-123q-61 -22 -119 -22zM82 1167q-38 0 -65 29t-27 72q0 44 27 72t65 28t65 -28t27 -72q0 -43 -27 -72t-65 -29zM377 1167q-38 0 -65 29t-27 72q0 44 27 72t65 28t65 -28t27 -72q0 -43 -27 -72t-65 -29z
" />
    <glyph glyph-name="upsilondieresis" unicode="&#x3cb;" horiz-adv-x="1064" 
d="M532 -20q-91 0 -160 21t-113.5 58t-72.5 92.5t-39.5 118.5t-11.5 142v546h150v-548q0 -50 5 -89.5t20.5 -81.5t41.5 -69.5t72 -45.5t108 -18q63 0 109 18t72 45.5t42 69.5t20.5 81.5t4.5 89.5v548h150v-546q0 -79 -11 -142t-39 -118.5t-72.5 -92.5t-114 -58t-161.5 -21z
M694 1163q-39 0 -67.5 29t-28.5 72q0 46 28 73t68 27t68.5 -27.5t28.5 -72.5q0 -43 -29 -72t-68 -29zM371 1163q-39 0 -68 29t-29 72q0 45 28.5 72.5t68.5 27.5t68 -27t28 -73q0 -43 -28.5 -72t-67.5 -29z" />
    <glyph glyph-name="omicrontonos" unicode="&#x3cc;" 
d="M575 -20q-213 0 -356 139t-143 358q0 144 66 259t180 179t253 64q214 0 359 -142t145 -360t-144.5 -357.5t-359.5 -139.5zM575 111q158 0 253.5 105t95.5 263q0 159 -95.5 264t-253.5 105q-156 0 -250 -105t-94 -264q0 -158 94 -263t250 -105zM446 1116l189 297h160
l-230 -297h-119z" />
    <glyph glyph-name="upsilontonos" unicode="&#x3cd;" horiz-adv-x="1064" 
d="M532 -20q-91 0 -160 21t-113.5 58t-72.5 92.5t-39.5 118.5t-11.5 142v546h150v-548q0 -50 5 -89.5t20.5 -81.5t41.5 -69.5t72 -45.5t108 -18q63 0 109 18t72 45.5t42 69.5t20.5 81.5t4.5 89.5v548h150v-546q0 -79 -11 -142t-39 -118.5t-72.5 -92.5t-114 -58t-161.5 -21z
M401 1116l189 297h160l-230 -297h-119z" />
    <glyph glyph-name="omegatonos" unicode="&#x3ce;" horiz-adv-x="1421" 
d="M451 -20q-155 0 -257 112.5t-102 302.5q0 267 213 563h178q-235 -298 -235 -567q0 -134 58 -209.5t147 -75.5q79 0 131.5 55.5t52.5 160.5v344h147v-344q0 -104 53.5 -160t131.5 -56q89 0 147 75.5t58 209.5q0 268 -236 567h180q211 -297 211 -563q0 -191 -101 -303
t-257 -112q-81 0 -149.5 34t-110.5 97q-42 -63 -110.5 -97t-149.5 -34zM580 1116l188 297h160l-230 -297h-118z" />
    <glyph glyph-name="uni0400" unicode="&#x400;" horiz-adv-x="1069" 
d="M166 0v1413h795v-135h-642v-465h605v-133h-605v-545h656v-135h-809zM580 1532l-252 297h166l211 -297h-125z" />
    <glyph glyph-name="uni0401" unicode="&#x401;" horiz-adv-x="1069" 
d="M166 0v1413h795v-135h-642v-465h605v-133h-605v-545h656v-135h-809zM741 1571q-40 0 -69 28t-29 72q0 45 29 73t69 28t69.5 -28t29.5 -73q0 -44 -29.5 -72t-69.5 -28zM403 1571q-38 0 -67 28t-29 72q0 45 28.5 73t67.5 28q43 0 72 -27.5t29 -73.5q0 -45 -29.5 -72.5
t-71.5 -27.5z" />
    <glyph glyph-name="uni0402" unicode="&#x402;" horiz-adv-x="1314" 
d="M850 -14q-81 0 -160 28l43 127q46 -20 107 -20q109 0 182.5 69t73.5 205q0 147 -89 222t-247 75q-181 0 -316 -86v-606h-153v1278h-264v135h864v-135h-447v-516q142 65 324 65q221 0 353 -110t132 -316q0 -102 -34.5 -183.5t-92 -131t-128.5 -75t-148 -25.5z" />
    <glyph glyph-name="uni0403" unicode="&#x403;" horiz-adv-x="991" 
d="M166 0v1413h772v-135h-619v-1278h-153zM446 1532l211 297h166l-252 -297h-125z" />
    <glyph glyph-name="uni0404" unicode="&#x404;" horiz-adv-x="1380" 
d="M803 -25q-155 0 -288.5 53.5t-229 148t-149.5 230t-54 295.5q0 161 55 298.5t151.5 232t229.5 148t285 53.5q168 0 295.5 -58t208.5 -139l-80 -117q-51 69 -169.5 123.5t-260.5 54.5q-228 0 -381.5 -143t-173.5 -383h721v-135h-719q22 -234 175 -380t382 -146
q262 0 438 190l80 -111q-83 -92 -212 -153.5t-304 -61.5z" />
    <glyph glyph-name="uni0405" unicode="&#x405;" horiz-adv-x="1081" 
d="M532 -20q-81 0 -153.5 21.5t-128 59.5t-96 79t-74.5 91l104 101q63 -93 158.5 -156t210.5 -63q116 0 197 65.5t81 179.5q0 54 -19.5 98.5t-57.5 77.5t-77.5 56.5t-94.5 46.5l-209 90q-238 102 -238 334q0 91 35 163.5t94.5 117t133.5 67.5t157 23q129 0 233 -52t168 -131
l-90 -102q-129 151 -307 151q-117 0 -192.5 -57.5t-75.5 -165.5q0 -87 50 -140.5t146 -94.5l193 -82q53 -23 94 -45t83.5 -55.5t69.5 -71.5t44.5 -91.5t17.5 -115.5q0 -126 -66.5 -218.5t-168.5 -136.5t-222 -44z" />
    <glyph glyph-name="uni0406" unicode="&#x406;" horiz-adv-x="485" 
d="M166 0v1413h153v-1413h-153z" />
    <glyph glyph-name="uni0407" unicode="&#x407;" horiz-adv-x="485" 
d="M166 0v1413h153v-1413h-153zM412 1571q-40 0 -69.5 28t-29.5 72q0 45 29.5 73t69.5 28t69 -28t29 -73q0 -44 -29 -72t-69 -28zM74 1571q-39 0 -68 28t-29 72q0 45 29 73t68 28q43 0 71.5 -27.5t28.5 -73.5q0 -45 -29 -72.5t-71 -27.5z" />
    <glyph glyph-name="uni0408" unicode="&#x408;" horiz-adv-x="485" 
d="M45 -410q-83 0 -127 23l4 125q35 -14 92 -14q47 0 78.5 21t47 61.5t21 84t5.5 103.5v1419h153v-1423q0 -66 -8.5 -123t-28.5 -109t-51 -88.5t-78.5 -58t-107.5 -21.5z" />
    <glyph glyph-name="uni0409" unicode="&#x409;" horiz-adv-x="1941" 
d="M133 -12q-54 0 -104 16v141q55 -22 92 -22q58 0 93.5 32.5t55 116.5t19.5 228v913h866v-600h258q210 0 338.5 -110.5t128.5 -294.5q0 -185 -128.5 -296.5t-338.5 -111.5h-412v1278h-559v-807q0 -483 -309 -483zM1386 135q156 0 246 64.5t90 206.5q0 76 -27.5 130
t-79.5 84.5t-116.5 44t-148.5 13.5h-195v-543h231z" />
    <glyph glyph-name="uni040A" unicode="&#x40a;" horiz-adv-x="2007" 
d="M166 0v1413h153v-600h748v600h154v-600h258q210 0 338.5 -110.5t128.5 -294.5q0 -185 -128.5 -296.5t-338.5 -111.5h-412v678h-748v-678h-153zM1452 135q156 0 246 64.5t90 206.5q0 272 -373 272h-194v-543h231z" />
    <glyph glyph-name="uni040B" unicode="&#x40b;" horiz-adv-x="1323" 
d="M1067 395q0 161 -69 229t-246 68q-198 0 -310 -84v-608h-153v1278h-262v135h864v-135h-449v-508q132 57 316 57q247 0 355 -101.5t108 -309.5v-416h-154v395z" />
    <glyph glyph-name="uni040C" unicode="&#x40c;" horiz-adv-x="1163" 
d="M166 0v1413h153v-641l619 641h195l-549 -555l590 -858h-191l-508 748l-156 -158v-590h-153zM510 1532l211 297h166l-252 -297h-125z" />
    <glyph glyph-name="uni040D" unicode="&#x40d;" horiz-adv-x="1507" 
d="M166 0v1413h153v-831v-334l865 1165h157v-1413h-153v907l2 275l-877 -1182h-147zM780 1532l-252 297h166l211 -297h-125z" />
    <glyph glyph-name="uni040E" unicode="&#x40e;" horiz-adv-x="1101" 
d="M223 0l234 473l-443 940h168l361 -786l379 786h165l-696 -1413h-168zM551 1546q-124 0 -198.5 69.5t-82.5 190.5h95q14 -79 61 -122.5t125 -43.5t125 43.5t61 122.5h94q-8 -121 -82 -190.5t-198 -69.5z" />
    <glyph glyph-name="uni040F" unicode="&#x40f;" horiz-adv-x="1400" 
d="M623 -297v297h-457v1413h153v-1278h762v1278h154v-1413h-459v-297h-153z" />
    <glyph glyph-name="uni0410" unicode="&#x410;" horiz-adv-x="1310" 
d="M10 0l588 1417h115l587 -1417h-163l-158 395h-647l-158 -395h-164zM383 528h545l-273 680z" />
    <glyph glyph-name="uni0411" unicode="&#x411;" horiz-adv-x="1179" 
d="M166 0v1413h831v-135h-678v-465h304q210 0 337 -109t127 -294q0 -186 -127 -298t-337 -112h-457zM575 135q164 0 259.5 66t95.5 207q0 270 -371 270h-240v-543h256z" />
    <glyph glyph-name="uni0412" unicode="&#x412;" horiz-adv-x="1175" 
d="M166 0v1413h369q452 0 452 -354q0 -107 -63.5 -192.5t-159.5 -116.5v-5q154 -28 236.5 -117t82.5 -231q0 -397 -483 -397h-434zM557 133q71 0 124.5 6.5t101.5 23.5t78 46.5t47.5 76.5t17.5 111q0 72 -27.5 125t-79 84t-118.5 45.5t-152 14.5h-230v-533h238zM498 797
q331 0 331 247q0 127 -80 181.5t-223 54.5h-207v-483h179z" />
    <glyph glyph-name="uni0413" unicode="&#x413;" horiz-adv-x="991" 
d="M166 0v1413h772v-135h-619v-1278h-153z" />
    <glyph glyph-name="uni0414" unicode="&#x414;" horiz-adv-x="1429" 
d="M49 135q66 0 116 24t83 68t53.5 110t29.5 143.5t9 176.5v756h864v-1278h164v-434h-154v299h-1011v-299h-154v434zM350 135h701v1143h-557v-621q0 -378 -144 -522z" />
    <glyph glyph-name="uni0415" unicode="&#x415;" horiz-adv-x="1069" 
d="M166 0v1413h795v-135h-642v-465h605v-133h-605v-545h656v-135h-809z" />
    <glyph glyph-name="uni0416" unicode="&#x416;" horiz-adv-x="1615" 
d="M10 0l572 750l-541 663h190l476 -600h24v617h154v-617h24l475 600h191l-539 -663l570 -750h-187l-508 678h-26v-694h-154v694h-26l-508 -678h-187z" />
    <glyph glyph-name="uni0417" unicode="&#x417;" horiz-adv-x="1110" 
d="M541 -23q-158 0 -276 66.5t-191 177.5l96 98q138 -206 369 -206q139 0 228 71.5t89 204.5q0 134 -89 208.5t-224 74.5h-154v129h154q124 0 198 67.5t74 184.5q0 119 -77.5 183t-200.5 64q-184 0 -347 -170l-84 99q73 91 186 149t255 58q182 0 303 -99t121 -266
q0 -75 -24.5 -135.5t-64 -97.5t-75 -58t-72.5 -32v-7q43 -6 89 -31t90 -66.5t72 -109t28 -147.5q0 -183 -133.5 -296.5t-339.5 -113.5z" />
    <glyph glyph-name="uni0418" unicode="&#x418;" horiz-adv-x="1507" 
d="M166 0v1413h153v-831v-334l865 1165h157v-1413h-153v907l2 275l-877 -1182h-147z" />
    <glyph glyph-name="uni0419" unicode="&#x419;" horiz-adv-x="1507" 
d="M166 0v1413h153v-831v-334l865 1165h157v-1413h-153v907l2 275l-877 -1182h-147zM774 1546q-124 0 -198 69.5t-82 190.5h94q14 -79 61 -122.5t125 -43.5t125.5 43.5t61.5 122.5h94q-8 -121 -82.5 -190.5t-198.5 -69.5z" />
    <glyph glyph-name="uni041A" unicode="&#x41a;" horiz-adv-x="1163" 
d="M166 0v1413h153v-641l619 641h195l-549 -555l590 -858h-191l-508 748l-156 -158v-590h-153z" />
    <glyph glyph-name="uni041B" unicode="&#x41b;" horiz-adv-x="1409" 
d="M133 -12q-54 0 -104 16v141q55 -22 92 -22q58 0 93.5 32.5t55 116.5t19.5 228v913h954v-1413h-153v1278h-648v-807q0 -483 -309 -483z" />
    <glyph glyph-name="uni041C" unicode="&#x41c;" horiz-adv-x="1720" 
d="M96 0l142 1413h176l446 -1141l447 1141h176l141 -1413h-151l-113 1165l-463 -1183h-74l-463 1183l-112 -1165h-152z" />
    <glyph glyph-name="uni041D" unicode="&#x41d;" horiz-adv-x="1449" 
d="M166 0v1413h153v-600h811v600h154v-1413h-154v680h-811v-680h-153z" />
    <glyph glyph-name="uni041E" unicode="&#x41e;" horiz-adv-x="1609" 
d="M805 -23q-146 0 -277 51t-230.5 143.5t-157.5 231.5t-58 304t58.5 303.5t157.5 231t230 143.5t277 51q145 0 276 -51t230.5 -143.5t158 -231t58.5 -303.5q0 -166 -58 -304.5t-157 -231t-230 -143.5t-278 -51zM805 113q115 0 217.5 41.5t180 117t122.5 188.5t45 249
t-45 248.5t-122.5 186.5t-180 115t-217.5 41t-217 -40.5t-179.5 -114.5t-123 -187t-45.5 -249q0 -180 78.5 -317.5t206 -208t280.5 -70.5z" />
    <glyph glyph-name="uni041F" unicode="&#x41f;" horiz-adv-x="1368" 
d="M166 0v1413h1036v-1413h-153v1278h-730v-1278h-153z" />
    <glyph glyph-name="uni0420" unicode="&#x420;" horiz-adv-x="1056" 
d="M166 0v1413h366q131 0 233.5 -42.5t164 -132t61.5 -214.5q0 -130 -65.5 -220t-172.5 -131.5t-247 -41.5h-187v-631h-153zM518 764q146 0 231 63.5t85 194.5q0 128 -86.5 193t-221.5 65h-207v-516h199z" />
    <glyph glyph-name="uni0421" unicode="&#x421;" horiz-adv-x="1392" 
d="M803 -25q-155 0 -288.5 53.5t-229 148t-149.5 230t-54 295.5q0 161 55 298.5t151.5 232t229.5 148t285 53.5q168 0 295.5 -58t208.5 -139l-80 -117q-51 69 -169.5 123.5t-260.5 54.5q-159 0 -285.5 -72t-199 -206.5t-72.5 -310.5q0 -264 156.5 -431t404.5 -167
q262 0 438 190l80 -111q-83 -92 -212 -153.5t-304 -61.5z" />
    <glyph glyph-name="uni0422" unicode="&#x422;" horiz-adv-x="1011" 
d="M430 0v1278h-412v135h975v-135h-409v-1278h-154z" />
    <glyph glyph-name="uni0423" unicode="&#x423;" horiz-adv-x="1101" 
d="M223 0l234 473l-443 940h168l361 -786l379 786h165l-696 -1413h-168z" />
    <glyph glyph-name="uni0424" unicode="&#x424;" horiz-adv-x="1562" 
d="M858 274q129 0 234 50.5t168 150.5t63 232q0 133 -63 232.5t-167.5 149.5t-234.5 50v-865zM705 139q-173 0 -313.5 67.5t-225 198.5t-84.5 302q0 129 49 236.5t133.5 179.5t198 111.5t242.5 39.5v162h153v-162q128 0 241.5 -39.5t198 -111.5t134 -179.5t49.5 -236.5
q0 -171 -85 -302t-225.5 -198.5t-312.5 -67.5v-162h-153v162zM240 707q0 -132 63 -232t168 -150.5t234 -50.5v865q-130 0 -234.5 -50t-167.5 -149.5t-63 -232.5z" />
    <glyph glyph-name="uni0425" unicode="&#x425;" horiz-adv-x="1150" 
d="M10 0l465 727l-432 686h182l348 -582l351 582h182l-432 -686l467 -727h-187l-381 625l-378 -625h-185z" />
    <glyph glyph-name="uni0426" unicode="&#x426;" horiz-adv-x="1495" 
d="M1276 -297v297h-1110v1413h153v-1278h762v1278h154v-1278h195v-432h-154z" />
    <glyph glyph-name="uni0427" unicode="&#x427;" horiz-adv-x="1204" 
d="M567 578q-249 0 -357 101t-108 310v424h154v-403q0 -161 70 -229t247 -68q198 0 312 86v614h153v-1413h-153v635q-132 -57 -318 -57z" />
    <glyph glyph-name="uni0428" unicode="&#x428;" horiz-adv-x="1890" 
d="M166 0v1413h153v-1278h549v1278h154v-1278h549v1278h153v-1413h-1558z" />
    <glyph glyph-name="uni0429" unicode="&#x429;" horiz-adv-x="1986" 
d="M1767 -297v297h-1601v1413h153v-1278h549v1278h154v-1278h549v1278h153v-1278h197v-432h-154z" />
    <glyph glyph-name="uni042A" unicode="&#x42a;" horiz-adv-x="1290" 
d="M330 0v1278h-303v135h456v-600h279q210 0 338.5 -110.5t128.5 -294.5q0 -185 -128.5 -296.5t-338.5 -111.5h-432zM735 135q156 0 246 64.5t90 206.5q0 272 -373 272h-215v-543h252z" />
    <glyph glyph-name="uni042B" unicode="&#x42b;" horiz-adv-x="1611" 
d="M166 0v1413h153v-600h279q210 0 338.5 -110.5t128.5 -294.5q0 -185 -128.5 -296.5t-338.5 -111.5h-432zM571 135q156 0 246 64.5t90 206.5q0 76 -27.5 130t-79.5 84.5t-116.5 44t-148.5 13.5h-216v-543h252zM1292 0v1413h154v-1413h-154z" />
    <glyph glyph-name="uni042C" unicode="&#x42c;" horiz-adv-x="1126" 
d="M166 0v1413h153v-600h279q210 0 338.5 -110.5t128.5 -294.5q0 -185 -128.5 -296.5t-338.5 -111.5h-432zM571 135q156 0 246 64.5t90 206.5q0 76 -27.5 130t-79.5 84.5t-116.5 44t-148.5 13.5h-216v-543h252z" />
    <glyph glyph-name="uni042D" unicode="&#x42d;" horiz-adv-x="1380" 
d="M578 -25q-176 0 -305 61.5t-212 153.5l80 111q80 -86 191 -138t248 -52q229 0 382 146t175 380h-719v135h721q-20 240 -173.5 383t-381.5 143q-142 0 -260.5 -54.5t-169.5 -123.5l-80 117q79 79 208 138t296 59q204 0 367.5 -90.5t258 -258.5t94.5 -383
q0 -213 -92.5 -379t-256.5 -257t-371 -91z" />
    <glyph glyph-name="uni042E" unicode="&#x42e;" horiz-adv-x="2068" 
d="M1264 -23q-138 0 -263.5 46t-223 129.5t-160 209t-74.5 277.5h-224v-639h-153v1413h153v-639h224q16 200 118.5 352.5t259.5 231t343 78.5q145 0 276 -51t230.5 -143.5t158 -231t58.5 -303.5q0 -166 -58 -304.5t-157 -231t-230 -143.5t-278 -51zM1264 113
q115 0 217.5 41.5t180 117t122.5 188.5t45 249t-45 248.5t-122.5 186.5t-180 115t-217.5 41t-217.5 -40.5t-180 -114.5t-123 -187t-45.5 -249q0 -180 79 -317.5t206.5 -208t280.5 -70.5z" />
    <glyph glyph-name="uni042F" unicode="&#x42f;" horiz-adv-x="1114" 
d="M465 643q-154 32 -246 130.5t-92 254.5q0 187 119.5 286t318.5 99h383v-1413h-153v631h-168l-391 -631h-191zM645 764h150v516h-170q-340 0 -340 -258q0 -75 26.5 -127t77 -80t112 -39.5t144.5 -11.5z" />
    <glyph glyph-name="uni0430" unicode="&#x430;" horiz-adv-x="993" 
d="M391 -20q-140 0 -235 81.5t-95 210.5q0 128 96.5 207t286.5 88l263 13v34q0 116 -70.5 175t-185.5 59q-79 0 -156 -28t-127 -64l-53 129q160 94 342 94q205 0 303 -103t98 -313v-563h-149v121q-40 -52 -124 -96.5t-194 -44.5zM420 106q89 0 167.5 46.5t119.5 101.5v207
l-250 -12q-242 -11 -242 -175q0 -73 57 -120.5t148 -47.5z" />
    <glyph glyph-name="uni0431" unicode="&#x431;" horiz-adv-x="1167" 
d="M588 -20q-218 0 -360 144.5t-142 381.5q0 131 13 233t45.5 198t87.5 168.5t140.5 133t202.5 102.5l381 140v-135l-350 -129q-161 -60 -243 -160.5t-111 -257.5q60 82 156.5 128t212.5 46q199 0 335 -139.5t136 -354.5q0 -145 -67 -259.5t-181.5 -177t-255.5 -62.5z
M588 106q156 0 252 105.5t96 263.5q0 157 -96.5 263t-251.5 106q-156 0 -251 -105.5t-95 -263.5q0 -159 95 -264t251 -105z" />
    <glyph glyph-name="uni0432" unicode="&#x432;" horiz-adv-x="1015" 
d="M143 0v958h379q164 0 259.5 -57t95.5 -178q0 -152 -148 -219v-4q205 -61 205 -238q0 -127 -100 -194.5t-275 -67.5h-416zM526 125q59 0 102 6t78.5 21.5t53.5 45.5t18 74q0 160 -258 160h-225v-307h231zM508 551q102 0 158.5 30.5t56.5 110.5q0 142 -203 142h-225v-283
h213z" />
    <glyph glyph-name="uni0433" unicode="&#x433;" horiz-adv-x="794" 
d="M143 0v958h605v-127h-453v-831h-152z" />
    <glyph glyph-name="uni0434" unicode="&#x434;" horiz-adv-x="1142" 
d="M45 127q111 0 160 90t49 260v481h696v-831h133v-385h-151v258h-735v-258h-152v385zM293 127h506v704h-393v-354q0 -248 -113 -350z" />
    <glyph glyph-name="uni0435" unicode="&#x435;" horiz-adv-x="1073" 
d="M563 -20q-97 0 -178.5 27t-137.5 73t-95 109t-57.5 135t-18.5 151q0 141 57.5 255.5t166.5 181.5t249 67q198 0 323 -126.5t125 -320.5q0 -48 -6 -96h-760q5 -143 98.5 -234t245.5 -91q178 0 324 125l68 -99q-64 -73 -171 -115t-233 -42zM846 559q0 52 -18 102t-53 92.5
t-93 68.5t-131 26q-138 0 -223 -84.5t-95 -204.5h613z" />
    <glyph glyph-name="uni0436" unicode="&#x436;" horiz-adv-x="1339" 
d="M8 0l422 504l-401 454h194l340 -391h31v408h151v-408h31l340 391h195l-400 -454l420 -504h-190l-365 436h-31v-452h-151v452h-31l-362 -436h-193z" />
    <glyph glyph-name="uni0437" unicode="&#x437;" horiz-adv-x="966" 
d="M475 -20q-140 0 -248.5 47.5t-171.5 122.5l86 94q135 -138 320 -138q112 0 187 42t75 124q0 83 -75.5 125.5t-192.5 42.5h-105v121h109q103 0 165 37.5t62 108.5q0 73 -63.5 109t-163.5 36q-167 0 -301 -113l-74 97q67 63 171 103t224 40q159 0 262 -70.5t103 -185.5
q0 -80 -44.5 -132.5t-113.5 -80.5v-4q81 -26 137 -87.5t56 -152.5q0 -127 -111 -206.5t-293 -79.5z" />
    <glyph glyph-name="uni0438" unicode="&#x438;" 
d="M143 0v958h152v-507q0 -212 -4 -232l561 739h160v-958h-152v516q0 218 4 234l-569 -750h-152z" />
    <glyph glyph-name="uni0439" unicode="&#x439;" 
d="M143 0v958h152v-507q0 -212 -4 -232l561 739h160v-958h-152v516q0 218 4 234l-569 -750h-152zM578 1124q-124 0 -196 71t-81 200h90q14 -80 61.5 -123t125.5 -43q158 0 186 166h90q-9 -130 -80 -200.5t-196 -70.5z" />
    <glyph glyph-name="uni043A" unicode="&#x43a;" horiz-adv-x="948" 
d="M143 0v958h152v-405l416 405h192l-387 -362l442 -596h-182l-362 500l-119 -113v-387h-152z" />
    <glyph glyph-name="uni043B" unicode="&#x43b;" horiz-adv-x="1122" 
d="M123 -12q-56 0 -96 16v127q36 -16 73 -16q65 0 96 62.5t31 221.5v559h752v-958h-152v831h-448v-446q0 -397 -256 -397z" />
    <glyph glyph-name="uni043C" unicode="&#x43c;" horiz-adv-x="1351" 
d="M90 0l103 958h182l301 -733l303 733h182l101 -958h-148l-76 774l-321 -784h-80l-324 784l-75 -774h-148z" />
    <glyph glyph-name="uni043D" unicode="&#x43d;" horiz-adv-x="1130" 
d="M143 0v958h152v-395h541v395h151v-958h-151v436h-541v-436h-152z" />
    <glyph glyph-name="uni043E" unicode="&#x43e;" 
d="M575 -20q-213 0 -356 139t-143 358q0 144 66 259t180 179t253 64q214 0 359 -142t145 -360t-144.5 -357.5t-359.5 -139.5zM575 111q158 0 253.5 105t95.5 263q0 159 -95.5 264t-253.5 105q-156 0 -250 -105t-94 -264q0 -158 94 -263t250 -105z" />
    <glyph glyph-name="uni043F" unicode="&#x43f;" horiz-adv-x="1071" 
d="M143 0v958h785v-958h-152v831h-481v-831h-152z" />
    <glyph glyph-name="uni0440" unicode="&#x440;" horiz-adv-x="1187" 
d="M143 -385v1343h150v-170q55 88 148.5 139.5t215.5 51.5q204 0 329.5 -138t125.5 -352q0 -220 -130.5 -364.5t-332.5 -144.5q-111 0 -207 47t-149 139q2 -14 2 -113v-438h-152zM621 111q154 0 244.5 104t90.5 264q0 159 -89 264t-238 105q-151 0 -245.5 -107t-94.5 -268
q0 -155 88.5 -258.5t243.5 -103.5z" />
    <glyph glyph-name="uni0441" unicode="&#x441;" horiz-adv-x="1003" 
d="M578 -20q-138 0 -252 60t-182 174.5t-68 262.5t69.5 264t183 177t249.5 61q109 0 201 -38t149 -95l-68 -115q-127 117 -285 117q-150 0 -247 -101.5t-97 -265.5t97.5 -267t251.5 -103q91 0 166 36.5t126 100.5l70 -115q-60 -68 -154 -110.5t-210 -42.5z" />
    <glyph glyph-name="uni0442" unicode="&#x442;" horiz-adv-x="806" 
d="M328 0v831h-310v127h770v-127h-309v-831h-151z" />
    <glyph glyph-name="uni0443" unicode="&#x443;" horiz-adv-x="946" 
d="M209 -399q-65 0 -131 32l31 125q50 -26 98 -26q46 0 73 26.5t66 114.5l55 127l-393 958h162l309 -784l297 784h162l-469 -1134q-53 -125 -115 -174t-145 -49z" />
    <glyph glyph-name="uni0444" unicode="&#x444;" horiz-adv-x="1363" 
d="M606 -20q-149 0 -269.5 62.5t-190.5 177t-70 259.5t70 259.5t191 177.5t269 63v434h152v-434q148 0 269 -63t191 -177.5t70 -259.5t-70 -259.5t-190.5 -177t-269.5 -62.5v-365h-152v365zM758 106q168 0 271.5 106.5t103.5 266.5q0 159 -103.5 266t-271.5 107v-746z
M231 479q0 -160 103.5 -266.5t271.5 -106.5v746q-168 0 -271.5 -107t-103.5 -266z" />
    <glyph glyph-name="uni0445" unicode="&#x445;" horiz-adv-x="974" 
d="M8 0l389 506l-344 455h170l264 -363l265 363h170l-344 -455l389 -506h-176l-304 412l-303 -412h-176z" />
    <glyph glyph-name="uni0446" unicode="&#x446;" horiz-adv-x="1208" 
d="M997 -258v258h-854v958h152v-831h522v831h152v-831h180v-385h-152z" />
    <glyph glyph-name="uni0447" unicode="&#x447;" horiz-adv-x="1044" 
d="M510 340q-221 0 -316.5 101.5t-95.5 310.5v206h152v-194q0 -161 59 -229t207 -68q146 0 234 57v434h151v-958h-151v383q-104 -43 -240 -43z" />
    <glyph glyph-name="uni0448" unicode="&#x448;" horiz-adv-x="1499" 
d="M143 0v958h152v-831h379v831h151v-831h379v831h152v-958h-1213z" />
    <glyph glyph-name="uni0449" unicode="&#x449;" horiz-adv-x="1597" 
d="M1386 -258v258h-1243v958h152v-831h379v831h151v-831h379v831h152v-831h182v-385h-152z" />
    <glyph glyph-name="uni044A" unicode="&#x44a;" horiz-adv-x="1085" 
d="M266 0v834h-241v124h393v-391h227q178 0 276.5 -70.5t98.5 -211.5q0 -142 -98.5 -213.5t-276.5 -71.5h-379zM633 127q115 0 173 33.5t58 122.5t-59 123t-172 34h-215v-313h215z" />
    <glyph glyph-name="uni044B" unicode="&#x44b;" horiz-adv-x="1421" 
d="M143 0v958h152v-391h227q178 0 276.5 -70.5t98.5 -211.5q0 -142 -98.5 -213.5t-276.5 -71.5h-379zM510 127q115 0 173 33.5t58 122.5t-59 123t-172 34h-215v-313h215zM1116 0v958h152v-958h-152z" />
    <glyph glyph-name="uni044C" unicode="&#x44c;" horiz-adv-x="962" 
d="M143 0v958h152v-391h227q178 0 276.5 -70.5t98.5 -211.5q0 -142 -98.5 -213.5t-276.5 -71.5h-379zM510 127q115 0 173 33.5t58 122.5t-59 123t-172 34h-215v-313h215z" />
    <glyph glyph-name="uni044D" unicode="&#x44d;" horiz-adv-x="1003" 
d="M426 -20q-117 0 -211 42.5t-154 110.5l70 115q51 -64 126.5 -100.5t166.5 -36.5q137 0 230.5 83t113.5 222h-496v127h496q-19 138 -112.5 221.5t-227.5 83.5q-158 0 -285 -117l-67 115q55 55 148.5 94t201.5 39q136 0 249.5 -61t183 -177t69.5 -264t-68 -262.5
t-182 -174.5t-252 -60z" />
    <glyph glyph-name="uni044E" unicode="&#x44e;" horiz-adv-x="1564" 
d="M985 -20q-197 0 -336.5 121t-159.5 315h-194v-416h-152v958h152v-415h194q23 194 161.5 315t334.5 121q214 0 359 -142t145 -360t-144.5 -357.5t-359.5 -139.5zM985 111q158 0 253 105t95 263q0 159 -95 264t-253 105q-156 0 -250 -105t-94 -264q0 -158 94 -263t250 -105
z" />
    <glyph glyph-name="uni044F" unicode="&#x44f;" horiz-adv-x="978" 
d="M330 418q-107 25 -167.5 94t-60.5 172q0 132 91.5 203t244.5 71h398v-958h-152v397h-197l-264 -397h-180zM465 522h221v312h-227q-201 0 -201 -160q0 -81 52.5 -116.5t154.5 -35.5z" />
    <glyph glyph-name="uni0450" unicode="&#x450;" horiz-adv-x="1073" 
d="M563 -20q-97 0 -178.5 27t-137.5 73t-95 109t-57.5 135t-18.5 151q0 141 57.5 255.5t166.5 181.5t249 67q198 0 323 -126.5t125 -320.5q0 -48 -6 -96h-760q5 -143 98.5 -234t245.5 -91q178 0 324 125l68 -99q-64 -73 -171 -115t-233 -42zM846 559q0 52 -18 102t-53 92.5
t-93 68.5t-131 26q-138 0 -223 -84.5t-95 -204.5h613zM549 1116l-230 297h160l189 -297h-119z" />
    <glyph glyph-name="uni0451" unicode="&#x451;" horiz-adv-x="1073" 
d="M563 -20q-97 0 -178.5 27t-137.5 73t-95 109t-57.5 135t-18.5 151q0 141 57.5 255.5t166.5 181.5t249 67q198 0 323 -126.5t125 -320.5q0 -48 -6 -96h-760q5 -143 98.5 -234t245.5 -91q178 0 324 125l68 -99q-64 -73 -171 -115t-233 -42zM846 559q0 52 -18 102t-53 92.5
t-93 68.5t-131 26q-138 0 -223 -84.5t-95 -204.5h613zM698 1163q-39 0 -67.5 29t-28.5 72q0 46 28 73t68 27t68.5 -27.5t28.5 -72.5q0 -43 -29 -72t-68 -29zM375 1163q-39 0 -67.5 29t-28.5 72q0 46 28 73t68 27t68 -27t28 -73q0 -43 -28.5 -72t-67.5 -29z" />
    <glyph glyph-name="uni0452" unicode="&#x452;" horiz-adv-x="1093" 
d="M672 -410q-60 0 -97 13l7 133q43 -15 65 -15q92 0 126 59.5t34 211.5v579q0 277 -215 277q-61 0 -110.5 -22.5t-80 -57.5t-51 -81t-29 -90.5t-8.5 -88.5v-508h-151v1124h-137v119h137v170h149v-170h389v-119h-389v-188q0 -117 -2 -133q43 86 129.5 131t196.5 45
q92 0 157 -30t100 -86.5t50.5 -124.5t15.5 -156v-600q0 -89 -14 -157t-45.5 -122.5t-88.5 -83.5t-138 -29z" />
    <glyph glyph-name="uni0453" unicode="&#x453;" horiz-adv-x="794" 
d="M143 0v958h605v-127h-453v-831h-152zM332 1116l188 297h160l-229 -297h-119z" />
    <glyph glyph-name="uni0454" unicode="&#x454;" horiz-adv-x="1003" 
d="M578 -20q-138 0 -252 60t-182 174.5t-68 262.5t69.5 264t183 177t249.5 61q109 0 201 -38t149 -95l-68 -115q-127 117 -285 117q-134 0 -227 -83.5t-112 -221.5h495v-127h-495q20 -139 113.5 -222t230.5 -83q91 0 166 36.5t126 100.5l70 -115q-60 -68 -154 -110.5
t-210 -42.5z" />
    <glyph glyph-name="uni0455" unicode="&#x455;" horiz-adv-x="823" 
d="M408 -20q-111 0 -206.5 46t-150.5 124l80 102q129 -146 281 -146q87 0 145.5 36t58.5 112q0 57 -46 96.5t-150 73.5l-39 12q-146 47 -212.5 110.5t-66.5 164.5q0 84 46.5 146.5t116.5 92t151 29.5q97 0 178 -31.5t137 -81.5l-74 -102q-105 88 -241 88q-79 0 -124.5 -31
t-45.5 -96q0 -59 53 -94t152 -68l34 -12q144 -50 209.5 -112.5t65.5 -166.5q0 -135 -99.5 -213.5t-252.5 -78.5z" />
    <glyph glyph-name="uni0456" unicode="&#x456;" horiz-adv-x="458" 
d="M154 0v958h151v-958h-151zM229 1186q-46 0 -76 30t-30 74t30.5 74.5t75.5 30.5q46 0 76.5 -30.5t30.5 -74.5t-30.5 -74t-76.5 -30z" />
    <glyph glyph-name="uni0457" unicode="&#x457;" horiz-adv-x="458" 
d="M82 1163q-38 0 -66 29t-28 72q0 45 27.5 72.5t66.5 27.5t66.5 -27.5t27.5 -72.5q0 -43 -28 -72t-66 -29zM154 0v958h151v-958h-151zM377 1163q-38 0 -66 29t-28 72q0 45 27.5 72.5t66.5 27.5t66.5 -27.5t27.5 -72.5q0 -43 -28 -72t-66 -29z" />
    <glyph glyph-name="uni0458" unicode="&#x458;" horiz-adv-x="458" 
d="M18 -410q-59 0 -96 13l6 133q43 -15 66 -15q92 0 126 59.5t34 211.5v966h151v-976q0 -89 -14 -157t-46 -122.5t-89 -83.5t-138 -29zM229 1186q-46 0 -76 30t-30 74t30.5 74.5t75.5 30.5q46 0 76.5 -30.5t30.5 -74.5t-30.5 -74t-76.5 -30z" />
    <glyph glyph-name="uni0459" unicode="&#x459;" horiz-adv-x="1585" 
d="M123 -12q-56 0 -96 16v127q36 -16 73 -16q65 0 96 62.5t31 221.5v559h711v-391h207q178 0 276.5 -70.5t98.5 -211.5q0 -142 -98.5 -213.5t-276.5 -71.5h-359v831h-407v-446q0 -397 -256 -397zM1133 127q115 0 173 33.5t58 122.5t-59 123t-172 34h-195v-313h195z" />
    <glyph glyph-name="uni045A" unicode="&#x45a;" horiz-adv-x="1564" 
d="M143 0v958h152v-391h471v391h152v-391h206q178 0 276.5 -70.5t98.5 -211.5q0 -142 -98.5 -213.5t-276.5 -71.5h-358v440h-471v-440h-152zM1112 127q115 0 173 33.5t58 122.5t-59 123t-172 34h-194v-313h194z" />
    <glyph glyph-name="uni045B" unicode="&#x45b;" horiz-adv-x="1097" 
d="M25 1124v119h137v170h151v-170h387v-119h-387v-188q0 -101 -4 -133q43 86 129.5 131t196.5 45q92 0 157 -30t100 -86.5t50.5 -124.5t15.5 -156v-582h-151v571q0 277 -215 277q-61 0 -110.5 -22.5t-80 -57.5t-51 -81t-29 -90.5t-8.5 -88.5v-508h-151v1124h-137z" />
    <glyph glyph-name="uni045C" unicode="&#x45c;" horiz-adv-x="948" 
d="M143 0v958h152v-405l416 405h192l-387 -362l442 -596h-182l-362 500l-119 -113v-387h-152zM428 1116l188 297h160l-229 -297h-119z" />
    <glyph glyph-name="uni045D" unicode="&#x45d;" 
d="M143 0v958h152v-507q0 -212 -4 -232l561 739h160v-958h-152v516q0 218 4 234l-569 -750h-152zM590 1116l-230 297h160l189 -297h-119z" />
    <glyph glyph-name="uni045E" unicode="&#x45e;" horiz-adv-x="946" 
d="M209 -399q-65 0 -131 32l31 125q50 -26 98 -26q46 0 73 26.5t66 114.5l55 127l-393 958h162l309 -784l297 784h162l-469 -1134q-53 -125 -115 -174t-145 -49zM473 1124q-124 0 -195.5 70.5t-80.5 200.5h90q14 -80 61.5 -123t124.5 -43q158 0 186 166h91
q-9 -130 -80.5 -200.5t-196.5 -70.5z" />
    <glyph glyph-name="uni045F" unicode="&#x45f;" horiz-adv-x="1114" 
d="M481 -258v258h-338v958h152v-831h524v831h152v-958h-338v-258h-152z" />
    <glyph glyph-name="uni048C" unicode="&#x48c;" horiz-adv-x="1245" 
d="M285 0v1053h-258v135h258v225h153v-225h281v-135h-281v-240h279q210 0 338.5 -110.5t128.5 -294.5q0 -185 -128.5 -296.5t-338.5 -111.5h-432zM690 135q156 0 246 64.5t90 206.5q0 272 -373 272h-215v-543h252z" />
    <glyph glyph-name="uni048D" unicode="&#x48d;" horiz-adv-x="1015" 
d="M197 0v698h-172v127h172v133h151v-133h193v-127h-193v-131h227q178 0 276.5 -70.5t98.5 -211.5q0 -142 -98.5 -213.5t-276.5 -71.5h-378zM563 127q115 0 173.5 33.5t58.5 122.5t-59.5 123t-172.5 34h-215v-313h215z" />
    <glyph glyph-name="uni0490" unicode="&#x490;" horiz-adv-x="999" 
d="M166 0v1413h645v225h135v-360h-627v-1278h-153z" />
    <glyph glyph-name="uni0491" unicode="&#x491;" horiz-adv-x="798" 
d="M143 0v958h482v193h127v-320h-457v-831h-152z" />
    <glyph glyph-name="uni1E02" unicode="&#x1e02;" horiz-adv-x="1175" 
d="M166 0v1413h369q452 0 452 -354q0 -107 -63.5 -192.5t-159.5 -116.5v-5q154 -28 236.5 -117t82.5 -231q0 -397 -483 -397h-434zM557 133q71 0 124.5 6.5t101.5 23.5t78 46.5t47.5 76.5t17.5 111q0 72 -27.5 125t-79 84t-118.5 45.5t-152 14.5h-230v-533h238zM498 797
q331 0 331 247q0 127 -80 181.5t-223 54.5h-207v-483h179zM563 1571q-40 0 -69 28t-29 72q0 45 29 73t69 28t69.5 -28t29.5 -73q0 -44 -29.5 -72t-69.5 -28z" />
    <glyph glyph-name="uni1E03" unicode="&#x1e03;" horiz-adv-x="1198" 
d="M659 -20q-111 0 -207 47t-149 139v-166h-149v1413h151v-512q0 -99 -2 -113q55 87 148.5 139t216.5 52q204 0 329 -138t125 -352q0 -220 -130.5 -364.5t-332.5 -144.5zM631 111q154 0 245 104t91 264q0 159 -89.5 264t-238.5 105q-151 0 -245.5 -107t-94.5 -268
q0 -155 88.5 -258.5t243.5 -103.5zM711 1163q-39 0 -68 29t-29 72q0 45 28.5 72.5t68.5 27.5t68 -27t28 -73q0 -43 -28.5 -72t-67.5 -29z" />
    <glyph glyph-name="uni1E0A" unicode="&#x1e0a;" horiz-adv-x="1392" 
d="M166 0v1413h403q216 0 385 -88t263 -249.5t94 -370.5q0 -200 -94 -360.5t-264 -252.5t-384 -92h-403zM565 135q137 0 250 46t186 125t112.5 182t39.5 219q0 264 -160.5 417.5t-427.5 153.5h-246v-1143h246zM670 1571q-40 0 -69.5 28t-29.5 72q0 45 29.5 73t69.5 28
t69 -28t29 -73q0 -44 -29 -72t-69 -28z" />
    <glyph glyph-name="uni1E0B" unicode="&#x1e0b;" horiz-adv-x="1198" 
d="M530 -20q-204 0 -329 137.5t-125 351.5q0 221 130.5 365.5t332.5 144.5q111 0 207 -47t149 -139q-2 14 -2 112v508h151v-1413h-149v170q-55 -87 -148.5 -138.5t-216.5 -51.5zM559 111q151 0 245.5 106.5t94.5 267.5q0 155 -88.5 259t-243.5 104q-154 0 -245 -104.5
t-91 -264.5q0 -159 89.5 -263.5t238.5 -104.5zM485 1163q-39 0 -67.5 29t-28.5 72q0 46 28 73t68 27t68.5 -27.5t28.5 -72.5q0 -43 -29 -72t-68 -29z" />
    <glyph glyph-name="uni1E0C" unicode="&#x1e0c;" horiz-adv-x="1392" 
d="M166 0v1413h403q216 0 385 -88t263 -249.5t94 -370.5q0 -200 -94 -360.5t-264 -252.5t-384 -92h-403zM565 135q137 0 250 46t186 125t112.5 182t39.5 219q0 264 -160.5 417.5t-427.5 153.5h-246v-1143h246zM670 -365q-40 0 -68.5 27.5t-28.5 73.5q0 43 29 71.5t68 28.5
t67.5 -28.5t28.5 -71.5q0 -46 -28 -73.5t-68 -27.5z" />
    <glyph glyph-name="uni1E0D" unicode="&#x1e0d;" horiz-adv-x="1198" 
d="M530 -20q-204 0 -329 137.5t-125 351.5q0 221 130.5 365.5t332.5 144.5q111 0 207 -47t149 -139q-2 14 -2 112v508h151v-1413h-149v170q-55 -87 -148.5 -138.5t-216.5 -51.5zM559 111q151 0 245.5 106.5t94.5 267.5q0 155 -88.5 259t-243.5 104q-154 0 -245 -104.5
t-91 -264.5q0 -159 89.5 -263.5t238.5 -104.5zM551 -365q-40 0 -68 27.5t-28 73.5q0 43 28.5 71.5t67.5 28.5t67.5 -28.5t28.5 -71.5q0 -46 -28 -73.5t-68 -27.5z" />
    <glyph glyph-name="uni1E1E" unicode="&#x1e1e;" horiz-adv-x="995" 
d="M166 0v1413h749v-133h-596v-514h560v-133h-560v-633h-153zM559 1571q-40 0 -69 28t-29 72q0 45 29 73t69 28t69 -28t29 -73q0 -44 -29 -72t-69 -28z" />
    <glyph glyph-name="uni1E1F" unicode="&#x1e1f;" horiz-adv-x="585" 
d="M176 0v831h-139v127h139v113q0 169 71 266t220 97q72 0 141 -21l-14 -123q-53 17 -109 17q-49 0 -81.5 -17t-48 -49.5t-21.5 -68.5t-6 -87v-127h239v-127h-239v-831h-152zM422 1602q-39 0 -67.5 28.5t-28.5 71.5q0 46 28 73t68 27t68 -27t28 -73q0 -43 -28.5 -71.5
t-67.5 -28.5z" />
    <glyph glyph-name="uni1E20" unicode="&#x1e20;" horiz-adv-x="1511" 
d="M817 -23q-217 0 -384 90t-259 254.5t-92 378.5q0 216 93 384t258 260t374 92q183 0 322.5 -69.5t232.5 -176.5l-105 -105q-181 215 -458 215q-118 0 -220.5 -41.5t-177.5 -117t-118 -187.5t-43 -247q0 -273 163.5 -433.5t425.5 -160.5q121 0 230 35.5t180 103.5v350h-405
v135h557v-536q-91 -106 -245.5 -165t-328.5 -59zM526 1589v99h521v-99h-521z" />
    <glyph glyph-name="uni1E21" unicode="&#x1e21;" horiz-adv-x="1187" 
d="M526 -410q-216 0 -411 146l75 110q178 -125 345 -125q358 0 358 410v57q-55 -83 -148.5 -132.5t-214.5 -49.5q-204 0 -329 134.5t-125 342.5q0 214 130.5 355t332.5 141q111 0 207 -45.5t149 -136.5v159h149v-811q0 -260 -134 -407.5t-384 -147.5zM559 137
q151 0 245.5 103t94.5 258q0 149 -88.5 249.5t-243.5 100.5q-154 0 -245 -100.5t-91 -253.5q0 -154 89.5 -255.5t238.5 -101.5zM332 1194v96h483v-96h-483z" />
    <glyph glyph-name="uni1E22" unicode="&#x1e22;" horiz-adv-x="1449" 
d="M166 0v1413h153v-600h811v600h154v-1413h-154v680h-811v-680h-153zM725 1571q-40 0 -69 28t-29 72q0 45 29 73t69 28t69 -28t29 -73q0 -44 -29 -72t-69 -28z" />
    <glyph glyph-name="uni1E23" unicode="&#x1e23;" horiz-adv-x="1085" 
d="M154 0v1413h151v-477q0 -101 -4 -133q43 86 129.5 131t196.5 45q92 0 157 -30t100 -86.5t50.5 -124.5t15.5 -156v-582h-151v571q0 277 -215 277q-61 0 -110.5 -22.5t-80 -57.5t-51 -81t-29 -90.5t-8.5 -88.5v-508h-151zM647 1163q-39 0 -67.5 29t-28.5 72q0 46 28 73
t68 27t68 -27t28 -73q0 -43 -28.5 -72t-67.5 -29z" />
    <glyph glyph-name="uni1E24" unicode="&#x1e24;" horiz-adv-x="1449" 
d="M166 0v1413h153v-600h811v600h154v-1413h-154v680h-811v-680h-153zM725 -365q-40 0 -68 27.5t-28 73.5q0 43 28.5 71.5t67.5 28.5t67.5 -28.5t28.5 -71.5q0 -46 -28 -73.5t-68 -27.5z" />
    <glyph glyph-name="uni1E25" unicode="&#x1e25;" horiz-adv-x="1085" 
d="M154 0v1413h151v-477q0 -101 -4 -133q43 86 129.5 131t196.5 45q92 0 157 -30t100 -86.5t50.5 -124.5t15.5 -156v-582h-151v571q0 277 -215 277q-61 0 -110.5 -22.5t-80 -57.5t-51 -81t-29 -90.5t-8.5 -88.5v-508h-151zM582 -365q-40 0 -68.5 27.5t-28.5 73.5
q0 43 29 71.5t68 28.5t67.5 -28.5t28.5 -71.5q0 -46 -28 -73.5t-68 -27.5z" />
    <glyph glyph-name="uni1E36" unicode="&#x1e36;" horiz-adv-x="860" 
d="M166 0v1413h153v-1278h500v-135h-653zM516 -365q-40 0 -68 27.5t-28 73.5q0 43 28.5 71.5t67.5 28.5t67.5 -28.5t28.5 -71.5q0 -46 -28 -73.5t-68 -27.5z" />
    <glyph glyph-name="uni1E37" unicode="&#x1e37;" horiz-adv-x="458" 
d="M154 0v1413h151v-1413h-151zM229 -365q-40 0 -68 27.5t-28 73.5q0 43 28.5 71.5t67.5 28.5t68 -28.5t29 -71.5q0 -46 -28.5 -73.5t-68.5 -27.5z" />
    <glyph glyph-name="uni1E40" unicode="&#x1e40;" horiz-adv-x="1720" 
d="M96 0l142 1413h176l446 -1141l447 1141h176l141 -1413h-151l-113 1165l-463 -1183h-74l-463 1183l-112 -1165h-152zM860 1571q-40 0 -69 28t-29 72q0 45 29 73t69 28t69 -28t29 -73q0 -44 -29 -72t-69 -28z" />
    <glyph glyph-name="uni1E41" unicode="&#x1e41;" horiz-adv-x="1634" 
d="M143 0v958h150v-151q36 75 110 123.5t160 48.5q246 0 307 -207q31 90 113 148.5t182 58.5q81 0 142 -23t97 -59t58 -90t29.5 -107.5t7.5 -119.5v-580h-151v571q0 50 -8 93.5t-28.5 87.5t-63 70t-103.5 26q-115 0 -181.5 -98t-66.5 -244v-506h-152v571q0 39 -4.5 74
t-17.5 73.5t-34.5 66t-59 45.5t-86.5 18q-112 0 -180 -100t-68 -246v-502h-152zM817 1163q-39 0 -67.5 29t-28.5 72q0 46 28 73t68 27t68 -27t28 -73q0 -43 -28.5 -72t-67.5 -29z" />
    <glyph glyph-name="uni1E56" unicode="&#x1e56;" horiz-adv-x="1056" 
d="M166 0v1413h366q131 0 233.5 -42.5t164 -132t61.5 -214.5q0 -130 -65.5 -220t-172.5 -131.5t-247 -41.5h-187v-631h-153zM518 764q146 0 231 63.5t85 194.5q0 128 -86.5 193t-221.5 65h-207v-516h199zM557 1571q-40 0 -69 28t-29 72q0 45 29 73t69 28t69 -28t29 -73
q0 -44 -29 -72t-69 -28z" />
    <glyph glyph-name="uni1E57" unicode="&#x1e57;" horiz-adv-x="1187" 
d="M143 -385v1343h150v-170q55 88 148.5 139.5t215.5 51.5q204 0 329.5 -138t125.5 -352q0 -220 -130.5 -364.5t-332.5 -144.5q-111 0 -207 47t-149 139q2 -14 2 -113v-438h-152zM621 111q154 0 244.5 104t90.5 264q0 159 -89 264t-238 105q-151 0 -245.5 -107t-94.5 -268
q0 -155 88.5 -258.5t243.5 -103.5zM629 1163q-39 0 -68 29t-29 72q0 45 28.5 72.5t68.5 27.5t68 -27t28 -73q0 -43 -28.5 -72t-67.5 -29z" />
    <glyph glyph-name="uni1E60" unicode="&#x1e60;" horiz-adv-x="1081" 
d="M532 -20q-81 0 -153.5 21.5t-128 59.5t-96 79t-74.5 91l104 101q63 -93 158.5 -156t210.5 -63q116 0 197 65.5t81 179.5q0 54 -19.5 98.5t-57.5 77.5t-77.5 56.5t-94.5 46.5l-209 90q-238 102 -238 334q0 91 35 163.5t94.5 117t133.5 67.5t157 23q129 0 233 -52t168 -131
l-90 -102q-129 151 -307 151q-117 0 -192.5 -57.5t-75.5 -165.5q0 -87 50 -140.5t146 -94.5l193 -82q53 -23 94 -45t83.5 -55.5t69.5 -71.5t44.5 -91.5t17.5 -115.5q0 -126 -66.5 -218.5t-168.5 -136.5t-222 -44zM547 1571q-40 0 -69 28t-29 72q0 45 29 73t69 28t69 -28
t29 -73q0 -44 -29 -72t-69 -28z" />
    <glyph glyph-name="uni1E61" unicode="&#x1e61;" horiz-adv-x="823" 
d="M408 -20q-111 0 -206.5 46t-150.5 124l80 102q129 -146 281 -146q87 0 145.5 36t58.5 112q0 57 -46 96.5t-150 73.5l-39 12q-146 47 -212.5 110.5t-66.5 164.5q0 84 46.5 146.5t116.5 92t151 29.5q97 0 178 -31.5t137 -81.5l-74 -102q-105 88 -241 88q-79 0 -124.5 -31
t-45.5 -96q0 -59 53 -94t152 -68l34 -12q144 -50 209.5 -112.5t65.5 -166.5q0 -135 -99.5 -213.5t-252.5 -78.5zM412 1163q-39 0 -68 29t-29 72q0 45 28.5 72.5t68.5 27.5t68 -27t28 -73q0 -43 -28.5 -72t-67.5 -29z" />
    <glyph glyph-name="uni1E62" unicode="&#x1e62;" horiz-adv-x="1081" 
d="M532 -20q-81 0 -153.5 21.5t-128 59.5t-96 79t-74.5 91l104 101q63 -93 158.5 -156t210.5 -63q116 0 197 65.5t81 179.5q0 54 -19.5 98.5t-57.5 77.5t-77.5 56.5t-94.5 46.5l-209 90q-238 102 -238 334q0 91 35 163.5t94.5 117t133.5 67.5t157 23q129 0 233 -52t168 -131
l-90 -102q-129 151 -307 151q-117 0 -192.5 -57.5t-75.5 -165.5q0 -87 50 -140.5t146 -94.5l193 -82q53 -23 94 -45t83.5 -55.5t69.5 -71.5t44.5 -91.5t17.5 -115.5q0 -126 -66.5 -218.5t-168.5 -136.5t-222 -44zM524 -365q-40 0 -68 27.5t-28 73.5q0 43 28.5 71.5
t67.5 28.5t68 -28.5t29 -71.5q0 -46 -28.5 -73.5t-68.5 -27.5z" />
    <glyph glyph-name="uni1E63" unicode="&#x1e63;" horiz-adv-x="823" 
d="M408 -20q-111 0 -206.5 46t-150.5 124l80 102q129 -146 281 -146q87 0 145.5 36t58.5 112q0 57 -46 96.5t-150 73.5l-39 12q-146 47 -212.5 110.5t-66.5 164.5q0 84 46.5 146.5t116.5 92t151 29.5q97 0 178 -31.5t137 -81.5l-74 -102q-105 88 -241 88q-79 0 -124.5 -31
t-45.5 -96q0 -59 53 -94t152 -68l34 -12q144 -50 209.5 -112.5t65.5 -166.5q0 -135 -99.5 -213.5t-252.5 -78.5zM387 -365q-40 0 -68 27.5t-28 73.5q0 43 28.5 71.5t67.5 28.5t67.5 -28.5t28.5 -71.5q0 -46 -28 -73.5t-68 -27.5z" />
    <glyph glyph-name="uni1E6A" unicode="&#x1e6a;" horiz-adv-x="1011" 
d="M430 0v1278h-412v135h975v-135h-409v-1278h-154zM506 1571q-40 0 -69 28t-29 72q0 45 29 73t69 28t69 -28t29 -73q0 -44 -29 -72t-69 -28z" />
    <glyph glyph-name="uni1E6B" unicode="&#x1e6b;" horiz-adv-x="618" 
d="M410 -20q-130 0 -180 86.5t-50 269.5v495h-143v127h143v297h152v-297h237v-127h-237v-507q0 -125 26.5 -169t100.5 -44q51 0 108 22l8 -123q-67 -30 -165 -30zM260 1438q-39 0 -67.5 28.5t-28.5 71.5q0 46 28 73t68 27t68 -27t28 -73q0 -43 -28.5 -71.5t-67.5 -28.5z" />
    <glyph glyph-name="uni1E6C" unicode="&#x1e6c;" horiz-adv-x="1011" 
d="M430 0v1278h-412v135h975v-135h-409v-1278h-154zM506 -365q-40 0 -68 27.5t-28 73.5q0 43 28.5 71.5t67.5 28.5t67.5 -28.5t28.5 -71.5q0 -46 -28 -73.5t-68 -27.5z" />
    <glyph glyph-name="uni1E6D" unicode="&#x1e6d;" horiz-adv-x="618" 
d="M410 -20q-130 0 -180 86.5t-50 269.5v495h-143v127h143v297h152v-297h237v-127h-237v-507q0 -125 26.5 -169t100.5 -44q51 0 108 22l8 -123q-67 -30 -165 -30zM365 -365q-40 0 -68.5 27.5t-28.5 73.5q0 43 29 71.5t68 28.5t67.5 -28.5t28.5 -71.5q0 -46 -28 -73.5
t-68 -27.5z" />
    <glyph glyph-name="Wgrave" unicode="&#x1e80;" horiz-adv-x="1884" 
d="M420 -2l-402 1415h158l330 -1186l352 1186h168l352 -1182l330 1182h158l-402 -1415h-164l-358 1186l-358 -1186h-164zM948 1532l-252 297h166l211 -297h-125z" />
    <glyph glyph-name="wgrave" unicode="&#x1e81;" horiz-adv-x="1536" 
d="M334 0l-309 958h157l242 -761l283 764h122l283 -764l242 761h157l-309 -958h-151l-283 758l-283 -758h-151zM780 1116l-229 297h160l188 -297h-119z" />
    <glyph glyph-name="Wacute" unicode="&#x1e82;" horiz-adv-x="1884" 
d="M420 -2l-402 1415h158l330 -1186l352 1186h168l352 -1182l330 1182h158l-402 -1415h-164l-358 1186l-358 -1186h-164zM811 1532l211 297h166l-252 -297h-125z" />
    <glyph glyph-name="wacute" unicode="&#x1e83;" horiz-adv-x="1536" 
d="M334 0l-309 958h157l242 -761l283 764h122l283 -764l242 761h157l-309 -958h-151l-283 758l-283 -758h-151zM637 1116l188 297h160l-229 -297h-119z" />
    <glyph glyph-name="Wdieresis" unicode="&#x1e84;" horiz-adv-x="1884" 
d="M420 -2l-402 1415h158l330 -1186l352 1186h168l352 -1182l330 1182h158l-402 -1415h-164l-358 1186l-358 -1186h-164zM1110 1571q-40 0 -69 28t-29 72q0 45 29 73t69 28t69 -28t29 -73q0 -44 -29 -72t-69 -28zM772 1571q-38 0 -67 28t-29 72q0 45 28.5 73t67.5 28
q43 0 71.5 -27.5t28.5 -73.5q0 -45 -29 -72.5t-71 -27.5z" />
    <glyph glyph-name="wdieresis" unicode="&#x1e85;" horiz-adv-x="1536" 
d="M334 0l-309 958h157l242 -761l283 764h122l283 -764l242 761h157l-309 -958h-151l-283 758l-283 -758h-151zM930 1163q-39 0 -67.5 29t-28.5 72q0 46 28 73t68 27t68 -27t28 -73q0 -43 -28.5 -72t-67.5 -29zM606 1163q-39 0 -67.5 29t-28.5 72q0 46 28 73t68 27t68 -27
t28 -73q0 -43 -28.5 -72t-67.5 -29z" />
    <glyph glyph-name="uni1E92" unicode="&#x1e92;" horiz-adv-x="1134" 
d="M61 0v121l807 1157h-784v135h979v-104l-823 -1174h833v-135h-1012zM631 -365q-40 0 -68 27.5t-28 73.5q0 43 28.5 71.5t67.5 28.5t67.5 -28.5t28.5 -71.5q0 -46 -28 -73.5t-68 -27.5z" />
    <glyph glyph-name="uni1E93" unicode="&#x1e93;" horiz-adv-x="905" 
d="M47 0v98l586 733h-557v127h751v-98l-585 -733h616v-127h-811zM475 -365q-40 0 -68 27.5t-28 73.5q0 43 28.5 71.5t67.5 28.5t67.5 -28.5t28.5 -71.5q0 -46 -28 -73.5t-68 -27.5z" />
    <glyph glyph-name="uni1E9E" unicode="&#x1e9e;" horiz-adv-x="1282" 
d="M729 -20q-96 0 -172 21.5t-115 47.5l56 131q117 -65 229 -65q58 0 110.5 14.5t100 45.5t76 89.5t28.5 138.5q0 159 -111.5 244t-287.5 98l258 463q-104 90 -256 90q-184 0 -260 -101t-76 -308v-889h-153v852q0 286 117.5 434t367.5 148q283 0 444 -185l-229 -413
q58 -12 115.5 -45t110 -85t85.5 -132t33 -173q0 -196 -133.5 -308.5t-337.5 -112.5z" />
    <glyph glyph-name="uni1EA0" unicode="&#x1ea0;" horiz-adv-x="1310" 
d="M10 0l588 1417h115l587 -1417h-163l-158 395h-647l-158 -395h-164zM383 528h545l-273 680zM655 -365q-40 0 -68 27.5t-28 73.5q0 43 28.5 71.5t67.5 28.5t68 -28.5t29 -71.5q0 -46 -28.5 -73.5t-68.5 -27.5z" />
    <glyph glyph-name="uni1EA1" unicode="&#x1ea1;" horiz-adv-x="993" 
d="M391 -20q-140 0 -235 81.5t-95 210.5q0 128 96.5 207t286.5 88l263 13v34q0 116 -70.5 175t-185.5 59q-79 0 -156 -28t-127 -64l-53 129q160 94 342 94q205 0 303 -103t98 -313v-563h-149v121q-40 -52 -124 -96.5t-194 -44.5zM420 106q89 0 167.5 46.5t119.5 101.5v207
l-250 -12q-242 -11 -242 -175q0 -73 57 -120.5t148 -47.5zM455 -365q-40 0 -68.5 27.5t-28.5 73.5q0 43 29 71.5t68 28.5t67.5 -28.5t28.5 -71.5q0 -46 -28 -73.5t-68 -27.5z" />
    <glyph glyph-name="uni1EA2" unicode="&#x1ea2;" horiz-adv-x="1310" 
d="M10 0l588 1417h115l587 -1417h-163l-158 395h-647l-158 -395h-164zM383 528h545l-273 680zM682 1909q96 0 149.5 -44.5t53.5 -125.5q0 -66 -53.5 -124.5t-137.5 -84.5h-108v10q82 23 131 75.5t49 96.5q0 53 -34 79t-87 26q-76 0 -143 -45l-31 57q86 80 211 80z" />
    <glyph glyph-name="uni1EA3" unicode="&#x1ea3;" horiz-adv-x="993" 
d="M391 -20q-140 0 -235 81.5t-95 210.5q0 128 96.5 207t286.5 88l263 13v34q0 116 -70.5 175t-185.5 59q-79 0 -156 -28t-127 -64l-53 129q160 94 342 94q205 0 303 -103t98 -313v-563h-149v121q-40 -52 -124 -96.5t-194 -44.5zM420 106q89 0 167.5 46.5t119.5 101.5v207
l-250 -12q-242 -11 -242 -175q0 -73 57 -120.5t148 -47.5zM489 1497q96 0 149.5 -44.5t53.5 -125.5q0 -66 -53.5 -124.5t-136.5 -84.5h-109v10q82 23 131 75.5t49 96.5q0 53 -33.5 79t-86.5 26q-77 0 -144 -45l-30 57q86 80 210 80z" />
    <glyph glyph-name="uni1EA4" unicode="&#x1ea4;" horiz-adv-x="1310" 
d="M10 0l588 1417h115l587 -1417h-163l-158 395h-647l-158 -395h-164zM383 528h545l-273 680zM332 1534l264 235h119l264 -235h-139l-185 154l-184 -154h-139zM856 1710l148 236h143l-189 -236h-102z" />
    <glyph glyph-name="uni1EA5" unicode="&#x1ea5;" horiz-adv-x="993" 
d="M391 -20q-140 0 -235 81.5t-95 210.5q0 128 96.5 207t286.5 88l263 13v34q0 116 -70.5 175t-185.5 59q-79 0 -156 -28t-127 -64l-53 129q160 94 342 94q205 0 303 -103t98 -313v-563h-149v121q-40 -52 -124 -96.5t-194 -44.5zM420 106q89 0 167.5 46.5t119.5 101.5v207
l-250 -12q-242 -11 -242 -175q0 -73 57 -120.5t148 -47.5zM664 1292l147 236h143l-188 -236h-102zM139 1116l264 236h119l264 -236h-139l-184 154l-184 -154h-140z" />
    <glyph glyph-name="uni1EA6" unicode="&#x1ea6;" horiz-adv-x="1310" 
d="M10 0l588 1417h115l587 -1417h-163l-158 395h-647l-158 -395h-164zM383 528h545l-273 680zM332 1534l264 235h119l264 -235h-139l-185 154l-184 -154h-139zM352 1710l-188 236h143l148 -236h-103z" />
    <glyph glyph-name="uni1EA7" unicode="&#x1ea7;" horiz-adv-x="993" 
d="M391 -20q-140 0 -235 81.5t-95 210.5q0 128 96.5 207t286.5 88l263 13v34q0 116 -70.5 175t-185.5 59q-79 0 -156 -28t-127 -64l-53 129q160 94 342 94q205 0 303 -103t98 -313v-563h-149v121q-40 -52 -124 -96.5t-194 -44.5zM420 106q89 0 167.5 46.5t119.5 101.5v207
l-250 -12q-242 -11 -242 -175q0 -73 57 -120.5t148 -47.5zM139 1116l264 236h119l264 -236h-139l-184 154l-184 -154h-140zM160 1292l-189 236h144l147 -236h-102z" />
    <glyph glyph-name="uni1EA8" unicode="&#x1ea8;" horiz-adv-x="1310" 
d="M10 0l588 1417h115l587 -1417h-163l-158 395h-647l-158 -395h-164zM383 528h545l-273 680zM332 1534l264 235h119l264 -235h-139l-185 154l-184 -154h-139zM821 1729q87 22 133.5 68.5t46.5 96.5q0 78 -116 78q-84 0 -148 -39l-30 58q87 71 211 71q93 0 147.5 -39
t54.5 -108q0 -65 -50.5 -118t-139.5 -79h-109v11z" />
    <glyph glyph-name="uni1EA9" unicode="&#x1ea9;" horiz-adv-x="993" 
d="M391 -20q-140 0 -235 81.5t-95 210.5q0 128 96.5 207t286.5 88l263 13v34q0 116 -70.5 175t-185.5 59q-79 0 -156 -28t-127 -64l-53 129q160 94 342 94q205 0 303 -103t98 -313v-563h-149v121q-40 -52 -124 -96.5t-194 -44.5zM420 106q89 0 167.5 46.5t119.5 101.5v207
l-250 -12q-242 -11 -242 -175q0 -73 57 -120.5t148 -47.5zM139 1116l264 236h119l264 -236h-139l-184 154l-184 -154h-140zM629 1311q87 22 133.5 69t46.5 97q0 77 -117 77q-85 0 -147 -38l-31 57q88 72 211 72q93 0 148 -39.5t55 -108.5q0 -65 -51 -118t-140 -79h-108v11z
" />
    <glyph glyph-name="uni1EAA" unicode="&#x1eaa;" horiz-adv-x="1310" 
d="M10 0l588 1417h115l587 -1417h-163l-158 395h-647l-158 -395h-164zM383 528h545l-273 680zM332 1534l264 235h119l264 -235h-139l-185 154l-184 -154h-139zM784 1831q-43 0 -92 23.5t-93.5 47t-76.5 23.5q-37 0 -60 -24.5t-28 -59.5l-86 25q6 75 56.5 124.5t121.5 49.5
q43 0 91.5 -23.5t93 -47t77.5 -23.5q38 0 60.5 24.5t25.5 59.5l89 -25q-6 -75 -57 -124.5t-122 -49.5z" />
    <glyph glyph-name="uni1EAB" unicode="&#x1eab;" horiz-adv-x="993" 
d="M391 -20q-140 0 -235 81.5t-95 210.5q0 128 96.5 207t286.5 88l263 13v34q0 116 -70.5 175t-185.5 59q-79 0 -156 -28t-127 -64l-53 129q160 94 342 94q205 0 303 -103t98 -313v-563h-149v121q-40 -52 -124 -96.5t-194 -44.5zM420 106q89 0 167.5 46.5t119.5 101.5v207
l-250 -12q-242 -11 -242 -175q0 -73 57 -120.5t148 -47.5zM139 1116l264 236h119l264 -236h-139l-184 154l-184 -154h-140zM592 1413q-43 0 -92 23.5t-93.5 47t-76.5 23.5q-37 0 -60 -24.5t-28 -59.5l-86 25q6 75 56.5 124.5t121.5 49.5q43 0 91.5 -23.5t93 -47t77.5 -23.5
q38 0 60.5 24.5t25.5 59.5l88 -25q-6 -75 -56.5 -124.5t-121.5 -49.5z" />
    <glyph glyph-name="uni1EAC" unicode="&#x1eac;" horiz-adv-x="1310" 
d="M10 0l588 1417h115l587 -1417h-163l-158 395h-647l-158 -395h-164zM383 528h545l-273 680zM655 -365q-40 0 -68 27.5t-28 73.5q0 43 28.5 71.5t67.5 28.5t68 -28.5t29 -71.5q0 -46 -28.5 -73.5t-68.5 -27.5zM379 1532l213 297h127l213 -297h-121l-156 221l-155 -221h-121
z" />
    <glyph glyph-name="uni1EAD" unicode="&#x1ead;" horiz-adv-x="993" 
d="M391 -20q-140 0 -235 81.5t-95 210.5q0 128 96.5 207t286.5 88l263 13v34q0 116 -70.5 175t-185.5 59q-79 0 -156 -28t-127 -64l-53 129q160 94 342 94q205 0 303 -103t98 -313v-563h-149v121q-40 -52 -124 -96.5t-194 -44.5zM420 106q89 0 167.5 46.5t119.5 101.5v207
l-250 -12q-242 -11 -242 -175q0 -73 57 -120.5t148 -47.5zM455 -365q-40 0 -68.5 27.5t-28.5 73.5q0 43 29 71.5t68 28.5t67.5 -28.5t28.5 -71.5q0 -46 -28 -73.5t-68 -27.5zM201 1116l202 297h119l203 -297h-119l-143 215l-144 -215h-118z" />
    <glyph glyph-name="uni1EAE" unicode="&#x1eae;" horiz-adv-x="1310" 
d="M10 0l588 1417h115l587 -1417h-163l-158 395h-647l-158 -395h-164zM383 528h545l-273 680zM655 1542q-124 0 -195.5 70.5t-80.5 199.5h90q14 -80 61 -122.5t125 -42.5q159 0 187 165h90q-9 -130 -80.5 -200t-196.5 -70zM584 1780l127 207h149l-168 -207h-108z" />
    <glyph glyph-name="uni1EAF" unicode="&#x1eaf;" horiz-adv-x="993" 
d="M391 -20q-140 0 -235 81.5t-95 210.5q0 128 96.5 207t286.5 88l263 13v34q0 116 -70.5 175t-185.5 59q-79 0 -156 -28t-127 -64l-53 129q160 94 342 94q205 0 303 -103t98 -313v-563h-149v121q-40 -52 -124 -96.5t-194 -44.5zM420 106q89 0 167.5 46.5t119.5 101.5v207
l-250 -12q-242 -11 -242 -175q0 -73 57 -120.5t148 -47.5zM463 1124q-124 0 -196 71t-81 200h90q14 -80 61.5 -123t125.5 -43q158 0 186 166h90q-9 -130 -80 -200.5t-196 -70.5zM391 1362l127 207h150l-168 -207h-109z" />
    <glyph glyph-name="uni1EB0" unicode="&#x1eb0;" horiz-adv-x="1310" 
d="M10 0l588 1417h115l587 -1417h-163l-158 395h-647l-158 -395h-164zM383 528h545l-273 680zM655 1542q-124 0 -195.5 70.5t-80.5 199.5h90q14 -80 61 -122.5t125 -42.5q159 0 187 165h90q-9 -130 -80.5 -200t-196.5 -70zM758 1780h-109l-168 207h150z" />
    <glyph glyph-name="uni1EB1" unicode="&#x1eb1;" horiz-adv-x="993" 
d="M391 -20q-140 0 -235 81.5t-95 210.5q0 128 96.5 207t286.5 88l263 13v34q0 116 -70.5 175t-185.5 59q-79 0 -156 -28t-127 -64l-53 129q160 94 342 94q205 0 303 -103t98 -313v-563h-149v121q-40 -52 -124 -96.5t-194 -44.5zM420 106q89 0 167.5 46.5t119.5 101.5v207
l-250 -12q-242 -11 -242 -175q0 -73 57 -120.5t148 -47.5zM463 1124q-124 0 -196 71t-81 200h90q14 -80 61.5 -123t125.5 -43q158 0 186 166h90q-9 -130 -80 -200.5t-196 -70.5zM565 1362h-108l-168 207h149z" />
    <glyph glyph-name="uni1EB2" unicode="&#x1eb2;" horiz-adv-x="1310" 
d="M10 0l588 1417h115l587 -1417h-163l-158 395h-647l-158 -395h-164zM383 528h545l-273 680zM655 1542q-124 0 -195.5 70.5t-80.5 199.5h90q14 -80 61 -122.5t125 -42.5q159 0 187 165h90q-9 -130 -80.5 -200t-196.5 -70zM653 2114q96 0 149.5 -38.5t53.5 -111.5
q0 -64 -51.5 -112.5t-138.5 -75.5h-109v10q85 23 132.5 66.5t47.5 84.5q0 84 -121 84q-76 0 -143 -45l-31 58q86 80 211 80z" />
    <glyph glyph-name="uni1EB3" unicode="&#x1eb3;" horiz-adv-x="993" 
d="M391 -20q-140 0 -235 81.5t-95 210.5q0 128 96.5 207t286.5 88l263 13v34q0 116 -70.5 175t-185.5 59q-79 0 -156 -28t-127 -64l-53 129q160 94 342 94q205 0 303 -103t98 -313v-563h-149v121q-40 -52 -124 -96.5t-194 -44.5zM420 106q89 0 167.5 46.5t119.5 101.5v207
l-250 -12q-242 -11 -242 -175q0 -73 57 -120.5t148 -47.5zM463 1124q-124 0 -196 71t-81 200h90q14 -80 61.5 -123t125.5 -43q158 0 186 166h90q-9 -130 -80 -200.5t-196 -70.5zM461 1702q96 0 149.5 -38.5t53.5 -111.5q0 -64 -52 -112.5t-139 -75.5h-108v10q84 23 132 67
t48 85q0 84 -121 84q-76 0 -143 -45l-31 57q86 80 211 80z" />
    <glyph glyph-name="uni1EB4" unicode="&#x1eb4;" horiz-adv-x="1310" 
d="M10 0l588 1417h115l587 -1417h-163l-158 395h-647l-158 -395h-164zM383 528h545l-273 680zM655 1542q-124 0 -195.5 70.5t-80.5 199.5h90q14 -80 61 -122.5t125 -42.5q159 0 187 165h90q-9 -130 -80.5 -200t-196.5 -70zM784 1880q-43 0 -92 23.5t-93.5 47t-76.5 23.5
q-37 0 -60 -24.5t-28 -59.5l-86 25q6 75 56.5 124.5t121.5 49.5q43 0 91.5 -23.5t93 -47t77.5 -23.5q38 0 60.5 24.5t25.5 59.5l89 -25q-6 -75 -57 -124.5t-122 -49.5z" />
    <glyph glyph-name="uni1EB5" unicode="&#x1eb5;" horiz-adv-x="993" 
d="M391 -20q-140 0 -235 81.5t-95 210.5q0 128 96.5 207t286.5 88l263 13v34q0 116 -70.5 175t-185.5 59q-79 0 -156 -28t-127 -64l-53 129q160 94 342 94q205 0 303 -103t98 -313v-563h-149v121q-40 -52 -124 -96.5t-194 -44.5zM420 106q89 0 167.5 46.5t119.5 101.5v207
l-250 -12q-242 -11 -242 -175q0 -73 57 -120.5t148 -47.5zM463 1124q-124 0 -196 71t-81 200h90q14 -80 61.5 -123t125.5 -43q158 0 186 166h90q-9 -130 -80 -200.5t-196 -70.5zM592 1458q-43 0 -92 23.5t-93.5 47t-76.5 23.5q-37 0 -60 -24.5t-28 -59.5l-86 25
q6 75 56.5 124.5t121.5 49.5q43 0 91.5 -23.5t93 -47t77.5 -23.5q38 0 60.5 24.5t25.5 59.5l88 -25q-6 -75 -56.5 -124.5t-121.5 -49.5z" />
    <glyph glyph-name="uni1EB6" unicode="&#x1eb6;" horiz-adv-x="1310" 
d="M10 0l588 1417h115l587 -1417h-163l-158 395h-647l-158 -395h-164zM383 528h545l-273 680zM655 -365q-40 0 -68 27.5t-28 73.5q0 43 28.5 71.5t67.5 28.5t68 -28.5t29 -71.5q0 -46 -28.5 -73.5t-68.5 -27.5zM655 1546q-124 0 -198 69.5t-82 190.5h94q14 -79 61 -122.5
t125 -43.5t125.5 43.5t61.5 122.5h94q-8 -121 -82.5 -190.5t-198.5 -69.5z" />
    <glyph glyph-name="uni1EB7" unicode="&#x1eb7;" horiz-adv-x="993" 
d="M391 -20q-140 0 -235 81.5t-95 210.5q0 128 96.5 207t286.5 88l263 13v34q0 116 -70.5 175t-185.5 59q-79 0 -156 -28t-127 -64l-53 129q160 94 342 94q205 0 303 -103t98 -313v-563h-149v121q-40 -52 -124 -96.5t-194 -44.5zM420 106q89 0 167.5 46.5t119.5 101.5v207
l-250 -12q-242 -11 -242 -175q0 -73 57 -120.5t148 -47.5zM455 -365q-40 0 -68.5 27.5t-28.5 73.5q0 43 29 71.5t68 28.5t67.5 -28.5t28.5 -71.5q0 -46 -28 -73.5t-68 -27.5zM463 1124q-124 0 -196 71t-81 200h90q14 -80 61.5 -123t125.5 -43q158 0 186 166h90
q-9 -130 -80 -200.5t-196 -70.5z" />
    <glyph glyph-name="uni1EB8" unicode="&#x1eb8;" horiz-adv-x="1069" 
d="M166 0v1413h795v-135h-642v-465h605v-133h-605v-545h656v-135h-809zM621 -365q-40 0 -68.5 27.5t-28.5 73.5q0 43 29 71.5t68 28.5t67.5 -28.5t28.5 -71.5q0 -46 -28 -73.5t-68 -27.5z" />
    <glyph glyph-name="uni1EB9" unicode="&#x1eb9;" horiz-adv-x="1073" 
d="M563 -20q-97 0 -178.5 27t-137.5 73t-95 109t-57.5 135t-18.5 151q0 141 57.5 255.5t166.5 181.5t249 67q198 0 323 -126.5t125 -320.5q0 -48 -6 -96h-760q5 -143 98.5 -234t245.5 -91q178 0 324 125l68 -99q-64 -73 -171 -115t-233 -42zM846 559q0 52 -18 102t-53 92.5
t-93 68.5t-131 26q-138 0 -223 -84.5t-95 -204.5h613zM537 -365q-40 0 -68.5 27.5t-28.5 73.5q0 43 29 71.5t68 28.5t67.5 -28.5t28.5 -71.5q0 -46 -28 -73.5t-68 -27.5z" />
    <glyph glyph-name="uni1EBA" unicode="&#x1eba;" horiz-adv-x="1069" 
d="M166 0v1413h795v-135h-642v-465h605v-133h-605v-545h656v-135h-809zM600 1909q96 0 149.5 -44.5t53.5 -125.5q0 -66 -53.5 -124.5t-137.5 -84.5h-108v10q82 23 131 75.5t49 96.5q0 53 -34 79t-87 26q-76 0 -143 -45l-31 57q86 80 211 80z" />
    <glyph glyph-name="uni1EBB" unicode="&#x1ebb;" horiz-adv-x="1073" 
d="M563 -20q-97 0 -178.5 27t-137.5 73t-95 109t-57.5 135t-18.5 151q0 141 57.5 255.5t166.5 181.5t249 67q198 0 323 -126.5t125 -320.5q0 -48 -6 -96h-760q5 -143 98.5 -234t245.5 -91q178 0 324 125l68 -99q-64 -73 -171 -115t-233 -42zM846 559q0 52 -18 102t-53 92.5
t-93 68.5t-131 26q-138 0 -223 -84.5t-95 -204.5h613zM563 1497q96 0 149.5 -44.5t53.5 -125.5q0 -66 -53.5 -124.5t-137.5 -84.5h-108v10q82 23 131 75.5t49 96.5q0 53 -34 79t-87 26q-76 0 -143 -45l-31 57q86 80 211 80z" />
    <glyph glyph-name="uni1EBC" unicode="&#x1ebc;" horiz-adv-x="1069" 
d="M166 0v1413h795v-135h-642v-465h605v-133h-605v-545h656v-135h-809zM702 1626q-43 0 -92 23.5t-93.5 47t-76.5 23.5q-37 0 -60 -24.5t-28 -59.5l-86 25q6 75 56.5 124.5t121.5 49.5q43 0 92 -23.5t93.5 -47t77.5 -23.5q38 0 60.5 24.5t25.5 59.5l88 -25
q-6 -75 -57 -124.5t-122 -49.5z" />
    <glyph glyph-name="uni1EBD" unicode="&#x1ebd;" horiz-adv-x="1073" 
d="M563 -20q-97 0 -178.5 27t-137.5 73t-95 109t-57.5 135t-18.5 151q0 141 57.5 255.5t166.5 181.5t249 67q198 0 323 -126.5t125 -320.5q0 -48 -6 -96h-760q5 -143 98.5 -234t245.5 -91q178 0 324 125l68 -99q-64 -73 -171 -115t-233 -42zM846 559q0 52 -18 102t-53 92.5
t-93 68.5t-131 26q-138 0 -223 -84.5t-95 -204.5h613zM666 1171q-43 0 -92.5 23.5t-94 47.5t-76.5 24q-37 0 -60 -24.5t-28 -59.5l-86 24q6 75 57 124.5t122 49.5q43 0 91.5 -23.5t93 -47t77.5 -23.5q38 0 60.5 24.5t25.5 59.5l88 -24q-6 -75 -57 -125t-121 -50z" />
    <glyph glyph-name="uni1EBE" unicode="&#x1ebe;" horiz-adv-x="1069" 
d="M166 0v1413h795v-135h-642v-465h605v-133h-605v-545h656v-135h-809zM250 1534l264 235h119l264 -235h-139l-185 154l-184 -154h-139zM774 1710l148 236h143l-188 -236h-103z" />
    <glyph glyph-name="uni1EBF" unicode="&#x1ebf;" horiz-adv-x="1073" 
d="M563 -20q-97 0 -178.5 27t-137.5 73t-95 109t-57.5 135t-18.5 151q0 141 57.5 255.5t166.5 181.5t249 67q198 0 323 -126.5t125 -320.5q0 -48 -6 -96h-760q5 -143 98.5 -234t245.5 -91q178 0 324 125l68 -99q-64 -73 -171 -115t-233 -42zM846 559q0 52 -18 102t-53 92.5
t-93 68.5t-131 26q-138 0 -223 -84.5t-95 -204.5h613zM737 1292l148 236h143l-188 -236h-103zM213 1116l264 236h119l264 -236h-139l-184 154l-185 -154h-139z" />
    <glyph glyph-name="uni1EC0" unicode="&#x1ec0;" horiz-adv-x="1069" 
d="M166 0v1413h795v-135h-642v-465h605v-133h-605v-545h656v-135h-809zM250 1534l264 235h119l264 -235h-139l-185 154l-184 -154h-139zM270 1710l-188 236h143l148 -236h-103z" />
    <glyph glyph-name="uni1EC1" unicode="&#x1ec1;" horiz-adv-x="1073" 
d="M563 -20q-97 0 -178.5 27t-137.5 73t-95 109t-57.5 135t-18.5 151q0 141 57.5 255.5t166.5 181.5t249 67q198 0 323 -126.5t125 -320.5q0 -48 -6 -96h-760q5 -143 98.5 -234t245.5 -91q178 0 324 125l68 -99q-64 -73 -171 -115t-233 -42zM846 559q0 52 -18 102t-53 92.5
t-93 68.5t-131 26q-138 0 -223 -84.5t-95 -204.5h613zM213 1116l264 236h119l264 -236h-139l-184 154l-185 -154h-139zM233 1292l-188 236h143l148 -236h-103z" />
    <glyph glyph-name="uni1EC2" unicode="&#x1ec2;" horiz-adv-x="1069" 
d="M166 0v1413h795v-135h-642v-465h605v-133h-605v-545h656v-135h-809zM250 1534l264 235h119l264 -235h-139l-185 154l-184 -154h-139zM739 1729q87 22 134 68.5t47 96.5q0 78 -117 78q-84 0 -148 -39l-30 58q87 71 211 71q93 0 147.5 -39t54.5 -108q0 -65 -50.5 -118
t-139.5 -79h-109v11z" />
    <glyph glyph-name="uni1EC3" unicode="&#x1ec3;" horiz-adv-x="1073" 
d="M563 -20q-97 0 -178.5 27t-137.5 73t-95 109t-57.5 135t-18.5 151q0 141 57.5 255.5t166.5 181.5t249 67q198 0 323 -126.5t125 -320.5q0 -48 -6 -96h-760q5 -143 98.5 -234t245.5 -91q178 0 324 125l68 -99q-64 -73 -171 -115t-233 -42zM846 559q0 52 -18 102t-53 92.5
t-93 68.5t-131 26q-138 0 -223 -84.5t-95 -204.5h613zM213 1116l264 236h119l264 -236h-139l-184 154l-185 -154h-139zM702 1311q87 22 134 69t47 97q0 77 -117 77q-86 0 -148 -38l-30 57q88 72 211 72q93 0 147.5 -39.5t54.5 -108.5q0 -65 -50.5 -118t-139.5 -79h-109v11z
" />
    <glyph glyph-name="uni1EC4" unicode="&#x1ec4;" horiz-adv-x="1069" 
d="M166 0v1413h795v-135h-642v-465h605v-133h-605v-545h656v-135h-809zM250 1534l264 235h119l264 -235h-139l-185 154l-184 -154h-139zM702 1831q-43 0 -92 23.5t-93.5 47t-76.5 23.5q-37 0 -60 -24.5t-28 -59.5l-86 25q6 75 56.5 124.5t121.5 49.5q43 0 92 -23.5t93.5 -47
t77.5 -23.5q38 0 60.5 24.5t25.5 59.5l88 -25q-6 -75 -57 -124.5t-122 -49.5z" />
    <glyph glyph-name="uni1EC5" unicode="&#x1ec5;" horiz-adv-x="1073" 
d="M563 -20q-97 0 -178.5 27t-137.5 73t-95 109t-57.5 135t-18.5 151q0 141 57.5 255.5t166.5 181.5t249 67q198 0 323 -126.5t125 -320.5q0 -48 -6 -96h-760q5 -143 98.5 -234t245.5 -91q178 0 324 125l68 -99q-64 -73 -171 -115t-233 -42zM846 559q0 52 -18 102t-53 92.5
t-93 68.5t-131 26q-138 0 -223 -84.5t-95 -204.5h613zM213 1116l264 236h119l264 -236h-139l-184 154l-185 -154h-139zM666 1413q-43 0 -92.5 23.5t-94 47t-76.5 23.5q-37 0 -60 -24.5t-28 -59.5l-86 25q6 75 57 124.5t122 49.5q43 0 91.5 -23.5t93 -47t77.5 -23.5
q38 0 60.5 24.5t25.5 59.5l88 -25q-6 -75 -56.5 -124.5t-121.5 -49.5z" />
    <glyph glyph-name="uni1EC6" unicode="&#x1ec6;" horiz-adv-x="1069" 
d="M166 0v1413h795v-135h-642v-465h605v-133h-605v-545h656v-135h-809zM621 -365q-40 0 -68.5 27.5t-28.5 73.5q0 43 29 71.5t68 28.5t67.5 -28.5t28.5 -71.5q0 -46 -28 -73.5t-68 -27.5zM297 1532l213 297h127l213 -297h-121l-156 221l-155 -221h-121z" />
    <glyph glyph-name="uni1EC7" unicode="&#x1ec7;" horiz-adv-x="1073" 
d="M563 -20q-97 0 -178.5 27t-137.5 73t-95 109t-57.5 135t-18.5 151q0 141 57.5 255.5t166.5 181.5t249 67q198 0 323 -126.5t125 -320.5q0 -48 -6 -96h-760q5 -143 98.5 -234t245.5 -91q178 0 324 125l68 -99q-64 -73 -171 -115t-233 -42zM846 559q0 52 -18 102t-53 92.5
t-93 68.5t-131 26q-138 0 -223 -84.5t-95 -204.5h613zM537 -365q-40 0 -68.5 27.5t-28.5 73.5q0 43 29 71.5t68 28.5t67.5 -28.5t28.5 -71.5q0 -46 -28 -73.5t-68 -27.5zM274 1116l203 297h119l203 -297h-119l-143 215l-144 -215h-119z" />
    <glyph glyph-name="uni1EC8" unicode="&#x1ec8;" horiz-adv-x="485" 
d="M166 0v1413h153v-1413h-153zM270 1909q96 0 149.5 -44.5t53.5 -125.5q0 -66 -53.5 -124.5t-136.5 -84.5h-109v10q82 23 131 75.5t49 96.5q0 53 -34 79t-87 26q-76 0 -143 -45l-31 57q86 80 211 80z" />
    <glyph glyph-name="uni1EC9" unicode="&#x1ec9;" horiz-adv-x="458" 
d="M154 0v958h151v-958h-151zM256 1497q96 0 149.5 -44.5t53.5 -125.5q0 -66 -53.5 -124.5t-137.5 -84.5h-108v10q82 23 131 75.5t49 96.5q0 53 -34 79t-87 26q-76 0 -143 -45l-31 57q86 80 211 80z" />
    <glyph glyph-name="uni1ECA" unicode="&#x1eca;" horiz-adv-x="485" 
d="M166 0v1413h153v-1413h-153zM244 -365q-40 0 -68.5 27.5t-28.5 73.5q0 43 29 71.5t68 28.5t67.5 -28.5t28.5 -71.5q0 -46 -28 -73.5t-68 -27.5z" />
    <glyph glyph-name="uni1ECB" unicode="&#x1ecb;" horiz-adv-x="458" 
d="M154 0v958h151v-958h-151zM229 1186q-46 0 -76 30t-30 74t30.5 74.5t75.5 30.5q46 0 76.5 -30.5t30.5 -74.5t-30.5 -74t-76.5 -30zM229 -365q-40 0 -68 27.5t-28 73.5q0 43 28.5 71.5t67.5 28.5t68 -28.5t29 -71.5q0 -46 -28.5 -73.5t-68.5 -27.5z" />
    <glyph glyph-name="uni1ECC" unicode="&#x1ecc;" horiz-adv-x="1609" 
d="M805 -23q-146 0 -277 51t-230.5 143.5t-157.5 231.5t-58 304t58.5 303.5t157.5 231t230 143.5t277 51q145 0 276 -51t230.5 -143.5t158 -231t58.5 -303.5q0 -166 -58 -304.5t-157 -231t-230 -143.5t-278 -51zM805 113q115 0 217.5 41.5t180 117t122.5 188.5t45 249
t-45 248.5t-122.5 186.5t-180 115t-217.5 41t-217 -40.5t-179.5 -114.5t-123 -187t-45.5 -249q0 -180 78.5 -317.5t206 -208t280.5 -70.5zM805 -365q-40 0 -68 27.5t-28 73.5q0 43 28.5 71.5t67.5 28.5t67.5 -28.5t28.5 -71.5q0 -46 -28 -73.5t-68 -27.5z" />
    <glyph glyph-name="uni1ECD" unicode="&#x1ecd;" 
d="M575 -20q-213 0 -356 139t-143 358q0 144 66 259t180 179t253 64q214 0 359 -142t145 -360t-144.5 -357.5t-359.5 -139.5zM575 111q158 0 253.5 105t95.5 263q0 159 -95.5 264t-253.5 105q-156 0 -250 -105t-94 -264q0 -158 94 -263t250 -105zM578 -365q-40 0 -68.5 27.5
t-28.5 73.5q0 43 29 71.5t68 28.5t67.5 -28.5t28.5 -71.5q0 -46 -28 -73.5t-68 -27.5z" />
    <glyph glyph-name="uni1ECE" unicode="&#x1ece;" horiz-adv-x="1609" 
d="M805 -23q-146 0 -277 51t-230.5 143.5t-157.5 231.5t-58 304t58.5 303.5t157.5 231t230 143.5t277 51q145 0 276 -51t230.5 -143.5t158 -231t58.5 -303.5q0 -166 -58 -304.5t-157 -231t-230 -143.5t-278 -51zM805 113q115 0 217.5 41.5t180 117t122.5 188.5t45 249
t-45 248.5t-122.5 186.5t-180 115t-217.5 41t-217 -40.5t-179.5 -114.5t-123 -187t-45.5 -249q0 -180 78.5 -317.5t206 -208t280.5 -70.5zM831 1909q96 0 149.5 -44.5t53.5 -125.5q0 -66 -53.5 -124.5t-136.5 -84.5h-109v10q82 23 131 75.5t49 96.5q0 53 -33.5 79t-86.5 26
q-77 0 -144 -45l-30 57q86 80 210 80z" />
    </font>
</defs>
</svg>
