<svg width="24" height="24" viewBox="0 0 24 24" fill="none" xmlns="http://www.w3.org/2000/svg">
<path d="M13.7962 4.09874C14.7075 4.30499 15.5625 4.66499 16.3275 5.15249C16.6275 4.93124 16.9987 4.79999 17.4 4.79999C18.3937 4.79999 19.2 5.60624 19.2 6.59999C19.2 7.00124 19.0687 7.37249 18.8475 7.66874C19.335 8.43374 19.695 9.28874 19.9012 10.2C20.85 10.2525 21.6 11.0362 21.6 11.9962C21.6 12.9562 20.8462 13.74 19.9012 13.7925C19.695 14.7037 19.335 15.5587 18.8475 16.3237C19.0687 16.6237 19.2 16.995 19.2 17.3962C19.2 18.39 18.3937 19.1962 17.4 19.1962C17.2762 19.1962 17.1562 19.185 17.0437 19.1625L16.2375 16.6612C17.295 15.7012 18.0225 14.3812 18.2362 12.9H15.4875C15.5625 12.6112 15.6 12.3112 15.6 12C15.6 11.6887 15.5625 11.3887 15.4875 11.1H18.2362C18.0937 10.0987 17.715 9.17624 17.16 8.38499C17.0812 8.37374 17.0062 8.35874 16.935 8.33999L15.1012 10.1737C14.79 9.64874 14.3512 9.20999 13.83 8.90249L15.6637 7.06874C15.645 6.99374 15.63 6.91874 15.6187 6.84374C14.8275 6.28874 13.9012 5.90999 12.9037 5.76749V8.51624C12.615 8.44124 12.315 8.40374 12.0037 8.40374C11.6925 8.40374 11.3925 8.44499 11.1037 8.51624V5.76749C10.1025 5.90999 9.17997 6.28874 8.38872 6.84374C8.37747 6.92249 8.36247 6.99749 8.34372 7.06874L10.1775 8.90249C9.65247 9.21374 9.21372 9.65249 8.90622 10.1737L7.07247 8.33999C6.99747 8.35874 6.92247 8.37374 6.84747 8.38499C6.29247 9.17624 5.91372 10.0987 5.77122 11.1H8.51997C8.44497 11.3887 8.40747 11.6887 8.40747 12C8.40747 12.3112 8.44872 12.6112 8.51997 12.9H5.77122C5.98497 14.385 6.71247 15.7012 7.76997 16.6612L6.96372 19.1625C6.84747 19.185 6.72747 19.1962 6.60747 19.1962C5.61372 19.1962 4.80747 18.39 4.80747 17.3962C4.80747 16.995 4.93872 16.6237 5.15997 16.3237C4.67247 15.5587 4.31247 14.7037 4.10622 13.7925C3.15747 13.74 2.40747 12.9562 2.40747 11.9962C2.40747 11.0362 3.16122 10.2525 4.10622 10.2C4.31247 9.28874 4.67247 8.43374 5.15997 7.66874C4.93872 7.36874 4.80747 6.99749 4.80747 6.59999C4.80747 5.60624 5.61372 4.79999 6.60747 4.79999C7.00872 4.79999 7.37997 4.93124 7.67622 5.15249C8.44122 4.66499 9.29622 4.30499 10.2075 4.09874C10.26 3.14999 11.0437 2.39999 12.0037 2.39999C12.9637 2.39999 13.7475 3.15374 13.8 4.09874H13.7962ZM11.055 18.1837L10.5337 19.8H13.4662L12.945 18.1837L12.885 18L12 15.24L11.115 18L11.055 18.1837ZM13.8 12C13.8 12.5025 13.5937 12.9562 13.26 13.2825C13.3912 13.695 14.0325 15.6825 15.1762 19.2487L15.555 20.4225C15.6412 20.6962 15.5962 20.9962 15.4237 21.2287C15.2512 21.4612 14.9887 21.6 14.7 21.6H9.29997C9.01122 21.6 8.74122 21.4612 8.57247 21.2287C8.40372 20.9962 8.35497 20.6962 8.44122 20.4225C8.51247 20.2012 9.12747 18.2925 10.2862 14.6887L10.74 13.2825C10.4062 12.9562 10.2 12.5025 10.2 12C10.2 11.1 10.86 10.3537 11.7225 10.2225C11.8125 10.2075 11.9062 10.2 12 10.2C12.0937 10.2 12.1875 10.2075 12.2775 10.2225C13.14 10.3575 13.8 11.1 13.8 12Z" fill="#333333"/>
</svg>
