<svg width="24" height="24" viewBox="0 0 24 24" fill="none" xmlns="http://www.w3.org/2000/svg">
<path d="M5.9999 3.60001C4.67615 3.60001 3.5999 4.67626 3.5999 6.00001V11.5538C2.86865 12.1613 2.3999 13.0763 2.3999 14.1V19.5C2.3999 19.9988 2.80115 20.4 3.2999 20.4C3.79865 20.4 4.1999 19.9988 4.1999 19.5V18H19.7999V19.5C19.7999 19.9988 20.2012 20.4 20.6999 20.4C21.1987 20.4 21.5999 19.9988 21.5999 19.5V14.1C21.5999 13.0763 21.1312 12.1613 20.3999 11.5538V6.00001C20.3999 4.67626 19.3237 3.60001 17.9999 3.60001H5.9999ZM17.3999 10.8H13.7999C13.1362 10.8 12.5999 10.2638 12.5999 9.60001V9.00001C12.5999 8.33626 13.1362 7.80001 13.7999 7.80001H17.3999C18.0637 7.80001 18.5999 8.33626 18.5999 9.00001V9.60001C18.5999 10.2638 18.0637 10.8 17.3999 10.8ZM10.1999 10.8H6.5999C5.93615 10.8 5.3999 10.2638 5.3999 9.60001V9.00001C5.3999 8.33626 5.93615 7.80001 6.5999 7.80001H10.1999C10.8637 7.80001 11.3999 8.33626 11.3999 9.00001V9.60001C11.3999 10.2638 10.8637 10.8 10.1999 10.8ZM19.7999 14.1V16.2H4.1999V14.1C4.1999 13.2713 4.87115 12.6 5.6999 12.6H18.2999C19.1287 12.6 19.7999 13.2713 19.7999 14.1Z" fill="#333333"/>
</svg>
