<svg width="24" height="24" viewBox="0 0 24 24" fill="none" xmlns="http://www.w3.org/2000/svg">
<g clip-path="url(#clip0_213_4497)">
<path d="M10.2001 2.39999C9.20634 2.39999 8.40009 3.20624 8.40009 4.19999V4.79999H7.80009C6.14259 4.79999 4.80009 6.14249 4.80009 7.79999V11.88L3.99009 12.2025C3.43509 12.4237 3.14634 13.0425 3.33759 13.6087C3.72759 14.7825 4.34259 15.8325 5.12634 16.725C5.77508 16.4287 6.46134 16.2562 7.15509 16.2112C6.35634 15.5137 5.70384 14.6362 5.26884 13.6275L11.1001 11.295V17.4187C11.8613 17.9812 12.1388 17.9812 12.9001 17.4187V11.295L18.7313 13.6275C18.2963 14.6362 17.6438 15.51 16.8451 16.2075C17.5388 16.2525 18.2288 16.425 18.8738 16.7212C19.6576 15.8325 20.2726 14.7787 20.6626 13.605C20.8501 13.035 20.5651 12.42 20.0101 12.1987L19.2001 11.88V7.79999C19.2001 6.14249 17.8576 4.79999 16.2001 4.79999H15.6001V4.19999C15.6001 3.20624 14.7938 2.39999 13.8001 2.39999H10.2001ZM11.1076 9.35624L6.60009 11.16V7.79999C6.60009 7.13624 7.13633 6.59999 7.80009 6.59999H16.2001C16.8638 6.59999 17.4001 7.13624 17.4001 7.79999V11.16L12.8926 9.35624C12.3188 9.12749 11.6813 9.12749 11.1113 9.35624H11.1076ZM15.1276 20.2537C15.9263 19.65 16.9988 19.65 17.7976 20.2537C18.5101 20.7937 19.3688 21.3112 20.3176 21.5025C21.3113 21.705 22.3538 21.5325 23.3438 20.7862C23.7413 20.4862 23.8201 19.9237 23.5201 19.5262C23.2201 19.1287 22.6576 19.05 22.2601 19.35C21.7013 19.77 21.1876 19.8412 20.6738 19.7362C20.1151 19.6237 19.5151 19.29 18.8813 18.8137C17.4413 17.7262 15.4876 17.7262 14.0438 18.8137C13.1438 19.4925 12.5176 19.8 12.0001 19.8C11.4826 19.8 10.8563 19.4925 9.95634 18.8137C8.51634 17.7262 6.56259 17.7262 5.11883 18.8137C4.30884 19.425 3.57009 19.7812 2.91009 19.7775C2.55009 19.7737 2.16384 19.665 1.74009 19.3462C1.34259 19.0462 0.780085 19.125 0.480085 19.5225C0.180085 19.92 0.262585 20.4862 0.660085 20.7862C1.37634 21.3262 2.13759 21.5737 2.90259 21.5775C4.17384 21.585 5.31384 20.925 6.20634 20.2537C7.00508 19.65 8.07759 19.65 8.87634 20.2537C9.78384 20.94 10.8376 21.6 12.0038 21.6C13.1701 21.6 14.2201 20.9362 15.1313 20.2537H15.1276Z" fill="#333333"/>
</g>
<defs>
<clipPath id="clip0_213_4497">
<rect width="24" height="24" fill="white"/>
</clipPath>
</defs>
</svg>
