<svg width="32" height="32" viewBox="0 0 32 32" fill="none" xmlns="http://www.w3.org/2000/svg">
<path d="M22.7525 0.359794C23.4525 0.865645 23.7113 1.78323 23.3937 2.58318L18.7822 14.1178H27.2934C28.0875 14.1178 28.7933 14.6119 29.0639 15.3589C29.3345 16.1059 29.1051 16.9411 28.4992 17.447L11.5591 31.5637C10.8945 32.1166 9.94746 32.1461 9.2475 31.6402C8.54755 31.1344 8.28874 30.2168 8.60637 29.4168L13.2178 17.8822H4.70661C3.91254 17.8822 3.2067 17.3881 2.93613 16.6411C2.66556 15.8941 2.89496 15.0589 3.5008 14.553L20.4409 0.436259C21.1056 -0.116647 22.0526 -0.146057 22.7525 0.359794Z" fill="#CA2129"/>
</svg>
