<svg width="24" height="24" viewBox="0 0 24 24" fill="none" xmlns="http://www.w3.org/2000/svg">
<path d="M19.4099 7.42874C20.0324 7.20374 20.7224 7.52249 20.9474 8.14499C21.1724 8.76749 20.8536 9.45749 20.2311 9.68249L7.54488 14.3025C7.41738 14.3475 7.10613 14.4637 6.60738 14.6437C5.92488 14.8912 5.16363 14.6175 4.79988 13.9912L2.96988 10.86L3.01488 10.845L5.75238 12.12C5.96988 12.2212 6.21738 12.2325 6.44238 12.15L9.35613 11.0887C9.62613 10.9912 9.83613 10.7662 9.91488 10.4887C9.99363 10.2112 9.93363 9.91124 9.75363 9.68624L6.20613 5.21249L7.19613 4.84874L14.7899 8.80124C15.0149 8.91749 15.2774 8.93624 15.5136 8.84999L19.4136 7.43249L19.4099 7.42874ZM22.6386 7.52999C22.0724 5.97374 20.3511 5.17124 18.7949 5.73749L15.2661 7.01999L7.67613 3.07124C7.45113 2.95499 7.18863 2.93624 6.95238 3.02249L4.41738 3.94874C4.14738 4.04624 3.93738 4.27124 3.85863 4.54874C3.77988 4.82624 3.83988 5.12624 4.01988 5.35124L7.56738 9.82124L6.17988 10.3275L3.44238 9.05249C3.22488 8.95124 2.97738 8.93999 2.75238 9.02249L1.34238 9.53624C1.09113 9.62624 0.89613 9.82499 0.80238 10.0762C0.70863 10.3275 0.73863 10.605 0.87363 10.8375L3.24738 14.8987C4.05363 16.275 5.72613 16.8787 7.22613 16.335C7.72488 16.155 8.03613 16.0387 8.16363 15.9937L20.8461 11.3737C22.4024 10.8075 23.2049 9.08624 22.6386 7.52999ZM2.10363 19.8C1.60488 19.8 1.20363 20.2012 1.20363 20.7C1.20363 21.1987 1.60488 21.6 2.10363 21.6H21.9036C22.4024 21.6 22.8036 21.1987 22.8036 20.7C22.8036 20.2012 22.4024 19.8 21.9036 19.8H2.10363Z" fill="#333333"/>
</svg>
