<svg width="18" height="20" viewBox="0 0 18 20" fill="none" xmlns="http://www.w3.org/2000/svg">
<path d="M3.09 3.51375C3.03375 3.57 2.95875 3.6 2.87625 3.6H1.73625C1.40625 3.6 1.1325 3.33 1.21875 3.0075C1.56375 1.68 3.03375 0 5.93625 0C8.12625 0 9.49875 0.95625 10.1925 1.995C10.9388 1.5225 11.9362 1.2 13.2037 1.2C16.1062 1.2 17.5763 2.88 17.9212 4.2075C18.0037 4.53 17.7337 4.8 17.4037 4.8H15.7275C15.6487 4.8 15.57 4.77 15.5138 4.71375L14.6138 3.81375C14.4975 3.6975 14.3063 3.6975 14.19 3.81375L13.29 4.71375C13.2338 4.77 13.1588 4.8 13.0763 4.8H10.1063C11.1562 7.79625 10.9013 11.1825 10.4775 13.2788C12.7088 13.6913 14.4 15.6488 14.4 18C14.4 18.6638 13.8638 19.2 13.2 19.2H1.2C0.53625 19.2 0 18.6638 0 18C0 15.3488 2.14875 13.2 4.8 13.2H7.2C8.3175 10.2263 8.30625 7.54125 8.055 5.925L4.77 9.21C4.5375 9.4425 4.15125 9.4425 3.9825 9.1575C3.28875 7.9725 3.13875 5.74875 5.19375 3.69375C5.24625 3.64125 5.29875 3.5925 5.3475 3.54375C5.33625 3.5325 5.32125 3.525 5.31 3.51375L4.41 2.61375C4.29375 2.4975 4.1025 2.4975 3.98625 2.61375L3.08625 3.51375H3.09Z" fill="#00537A"/>
</svg>
